<?xml version="1.0" standalone="no"?>
<!DOCTYPE svg PUBLIC "-//W3C//DTD SVG 1.1//EN" "http://www.w3.org/Graphics/SVG/1.1/DTD/svg11.dtd" >
<svg xmlns="http://www.w3.org/2000/svg" xmlns:xlink="http://www.w3.org/1999/xlink" version="1.1">
<metadata>
Created by FontForge 20170731 at Thu Nov  5 21:07:05 2015
 By Aleksey,,,
Copyright (c) 2015 by Dieter Hofrichter. All rights reserved.
</metadata>
<defs>
<font id="HoftypeCarnacRegular" horiz-adv-x="385" >
  <font-face 
    font-family="HoftypeCarnacRegular"
    font-weight="400"
    font-stretch="normal"
    units-per-em="1000"
    panose-1="2 0 5 3 0 0 0 2 0 4"
    ascent="750"
    descent="-250"
    x-height="499"
    cap-height="706"
    bbox="-161 -287 1190 985"
    underline-thickness="50"
    underline-position="-250"
    unicode-range="U+0020-FB04"
  />
<missing-glyph horiz-adv-x="501" 
d="M0 0v707h501v-707h-501zM251 399l170 257h-341zM280 354l172 -257v514zM80 50h341l-170 258zM50 611v-514l171 257z" />
    <glyph glyph-name="f_f" unicode="ff" horiz-adv-x="659" 
d="M198 0h-90v418h-81v76l81 5v48q0 93 46 134q27 24 73 35t125 15l4 -73q-68 -7 -97.5 -15.5t-43.5 -26.5q-17 -24 -17 -72v-45h240v66q0 95 45 135q28 25 74 36t125 14l4 -73q-68 -6 -97.5 -14.5t-43.5 -27.5q-18 -23 -18 -74v-62h127v-81h-127v-418h-89v418h-240v-418z
" />
    <glyph glyph-name="fi" unicode="fi" horiz-adv-x="578" 
d="M198 0h-90v418h-81v76l81 5v66q0 94 46 135q28 25 71.5 36t120.5 14l4 -73q-62 -6 -91 -15t-43 -27q-18 -21 -18 -74v-62h300v-499h-89v418h-211v-418zM508 661q0 -57 -55 -57t-55 56q0 58 55 58t55 -57z" />
    <glyph glyph-name="fl" unicode="fl" horiz-adv-x="603" 
d="M198 0h-90v418h-81v76l81 5v58q0 94 52 141q57 52 218 52q65 0 124 -9v-584q0 -45 13 -64q16 -22 75 -30l-8 -69q-116 4 -150 53q-19 30 -19 100v525q-17 1 -66 1q-93 -1 -126 -38q-23 -25 -23 -83v-53h128v-81h-128v-418z" />
    <glyph glyph-name="f_f_i" unicode="ffi" horiz-adv-x="907" 
d="M198 0h-90v418h-81v76l81 5v48q0 93 46 134q27 24 73 35t125 15l4 -73q-68 -7 -97.5 -15.5t-43.5 -26.5q-17 -24 -17 -72v-45h240v66q0 95 45 135q28 25 71.5 36t120.5 14l5 -73q-62 -6 -91 -15t-44 -27q-18 -23 -18 -74v-62h301v-499h-90v418h-211v-418h-89v418h-240
v-418zM837 661q0 -57 -55 -57q-54 0 -54 56q0 58 54 58q55 0 55 -57z" />
    <glyph glyph-name="f_f_l" unicode="ffl" horiz-adv-x="933" 
d="M198 0h-90v418h-81v76l81 5v48q0 93 46 134q27 24 73 35t125 15l4 -73q-68 -7 -97.5 -15.5t-43.5 -26.5q-17 -24 -17 -72v-45h240v58q0 94 51 141q57 52 219 52q65 0 124 -9v-584q0 -46 13 -64q15 -22 75 -30l-8 -69q-116 4 -150 53q-20 29 -20 100v525h-66
q-92 -1 -126 -37q-23 -25 -23 -83v-53h128v-81h-128v-418h-89v418h-240v-418z" />
    <glyph glyph-name="T_h" unicode="Th" horiz-adv-x="1132" 
d="M339 0h-94v622h-215v84h605v45h90v-273q70 35 174 35q69 0 100.5 -15t42.5 -47q10 -27 10 -99v-352h-90v334q0 45 -6 63q-6 20 -24.5 28.5t-59.5 8.5q-78 0 -147 -21v-413h-90v622h-296v-622z" />
    <glyph glyph-name="Tcaron_h" unicode="&#x164;h" horiz-adv-x="1129" 
d="M339 0h-94v622h-215v84h605v45h90v-273q70 35 174 35q69 0 100.5 -15t42.5 -47q10 -27 10 -99v-352h-90v334q0 45 -6 63q-6 20 -24.5 28.5t-59.5 8.5q-78 0 -147 -21v-413h-90v622h-296v-622zM390 912l81 -7l-145 -149h-77l-141 149l81 6l101 -80z" />
    <glyph glyph-name="f_b" unicode="fb" horiz-adv-x="895" 
d="M198 0h-90v418h-81v76l81 5v58q0 94 52 141q57 52 218 52q73 0 124 -9v-258q74 30 166 30t135 -60.5t43 -196.5q0 -82 -14.5 -135t-46.5 -82.5t-74 -40.5t-106 -11q-118 0 -192 35v650q-39 2 -72 0q-90 -3 -121 -37q-22 -26 -22 -83v-53h128v-81h-128v-418zM502 79
q45 -15 101 -15q92 0 122 39t30 146q0 101 -24.5 143t-98.5 42q-68 0 -130 -24v-331z" />
    <glyph glyph-name="f_f_b" unicode="ffb" horiz-adv-x="1225" 
d="M198 0h-90v418h-81v76l81 5v48q0 93 46 134q27 24 73 35t125 15l4 -73q-68 -7 -97.5 -15.5t-43.5 -26.5q-17 -24 -17 -72v-45h240v58q0 94 51 141q57 52 219 52q72 0 124 -9v-258q74 30 165 30q93 0 135.5 -60.5t42.5 -196.5q0 -82 -14.5 -135t-46.5 -82.5t-74 -40.5
t-106 -11q-118 0 -192 35v650q-38 2 -72 0q-89 -3 -120 -37q-23 -25 -23 -83v-53h128v-81h-128v-418h-89v418h-240v-418zM832 79q45 -15 101 -15q92 0 122 39.5t30 145.5q0 101 -25 143t-99 42q-67 0 -129 -24v-331z" />
    <glyph glyph-name="f_f_h" unicode="ffh" horiz-adv-x="1239" 
d="M198 0h-90v418h-81v76l81 5v48q0 93 46 134q27 24 73 35t125 15l4 -73q-68 -7 -97.5 -15.5t-43.5 -26.5q-17 -24 -17 -72v-45h240v58q0 94 51 141q57 52 219 52q65 0 124 -9v-263q70 35 173 35q70 0 101.5 -15t42.5 -47q10 -27 10 -99v-352h-90v334q0 45 -6 63
q-7 20 -25 28.5t-60 8.5q-79 0 -146 -21v-413h-90v672q-38 2 -72 0q-89 -3 -120 -37q-23 -25 -23 -83v-53h128v-81h-128v-418h-89v418h-240v-418z" />
    <glyph glyph-name="f_f_j" unicode="ffj" horiz-adv-x="908" 
d="M198 0h-90v418h-81v76l81 5v48q0 93 46 134q27 24 73 35t125 15l4 -73q-68 -7 -97.5 -15.5t-43.5 -26.5q-17 -24 -17 -72v-45h240v66q0 95 45 135q28 25 71.5 36t121.5 14l4 -73q-62 -6 -91 -15t-44 -27q-18 -23 -18 -74v-62h301v-530q0 -99 -43 -139q-45 -42 -169 -64
l-13 73q82 21 107 41q29 24 29 91v447h-212v-418h-89v418h-240v-418zM837 661q0 -57 -54 -57t-54 56q0 58 54 58t54 -57z" />
    <glyph glyph-name="f_f_k" unicode="ffk" horiz-adv-x="1185" 
d="M198 0h-90v418h-81v76l81 5v48q0 93 46 134q27 24 73 35t125 15l4 -73q-68 -7 -97.5 -15.5t-43.5 -26.5q-17 -24 -17 -72v-45h240v58q0 94 51 141q57 52 219 52q64 0 123 -9v-426h81l148 186l95 -5l-176 -214l200 -279l-104 -5l-171 240h-73v-238h-89v672q-25 1 -72 1
q-87 -1 -120 -38q-23 -25 -23 -83v-53h128v-81h-128v-418h-89v418h-240v-418z" />
    <glyph glyph-name="f_h" unicode="fh" horiz-adv-x="909" 
d="M198 0h-90v418h-81v76l81 5v58q0 94 52 141q57 52 219 52q64 0 123 -9v-263q70 35 174 35q70 0 101 -15t43 -47q9 -24 9 -99v-352h-89v334q0 46 -7 63q-6 20 -24 28.5t-60 8.5q-78 0 -147 -21v-413h-89v672q-39 2 -72 0q-90 -3 -121 -37q-22 -26 -22 -83v-53h128v-81
h-128v-418z" />
    <glyph glyph-name="f_j" unicode="fj" horiz-adv-x="579" 
d="M198 0h-90v418h-81v76l81 5v66q0 94 46 135q28 25 71.5 36t120.5 14l4 -72q-62 -7 -91 -15.5t-43 -26.5q-18 -23 -18 -75v-62h300v-530q0 -99 -43 -139q-45 -42 -169 -64l-13 73q82 21 107 41q29 24 29 91v447h-211v-418zM508 661q0 -57 -54 -57t-54 56q0 58 54 58
t54 -57z" />
    <glyph glyph-name="f_k" unicode="fk" horiz-adv-x="855" 
d="M198 0h-90v418h-81v76l81 5v58q0 94 52 141q57 52 219 52q64 0 123 -9v-426h81l147 186l96 -5l-176 -214l199 -279l-103 -5l-171 240h-73v-238h-90v672q-38 2 -71 0q-90 -3 -121 -37q-22 -26 -22 -83v-53h128v-81h-128v-418z" />
    <glyph glyph-name="uni0162_h" unicode="&#x162;h" horiz-adv-x="1129" 
d="M204 -248l12 59q24 -4 62 -4q53 0 53 38q0 21 -11.5 30t-42.5 9q-27 0 -39 -1l24 117h-17v622h-215v84h605v45h90v-273q70 35 174 35q69 0 100.5 -15t42.5 -47q10 -27 10 -99v-352h-90v334q0 45 -6 63q-6 20 -24.5 28.5t-59.5 8.5q-78 0 -147 -21v-413h-90v622h-296v-622
h-18l-10 -58q60 -3 80.5 -27.5t20.5 -67.5q0 -103 -137 -103q-42 0 -71 8z" />
    <glyph glyph-name="uni021A_h" unicode="&#x21a;h" horiz-adv-x="1129" 
d="M339 0h-94v622h-215v84h605v45h90v-273q70 35 174 35q69 0 100.5 -15t42.5 -47q10 -27 10 -99v-352h-90v334q0 45 -6 63q-6 20 -24.5 28.5t-59.5 8.5q-78 0 -147 -21v-413h-90v622h-296v-622zM235 -287l-49 31q65 78 65 196h88q0 -140 -104 -227z" />
    <glyph glyph-name=".notdef" horiz-adv-x="501" 
d="M0 0v707h501v-707h-501zM251 399l170 257h-341zM280 354l172 -257v514zM80 50h341l-170 258zM50 611v-514l171 257z" />
    <glyph glyph-name=".null" horiz-adv-x="0" 
 />
    <glyph glyph-name="nonmarkingreturn" horiz-adv-x="333" 
 />
    <glyph glyph-name="space" unicode=" " horiz-adv-x="223" 
 />
    <glyph glyph-name="exclam" unicode="!" horiz-adv-x="288" 
d="M203 224h-78q-11 407 -11 482h101q0 -34 -12 -482zM227 56q0 -66 -66 -66q-26 0 -45 15t-19 50t18.5 51t47.5 16q64 0 64 -66z" />
    <glyph glyph-name="quotedbl" unicode="&#x22;" horiz-adv-x="356" 
d="M132 441h-64q-11 170 -11 275h86q0 -101 -11 -275zM298 441h-63q-11 153 -11 275h85q0 -119 -11 -275z" />
    <glyph glyph-name="numbersign" unicode="#" horiz-adv-x="596" 
d="M168 -15l-56 2l32 220h-102v81h114l17 110h-109v80h121l31 212l57 -2l-32 -210h151l31 212l58 -2l-32 -210h104v-80h-116l-16 -110h110v-81h-122l-33 -222l-56 2l32 220h-151zM229 398l-16 -110h151l16 110h-151z" />
    <glyph glyph-name="dollar" unicode="$" horiz-adv-x="553" 
d="M321 -104h-75v98q-107 3 -186 33l19 73q87 -27 186 -27q46 0 76.5 9.5t43.5 27.5t17.5 34t4.5 38q0 40 -22 63.5t-93 40.5l-85 21q-139 34 -139 178q0 169 178 188v103h75v-101q94 -4 154 -21l-12 -74q-83 18 -167 18q-77 0 -106 -27t-29 -78q0 -42 20 -66.5t84 -40.5
l71 -18q87 -22 125.5 -61t38.5 -116q0 -174 -179 -194v-101z" />
    <glyph glyph-name="percent" unicode="%" horiz-adv-x="854" 
d="M347 474q0 -126 -35 -172t-121 -46q-83 0 -118 45t-35 169t40 169t118 45q57 0 87.5 -15.5t47 -61.5t16.5 -133zM279 473q0 93 -17.5 123t-67.5 30q-47 0 -67.5 -32t-20.5 -124q0 -95 19 -126t66 -31q49 0 68.5 31t19.5 129zM276 -33l-51 5l357 740l51 -5zM817 210
q0 -126 -35.5 -172t-120.5 -46q-83 0 -118 45t-35 169t40 169t118 45q57 0 87.5 -15.5t47 -61.5t16.5 -133zM749 209q0 93 -17.5 123t-67.5 30q-47 0 -67.5 -32t-20.5 -124q0 -95 19 -126t66 -31q49 0 68.5 31t19.5 129z" />
    <glyph glyph-name="ampersand" unicode="&#x26;" horiz-adv-x="725" 
d="M539 65q-71 -78 -219 -78q-256 0 -256 204q0 76 37 121t121 77q-75 76 -75 159q0 75 45.5 121t147.5 46q61 0 125 -16l-14 -74q-66 10 -110 10q-60 0 -82.5 -23t-22.5 -62q0 -32 17.5 -62.5t60.5 -76.5q61 -66 219 -217q24 50 24 116q0 41 -5 66l81 7q6 -31 6 -73
q0 -108 -43 -180q15 -16 59.5 -57t54.5 -51l-81 -39q-61 53 -90 82zM482 123q-134 127 -211 210q-58 -21 -85.5 -52.5t-27.5 -83.5q0 -131 167 -131q114 0 157 57z" />
    <glyph glyph-name="quotesingle" unicode="'" horiz-adv-x="195" 
d="M132 441h-64q-11 170 -11 275h86q0 -101 -11 -275z" />
    <glyph glyph-name="parenleft" unicode="(" horiz-adv-x="322" 
d="M140 312q0 -78 11.5 -142t26.5 -104.5t42.5 -79t47 -58t52.5 -48.5l-28 -39q-43 22 -80.5 55t-74 87t-58 138.5t-21.5 189.5q0 332 231 462l29 -39q-39 -30 -68.5 -63.5t-55.5 -83t-40 -119t-14 -156.5z" />
    <glyph glyph-name="parenright" unicode=")" horiz-adv-x="322" 
d="M182 302q0 78 -11.5 142t-27 105t-42.5 79.5t-47 58t-53 47.5l28 39q44 -22 81 -55t74 -87t58 -138.5t21 -189.5q0 -331 -231 -462l-29 38q84 64 131.5 160.5t47.5 262.5z" />
    <glyph glyph-name="asterisk" unicode="*" horiz-adv-x="411" 
d="M203 462q-49 -76 -83 -120l-52 36q42 56 94 118q-75 19 -142 40l21 62q136 -48 138 -49q-6 88 -6 147h63q0 -85 -4 -148q87 35 140 50l18 -61q-87 -27 -144 -42q87 -107 94 -117l-51 -37q-59 78 -86 121z" />
    <glyph glyph-name="plus" unicode="+" horiz-adv-x="700" 
d="M386 34h-72v226h-224v70h224v224h72v-224h224v-70h-224v-226z" />
    <glyph glyph-name="comma" unicode="," horiz-adv-x="230" 
d="M62 -176l-58 38q38 53 60.5 112.5t23.5 147.5h98q0 -176 -124 -298z" />
    <glyph glyph-name="hyphen" unicode="-" horiz-adv-x="310" 
d="M275 227h-240v81h240v-81z" />
    <glyph glyph-name="period" unicode="." horiz-adv-x="231" 
d="M180 56q0 -66 -66 -66q-26 0 -45 15t-19 50t18.5 51t47.5 16q64 0 64 -66z" />
    <glyph glyph-name="slash" unicode="/" horiz-adv-x="389" 
d="M69 -103l-68 8l306 848l70 -6z" />
    <glyph glyph-name="zero" unicode="0" horiz-adv-x="565" 
d="M523 344q0 -142 -26 -220t-76.5 -107.5t-140.5 -29.5q-86 0 -135.5 28.5t-76 106t-26.5 215.5q0 107 17.5 178t52.5 108t76.5 51t100.5 14q66 0 107 -13t71.5 -50t43 -104.5t12.5 -176.5zM430 343q0 110 -14.5 167t-44 77.5t-86.5 20.5q-53 0 -84 -20.5t-48.5 -81
t-17.5 -168.5q0 -113 17 -173t46 -79t83 -19q56 0 86 19t46.5 79.5t16.5 177.5z" />
    <glyph glyph-name="one" unicode="1" horiz-adv-x="565" 
d="M475 0h-330v83h122v493l-126 -44l-26 77l164 67h79v-593h117v-83z" />
    <glyph glyph-name="two" unicode="2" horiz-adv-x="565" 
d="M490 0h-456v68q171 147 272 250q79 79 79 158q0 64 -32.5 97.5t-112.5 33.5q-79 0 -160 -25l-12 71q88 35 193 35q122 0 169 -52.5t47 -146.5q0 -110 -84 -197q-109 -111 -233 -210q59 1 330 1v-83z" />
    <glyph glyph-name="three" unicode="3" horiz-adv-x="565" 
d="M345 358q138 -13 138 -166q0 -104 -57.5 -154.5t-186.5 -50.5q-113 0 -178 25l14 74q77 -18 161 -18q94 0 124.5 33.5t30.5 89.5q0 63 -35 91.5t-123 28.5h-62v81h63q77 0 108 28t31 78q0 60 -29.5 84.5t-107.5 24.5q-65 0 -145 -21l-13 70q26 12 79.5 22t95.5 10
q124 0 168 -43t44 -141q0 -56 -31.5 -94t-88.5 -52z" />
    <glyph glyph-name="four" unicode="4" horiz-adv-x="565" 
d="M355 170h-312v75l217 433l94 -3q-125 -249 -214 -422h215v176h89v-176h105v-83h-105v-170h-89v170z" />
    <glyph glyph-name="five" unicode="5" horiz-adv-x="565" 
d="M174 403q67 13 114 13q114 0 162 -44.5t48 -161.5q0 -113 -59.5 -168t-188.5 -55q-111 0 -184 25l15 74q81 -19 167 -19q83 0 120 34.5t37 105.5q0 76 -36 102t-112 26q-89 0 -168 -18l19 359h349v-82h-274z" />
    <glyph glyph-name="six" unicode="6" horiz-adv-x="565" 
d="M147 366q21 26 66.5 43t105.5 17q105 0 152.5 -50t47.5 -164q0 -225 -230 -225q-117 0 -175 71.5t-58 242.5q0 97 11.5 163.5t41.5 119.5t86.5 78.5t142.5 25.5q82 0 134 -14l-10 -75q-60 10 -119 10q-48 0 -82 -10.5t-54.5 -27.5t-33 -49.5t-17.5 -66.5t-9 -89zM148 252
q0 -35 6 -66q19 -120 139 -120q72 0 105.5 35t33.5 112q0 67 -30 101t-98 34q-111 0 -146 -54q-10 -16 -10 -42z" />
    <glyph glyph-name="seven" unicode="7" horiz-adv-x="565" 
d="M405 595q-66 -1 -357 -1v82h457v-69l-242 -609l-102 3z" />
    <glyph glyph-name="eight" unicode="8" horiz-adv-x="565" 
d="M385 356q131 -22 131 -169q0 -102 -56.5 -151t-177.5 -49q-122 0 -177.5 47t-55.5 149q0 139 131 172q-110 29 -110 156q0 91 54 134t164 43q111 0 161 -41t50 -134q0 -125 -114 -157zM424 190q0 122 -141 122q-142 0 -142 -122q0 -71 36.5 -98t104.5 -27t105 28.5
t37 96.5zM408 502q0 55 -28 81t-97 26t-96 -27.5t-27 -82.5q0 -57 34 -83t89 -26q50 0 87.5 26.5t37.5 85.5z" />
    <glyph glyph-name="nine" unicode="9" horiz-adv-x="565" 
d="M419 305q-50 -53 -171 -53q-105 0 -152.5 49t-47.5 163q0 224 236 224q117 0 171 -69.5t54 -244.5q0 -98 -11 -163.5t-40.5 -119.5t-86 -79.5t-143.5 -25.5q-96 0 -151 19l13 75q76 -14 136 -14q49 0 83.5 12t54 30t31.5 51.5t16.5 64.5t7.5 81zM417 422q0 47 -6 77
q-19 110 -133 110q-72 0 -107 -35t-35 -111q0 -67 30 -100t98 -33q55 0 94 15t50 33q9 18 9 44z" />
    <glyph glyph-name="colon" unicode=":" horiz-adv-x="250" 
d="M200 56q0 -66 -66 -66q-26 0 -45 15t-19 50t18.5 51t47.5 16q64 0 64 -66zM200 434q0 -66 -66 -66q-26 0 -45 15t-19 50t18.5 51t47.5 16q64 0 64 -66z" />
    <glyph glyph-name="semicolon" unicode=";" horiz-adv-x="250" 
d="M201 434q0 -66 -67 -66q-63 0 -63 65q0 35 18.5 51t47.5 16q64 0 64 -66zM73 -176l-57 38q38 53 60.5 112.5t23.5 147.5h98q-1 -178 -125 -298z" />
    <glyph glyph-name="less" unicode="&#x3c;" horiz-adv-x="700" 
d="M566 39l-453 218v73l453 222v-82l-374 -175l374 -172v-84z" />
    <glyph glyph-name="equal" unicode="=" horiz-adv-x="700" 
d="M610 161h-520v70h520v-70zM610 355h-520v71h520v-71z" />
    <glyph glyph-name="greater" unicode="&#x3e;" horiz-adv-x="700" 
d="M134 552l453 -218v-73l-453 -222v82l375 176l-375 171v84z" />
    <glyph glyph-name="question" unicode="?" horiz-adv-x="421" 
d="M216 224h-71q-2 40 -2 65q0 45 13 70.5t54 53.5q48 33 66.5 63t18.5 72q0 45 -24.5 68t-85.5 23t-131 -12l-12 70q67 23 160 23q104 0 146 -40.5t42 -117.5q0 -61 -20 -97t-81 -77q-39 -27 -52 -45.5t-17 -54.5q-2 -14 -4 -64zM250 56q0 -66 -66 -66q-64 0 -64 65
q0 67 66 67q64 0 64 -66z" />
    <glyph glyph-name="at" unicode="@" horiz-adv-x="806" 
d="M478 110q-45 -53 -128 -53q-131 0 -131 127q0 67 27.5 135.5t74.5 109.5q53 46 144 46q57 0 137 -27l-58 -270q-5 -23 -5 -40q0 -24 22 -24q20 0 43 14q47 31 74 96.5t27 136.5q0 241 -253 241q-149 0 -245.5 -106t-96.5 -271q0 -141 76.5 -218.5t223.5 -77.5
q126 0 245 46l17 -45q-111 -54 -265 -54q-168 0 -261.5 89.5t-93.5 259.5q0 185 112 304.5t290 119.5q147 0 227 -71t80 -214q0 -122 -63.5 -213t-155.5 -91q-61 0 -64 50zM484 185l51 226q-29 13 -75 13q-64 0 -102 -35q-34 -31 -54 -85.5t-20 -107.5q0 -45 20.5 -65
t63.5 -20q52 0 91 30q7 5 16 17q5 8 9 27z" />
    <glyph glyph-name="A" unicode="A" horiz-adv-x="616" 
d="M176 210l-74 -212l-97 4l247 704h115l245 -704l-102 -4l-71 212h-263zM201 292h215q-84 248 -106 325q-18 -59 -109 -325z" />
    <glyph glyph-name="B" unicode="B" horiz-adv-x="641" 
d="M97 3v700q84 5 201 5q59 0 111 -8q81 -10 117.5 -50.5t36.5 -118.5q0 -129 -105 -161q127 -26 127 -165t-102 -180q-68 -27 -185 -27q-114 0 -201 5zM190 327v-245q60 -3 119 -3q82 0 120 17q61 27 61 116q0 73 -64 101q-32 14 -110 14h-126zM190 405h130q70 0 95 11
q54 25 54 100q0 48 -18 70t-50 33q-27 10 -93 10q-76 0 -118 -2v-222z" />
    <glyph glyph-name="C" unicode="C" horiz-adv-x="594" 
d="M153 357q0 -56 4.5 -96.5t17 -78.5t34 -61t57.5 -37t85 -14q93 0 187 15l10 -74q-93 -24 -214 -24q-92 0 -151 31.5t-92.5 111t-33.5 212.5q0 202 65.5 289.5t232.5 87.5q88 0 180 -15l-9 -78q-110 12 -167 12q-65 0 -107 -19t-63 -59t-28.5 -86.5t-7.5 -116.5z" />
    <glyph glyph-name="D" unicode="D" horiz-adv-x="701" 
d="M97 4v698q116 6 181 6q120 0 188 -20q178 -51 178 -327q0 -133 -40.5 -216t-140.5 -121q-70 -26 -195 -26q-96 0 -171 6zM191 621v-536q33 -3 99 -3q94 0 143 23q64 29 89 92.5t25 163.5q0 94 -24.5 154t-83.5 87q-47 22 -151 22q-54 0 -97 -3z" />
    <glyph glyph-name="E" unicode="E" horiz-adv-x="559" 
d="M525 0h-428v706h412v-84h-319v-213h291v-84h-291v-241h335v-84z" />
    <glyph glyph-name="F" unicode="F" horiz-adv-x="534" 
d="M190 0h-93v706h398v-84h-305v-237h262v-84h-262v-301z" />
    <glyph glyph-name="G" unicode="G" horiz-adv-x="665" 
d="M602 27q-98 -40 -259 -40q-147 0 -216.5 79t-69.5 276q0 201 69.5 289t240.5 88q113 0 200 -23l-11 -77q-93 19 -192 19q-64 0 -107 -20t-65 -60t-30.5 -87t-8.5 -114q0 -54 4 -93.5t16.5 -78.5t33.5 -63t57.5 -39t86.5 -15q94 0 159 18v207h-160v83h252v-349z" />
    <glyph glyph-name="H" unicode="H" horiz-adv-x="711" 
d="M190 0h-93v706h93v-297h331v297h93v-706h-93v325h-331v-325z" />
    <glyph glyph-name="I" unicode="I" horiz-adv-x="287" 
d="M190 0h-93v706h93v-706z" />
    <glyph glyph-name="J" unicode="J" horiz-adv-x="316" 
d="M220 59q0 -98 -46 -142q-63 -58 -173 -69l-11 74q65 15 103 42q33 23 33 94v648h94v-647z" />
    <glyph glyph-name="K" unicode="K" horiz-adv-x="622" 
d="M190 0h-93v706h93v-298h106l206 300l100 -5l-234 -334l250 -366l-104 -5l-225 327h-99v-325z" />
    <glyph glyph-name="L" unicode="L" horiz-adv-x="550" 
d="M525 0h-428v706h93v-622h335v-84z" />
    <glyph glyph-name="M" unicode="M" horiz-adv-x="836" 
d="M189 0h-92v706h132q165 -370 191 -441q31 84 188 441h131v-706h-92q0 493 3 605q-32 -89 -198 -467h-68q-28 64 -198 466q3 -117 3 -604z" />
    <glyph glyph-name="N" unicode="N" horiz-adv-x="723" 
d="M188 0h-91v706h128q282 -499 313 -572q-2 82 -2 572h90v-706h-115q-279 502 -325 594q2 -170 2 -594z" />
    <glyph glyph-name="O" unicode="O" horiz-adv-x="696" 
d="M639 358q0 -145 -33 -227t-95 -113t-167 -31q-76 0 -127 16.5t-88.5 58t-54.5 114t-17 181.5t21.5 182.5t63.5 111.5t91.5 53t118.5 15q62 0 104.5 -8t79.5 -30.5t58 -62.5t33 -104t12 -156zM542 356q0 90 -10 145.5t-34.5 85.5t-58.5 40.5t-90 10.5q-51 0 -84.5 -11.5
t-60 -41.5t-39 -86t-12.5 -142q0 -91 12 -149t38 -88t59 -41t84 -11t83.5 10t60 39.5t40 88t12.5 150.5z" />
    <glyph glyph-name="P" unicode="P" horiz-adv-x="625" 
d="M190 0h-93v703q98 5 184 5q123 0 185 -26q102 -40 102 -181q0 -156 -133 -192q-58 -17 -152 -17q-67 0 -93 1v-293zM190 624v-253q35 -1 95 -1q83 0 125 17q62 24 62 109q0 90 -62 115q-37 16 -120 16q-52 0 -100 -3z" />
    <glyph glyph-name="Q" unicode="Q" horiz-adv-x="696" 
d="M639 358q0 -243 -98 -320l151 -100l-47 -72l-198 131q-43 -10 -103 -10q-76 0 -127 16.5t-88.5 58t-54.5 114t-17 181.5t21.5 182.5t63.5 111.5t91.5 53t118.5 15q62 0 104.5 -8t79.5 -30.5t58 -62.5t33 -104t12 -156zM542 356q0 90 -10 145.5t-34.5 85.5t-58.5 40.5
t-90 10.5q-51 0 -84.5 -11.5t-60 -41.5t-39 -86t-12.5 -142q0 -91 12 -149t38 -88t59 -41t84 -11t83.5 10t60 39.5t40 88t12.5 150.5z" />
    <glyph glyph-name="R" unicode="R" horiz-adv-x="624" 
d="M190 0h-93v703q67 5 184 5q124 0 185 -24q102 -40 102 -178q0 -153 -130 -192l169 -313l-102 -2l-157 300q-19 -2 -61 -2h-97v-297zM190 375h101q77 0 119 16q62 24 62 110q0 49 -15 74t-45 37q-37 15 -119 15q-60 0 -103 -2v-250z" />
    <glyph glyph-name="S" unicode="S" horiz-adv-x="569" 
d="M351 383q93 -27 130 -66.5t37 -120.5q0 -102 -58 -155.5t-193 -53.5q-123 0 -218 35l17 77q101 -30 203 -30q50 0 82.5 10.5t47 29.5t19 36t4.5 41q0 42 -23 68t-100 47l-94 26q-75 21 -111.5 66t-36.5 121q0 100 58 152.5t188 52.5q105 0 184 -22l-12 -78
q-90 18 -176 18t-116 -29t-30 -85q0 -41 20.5 -67t86.5 -46z" />
    <glyph glyph-name="T" unicode="T" horiz-adv-x="585" 
d="M339 0h-94v622h-215v84h526v-84h-217v-622z" />
    <glyph glyph-name="U" unicode="U" horiz-adv-x="694" 
d="M604 706v-424q0 -82 -5.5 -125.5t-23.5 -74.5q-55 -96 -233 -96q-181 0 -230 106q-22 48 -22 188v426h93v-454q0 -95 22 -129q35 -55 142 -55q113 0 144 52q23 38 23 129v457h90z" />
    <glyph glyph-name="V" unicode="V" horiz-adv-x="617" 
d="M308 88q41 131 207 619l97 -2l-245 -705h-122l-240 705l100 2q168 -502 203 -619z" />
    <glyph glyph-name="W" unicode="W" horiz-adv-x="926" 
d="M465 575q-55 -214 -162 -575h-121l-165 703l99 5q117 -515 137 -629q30 132 158 588h112q132 -478 155 -589q68 328 137 630l94 -5l-165 -703h-121q-93 330 -158 575z" />
    <glyph glyph-name="X" unicode="X" horiz-adv-x="655" 
d="M118 -2l-104 5l250 363l-234 337l111 5q33 -47 188 -275q106 157 190 275l102 -5l-233 -340l249 -360l-110 -5q-158 226 -205 299q-101 -150 -204 -299z" />
    <glyph glyph-name="Y" unicode="Y" horiz-adv-x="594" 
d="M344 0h-94v303l-244 400l108 5q138 -226 186 -313q47 84 187 313l101 -5l-244 -398v-305z" />
    <glyph glyph-name="Z" unicode="Z" horiz-adv-x="605" 
d="M575 0h-549v81q347 453 418 541h-386v84h497v-82q-300 -394 -415 -540h435v-84z" />
    <glyph glyph-name="bracketleft" unicode="[" horiz-adv-x="293" 
d="M156 -88h114v-53h-190v895h190v-53h-114v-789z" />
    <glyph glyph-name="backslash" unicode="\" horiz-adv-x="389" 
d="M385 -97l-69 -6l-307 848l69 8z" />
    <glyph glyph-name="bracketright" unicode="]" horiz-adv-x="293" 
d="M137 700h-114v54h190v-895h-190v53h114v788z" />
    <glyph glyph-name="asciicircum" unicode="^" horiz-adv-x="712" 
d="M587 281h-82l-150 314l-148 -314h-82l190 395h83z" />
    <glyph glyph-name="underscore" unicode="_" horiz-adv-x="493" 
d="M0 -77h493v-46h-493v46z" />
    <glyph glyph-name="grave" unicode="`" horiz-adv-x="197" 
d="M219 581l-80 -5l-163 177l114 6z" />
    <glyph glyph-name="a" unicode="a" horiz-adv-x="527" 
d="M446 23q-80 -36 -218 -36q-102 0 -141.5 43.5t-39.5 116.5q0 85 58 121q46 28 150 28q65 0 103 -3v40q0 40 -7 59q-15 42 -111 42q-80 0 -140 -8l-7 71q82 16 172 16q111 0 148 -40q33 -36 33 -132v-318zM358 74v152q-44 2 -92 2q-79 0 -108 -21q-24 -19 -24 -59
q0 -43 22.5 -66t82.5 -23q70 0 119 15z" />
    <glyph glyph-name="b" unicode="b" horiz-adv-x="564" 
d="M80 22v726h90v-265q74 30 165 30q93 0 135.5 -60.5t42.5 -196.5q0 -82 -14.5 -135t-46.5 -82.5t-74 -40.5t-106 -11q-118 0 -192 35zM170 79q45 -15 101 -15q92 0 122 39.5t30 145.5q0 101 -25 143t-99 42q-67 0 -129 -24v-331z" />
    <glyph glyph-name="c" unicode="c" horiz-adv-x="450" 
d="M418 8q-73 -21 -154 -21q-108 0 -160.5 57.5t-52.5 197.5q0 144 50 207.5t176 63.5q61 0 130 -16l-9 -72q-61 9 -121 9q-45 0 -73 -13t-41 -41t-17 -56t-4 -73q0 -95 28 -139.5t108 -44.5q61 0 129 13z" />
    <glyph glyph-name="d" unicode="d" horiz-adv-x="565" 
d="M485 23q-86 -36 -215 -36q-117 0 -168 56t-51 196q0 156 56.5 215t182.5 59q56 0 106 -14v249h89v-725zM396 77v345q-50 13 -101 13q-90 0 -121.5 -42.5t-31.5 -150.5q0 -95 28.5 -137t101.5 -42t124 14z" />
    <glyph glyph-name="e" unicode="e" horiz-adv-x="518" 
d="M141 226q1 -96 39 -128t120 -32q61 0 145 18l12 -71q-71 -26 -174 -26q-127 0 -180.5 61.5t-53.5 199.5q0 140 56.5 202.5t174.5 62.5q109 0 150 -55t41 -174q0 -40 -3 -58h-327zM142 297h245v14q0 66 -23.5 96.5t-88.5 30.5q-74 0 -102 -36.5t-31 -104.5z" />
    <glyph glyph-name="f" unicode="f" horiz-adv-x="329" 
d="M198 0h-90v417h-81v77l81 5v66q0 94 46 135q27 25 72.5 36t124.5 14l5 -73q-68 -6 -97.5 -14.5t-43.5 -27.5q-17 -22 -17 -74v-62h126v-82h-126v-417z" />
    <glyph glyph-name="g" unicode="g" horiz-adv-x="563" 
d="M392 14q-54 -20 -133 -20q-110 0 -159 53t-49 192q0 155 55 214t184 59q119 0 192 -33v-451q0 -86 -15 -128q-24 -69 -113 -99q-85 -29 -224 -35l-4 76q123 13 176.5 28.5t72.5 43.5q17 25 17 78v22zM392 89v332q-34 12 -104 12q-89 0 -117.5 -41.5t-28.5 -148.5
q0 -92 26.5 -131.5t98.5 -39.5q69 0 125 17z" />
    <glyph glyph-name="h" unicode="h" horiz-adv-x="577" 
d="M170 0h-90v748h90v-270q70 35 174 35q69 0 100.5 -15t42.5 -47q10 -27 10 -99v-352h-90v334q0 45 -6 63q-6 20 -24.5 28.5t-60.5 8.5q-79 0 -146 -21v-413z" />
    <glyph glyph-name="i" unicode="i" horiz-adv-x="250" 
d="M170 0h-90v499h90v-499zM179 661q0 -57 -55 -57t-55 56q0 58 55 58t55 -57z" />
    <glyph glyph-name="j" unicode="j" horiz-adv-x="250" 
d="M170 499v-531q0 -97 -44 -138q-45 -42 -169 -64l-13 73q82 21 107 41q29 24 29 91v528h90zM179 661q0 -57 -54 -57t-54 56q0 58 54 58t54 -57z" />
    <glyph glyph-name="k" unicode="k" horiz-adv-x="523" 
d="M170 0h-90v747h90v-432h80l148 186l96 -5l-176 -214l199 -279l-104 -5l-171 240h-72v-238z" />
    <glyph glyph-name="l" unicode="l" horiz-adv-x="271" 
d="M250 -6q-116 4 -150 53q-20 29 -20 100v601h90v-591q0 -47 13 -64q15 -20 75 -29z" />
    <glyph glyph-name="m" unicode="m" horiz-adv-x="879" 
d="M170 0h-90v466q113 47 251 47q94 0 122 -39q88 39 199 39q65 0 95 -15t42 -47q9 -24 9 -98v-353h-89v336q0 44 -6 62q-7 19 -24.5 27.5t-56.5 8.5q-73 0 -142 -23q5 -16 5 -69v-342h-90v336q0 44 -6 62q-7 20 -24 28t-56 8q-74 0 -139 -21v-413z" />
    <glyph glyph-name="n" unicode="n" horiz-adv-x="577" 
d="M170 0h-90v466q108 47 258 47q71 0 104 -15t45 -47q10 -27 10 -98v-353h-90v336q0 44 -6 62q-12 36 -85 36q-80 0 -146 -21v-413z" />
    <glyph glyph-name="o" unicode="o" horiz-adv-x="550" 
d="M499 254q0 -153 -52 -210t-175 -57q-80 0 -126 21.5t-70.5 79.5t-24.5 163q0 79 16 132t48.5 80.5t71 38.5t92.5 11q61 0 98.5 -9t67 -36t42 -79t12.5 -135zM409 249q0 114 -27.5 149.5t-104.5 35.5q-71 0 -103 -37.5t-32 -143.5q0 -79 14.5 -120t41 -54.5t76.5 -13.5
q37 0 59.5 6t41 25t26.5 56t8 97z" />
    <glyph glyph-name="p" unicode="p" horiz-adv-x="565" 
d="M170 -234h-90v700q48 21 113.5 34t117.5 13q107 0 155 -56.5t48 -196.5q0 -109 -27 -169t-76 -81.5t-134 -21.5q-55 0 -107 16v-238zM170 79q52 -15 100 -15q92 0 122.5 40t30.5 152q0 97 -25.5 137.5t-95.5 40.5q-66 0 -132 -22v-333z" />
    <glyph glyph-name="q" unicode="q" horiz-adv-x="564" 
d="M393 13q-70 -22 -152 -22q-100 0 -145 57t-45 191q0 157 56 215t184 58q122 0 192 -32v-714h-90v247zM393 86v337q-42 12 -106 12q-88 0 -117 -41.5t-29 -146.5q0 -98 26 -138t99 -40q61 0 127 17z" />
    <glyph glyph-name="r" unicode="r" horiz-adv-x="371" 
d="M170 0h-90v466q90 45 204 45q50 0 69 -4l-6 -79q-34 2 -56 2q-77 0 -121 -18v-412z" />
    <glyph glyph-name="s" unicode="s" horiz-adv-x="438" 
d="M46 11l15 72q74 -19 153 -19q63 0 84.5 20.5t21.5 52.5q0 25 -14 39t-64 28l-77 22q-58 16 -86 48.5t-28 88.5q0 150 186 150q83 0 145 -16l-10 -71q-67 10 -135 10q-59 0 -78 -18t-19 -51q0 -26 12.5 -39.5t54.5 -25.5l77 -22q66 -19 94.5 -49.5t28.5 -92.5
q0 -151 -194 -151q-99 0 -167 24z" />
    <glyph glyph-name="t" unicode="t" horiz-adv-x="341" 
d="M319 -8q-81 2 -120.5 12.5t-61.5 37.5q-19 24 -25.5 55.5t-6.5 90.5v229h-80v77l82 5q0 60 3 136h85v-136h128v-82h-128v-231q0 -66 16 -87q11 -16 35.5 -23.5t79.5 -12.5z" />
    <glyph glyph-name="u" unicode="u" horiz-adv-x="577" 
d="M497 25q-96 -38 -245 -38q-127 0 -156 62q-16 32 -16 102v348h90v-332q0 -47 8 -66q14 -36 91 -36q88 0 138 13v421h90v-474z" />
    <glyph glyph-name="v" unicode="v" horiz-adv-x="498" 
d="M251 74q35 112 146 427l97 -5l-185 -496h-121l-184 495l100 6q129 -366 147 -427z" />
    <glyph glyph-name="w" unicode="w" horiz-adv-x="750" 
d="M262 0h-116l-132 495l97 6q85 -357 100 -428q43 160 112 398h109q89 -292 116 -398q12 65 98 428l90 -6l-127 -495h-115q-89 285 -117 397q-21 -92 -115 -397z" />
    <glyph glyph-name="x" unicode="x" horiz-adv-x="520" 
d="M256 196q-40 -58 -141 -199l-99 6l185 253l-174 241l107 4q82 -114 128 -185q51 75 130 185l99 -5l-173 -239l186 -254l-107 -5q-16 22 -141 198z" />
    <glyph glyph-name="y" unicode="y" horiz-adv-x="577" 
d="M407 21q-63 -31 -171 -31q-120 0 -144 63q-12 32 -12 99v347h90v-330q0 -44 7 -64q13 -36 88 -36q94 0 142 29v401h90v-474q0 -90 -13 -126q-24 -69 -124 -101q-90 -28 -213 -32l-4 76q133 15 185 31.5t66 46.5q13 27 13 80v21z" />
    <glyph glyph-name="z" unicode="z" horiz-adv-x="482" 
d="M451 0h-422v69q177 210 297 349h-279v81h396v-70q-224 -263 -300 -348h308v-81z" />
    <glyph glyph-name="braceleft" unicode="{" horiz-adv-x="325" 
d="M106 307q45 -11 68 -43t23 -100v-151q0 -57 16 -80q19 -26 95 -26v-54q-73 0 -108 9t-54 34q-25 33 -25 108v151q0 66 -22 92.5t-78 31.5v54q57 6 78.5 34.5t21.5 89.5v139q0 79 25 112q20 28 56.5 39.5t105.5 11.5v-53q-81 -3 -98 -33q-13 -23 -13 -75v-146
q0 -70 -22 -100t-69 -45z" />
    <glyph glyph-name="bar" unicode="|" horiz-adv-x="232" 
d="M152 -150h-72v907h72v-907z" />
    <glyph glyph-name="braceright" unicode="}" horiz-adv-x="325" 
d="M219 305q-45 11 -68 43t-23 100v151q0 57 -16 80q-19 26 -95 26v54q73 0 108 -9t54 -34q25 -33 25 -108v-151q0 -66 22 -92.5t78 -31.5v-54q-57 -6 -78.5 -34.5t-21.5 -89.5v-139q0 -79 -25 -112q-20 -28 -56.5 -39.5t-105.5 -11.5v53q81 3 98 33q13 23 13 75v146
q0 70 22 100t69 45z" />
    <glyph glyph-name="asciitilde" unicode="~" horiz-adv-x="700" 
d="M133 222l-53 46q79 105 163 105q45 0 118 -42q61 -34 95 -34q31 0 55 17.5t53 60.5l54 -43q-37 -57 -74 -84t-87 -27q-49 0 -117 38q-67 37 -98 37q-56 0 -109 -74z" />
    <glyph glyph-name="exclamdown" unicode="&#xa1;" horiz-adv-x="288" 
d="M85 278h78q11 -407 11 -482h-101q0 34 12 482zM63 447q0 65 65 65q64 0 64 -65q0 -66 -65 -66q-30 0 -47 14t-17 52z" />
    <glyph glyph-name="cent" unicode="&#xa2;" horiz-adv-x="505" 
d="M327 -104h-68v99q-95 7 -140.5 64.5t-45.5 187.5q0 124 43 184.5t143 71.5v99h68v-96q70 -2 116 -12l-8 -72q-51 7 -123 7q-86 0 -116 -42.5t-30 -130.5q0 -109 32.5 -147t106.5 -38q73 0 136 13l11 -67q-56 -18 -125 -21v-100z" />
    <glyph glyph-name="sterling" unicode="&#xa3;" horiz-adv-x="604" 
d="M561 0h-466v82h77v199h-89v75h89v117q0 93 32 140q28 41 73.5 58t116.5 17q96 0 162 -14l-10 -75q-68 9 -151 9q-79 0 -109 -36q-23 -27 -23 -102v-114h195v-75h-195v-199h298v-82z" />
    <glyph glyph-name="currency" unicode="&#xa4;" horiz-adv-x="543" 
d="M496 146l-41 -42l-67 66q-50 -36 -117 -36q-66 0 -117 36l-66 -67l-41 44l67 67q-38 51 -38 118q0 65 38 117l-67 67l41 43l66 -68q49 39 117 39q72 0 117 -37l66 66l40 -42l-65 -67q37 -46 37 -118q0 -70 -38 -118zM405 332q0 62 -38 100t-96 38t-96.5 -38.5
t-38.5 -98.5q0 -62 38.5 -101t96.5 -39t96 38.5t38 100.5z" />
    <glyph glyph-name="yen" unicode="&#xa5;" horiz-adv-x="618" 
d="M521 334h-139l-27 -42v-38h166v-53h-166v-201h-92v201h-164v53h164v36l-29 44h-135v53h101l-185 285l105 6q161 -246 191 -301q16 27 191 301l103 -6l-188 -285h104v-53z" />
    <glyph glyph-name="brokenbar" unicode="&#xa6;" horiz-adv-x="247" 
d="M152 411h-72v307h72v-307zM152 -18h-72v307h72v-307z" />
    <glyph glyph-name="section" unicode="&#xa7;" horiz-adv-x="506" 
d="M368 119q31 -21 45.5 -48.5t14.5 -71.5q0 -70 -47 -115.5t-154 -45.5q-99 0 -171 24l16 72q80 -18 158 -18q108 0 108 78q0 36 -20 56t-82 45l-64 28q-76 31 -102.5 66t-26.5 89q0 59 30 93.5t76 46.5q-54 32 -54 120q0 29 8 54.5t26.5 49.5t55.5 38t88 14q83 0 143 -15
l-10 -72q-84 11 -138 11q-87 0 -87 -77q0 -35 18 -55t75 -44l66 -28q75 -31 100 -64t25 -91q0 -54 -27 -91t-70 -49zM382 249q0 30 -13.5 46.5t-53.5 36.5q-15 7 -46 20t-44 19t-24 6q-10 0 -19 -3q-24 -7 -40.5 -28.5t-16.5 -55.5q0 -30 13.5 -45.5t49.5 -33.5
q18 -9 56.5 -25t51.5 -22q12 -4 20 -4q9 0 18 4q21 8 34.5 32t13.5 53z" />
    <glyph glyph-name="dieresis" unicode="&#xa8;" horiz-adv-x="197" 
d="M57 660q0 -54 -51 -54q-50 0 -50 53q0 54 50 54q51 0 51 -53zM241 660q0 -54 -51 -54t-51 53q0 54 51 54t51 -53z" />
    <glyph glyph-name="copyright" unicode="&#xa9;" horiz-adv-x="830" 
d="M769 345q0 -155 -98 -257t-257 -102t-257 102t-98 257t98 257.5t256 102.5q163 0 259.5 -101.5t96.5 -258.5zM730 345q0 141 -86.5 232t-230.5 91q-142 0 -228 -91.5t-86 -231.5q0 -139 86 -230.5t229 -91.5t229.5 91t86.5 231zM302 349q0 -86 25 -124.5t94 -38.5
q58 0 120 10l8 -55q-54 -18 -141 -18q-90 0 -135.5 49t-45.5 168q0 121 47 175.5t155 54.5q69 0 110 -9l-8 -58q-29 4 -99 4q-79 0 -104.5 -38t-25.5 -120z" />
    <glyph glyph-name="ordfeminine" unicode="&#xaa;" horiz-adv-x="345" 
d="M293 278q-52 -22 -144 -22q-66 0 -91.5 26.5t-25.5 71.5q0 54 36 76q30 18 97 18q47 0 62 -2v18q0 17 -5 35q-6 21 -68 21q-46 0 -88 -7l-6 52q57 12 112 12q75 0 99 -26q22 -23 22 -84v-189zM227 315v82q-26 2 -55 2q-45 0 -61 -11q-14 -10 -14 -33q0 -24 12 -36t48 -12
q42 0 70 8z" />
    <glyph glyph-name="guillemotleft" unicode="&#xab;" horiz-adv-x="511" 
d="M273 77l-87 -11l-150 201l150 201l87 -7l-139 -193zM481 77l-87 -11l-151 201l150 201l88 -7l-139 -193z" />
    <glyph glyph-name="logicalnot" unicode="&#xac;" horiz-adv-x="700" 
d="M602 34h-72v226h-448v70h520v-296z" />
    <glyph glyph-name="uni00AD" unicode="&#xad;" horiz-adv-x="317" 
d="M283 223h-248v90h248v-90z" />
    <glyph glyph-name="registered" unicode="&#xae;" horiz-adv-x="830" 
d="M769 345q0 -155 -98 -257t-257 -102t-257 102t-98 257t98 257.5t256 102.5q163 0 259.5 -101.5t96.5 -258.5zM730 345q0 141 -86.5 232t-230.5 91q-142 0 -228 -91.5t-86 -231.5q0 -139 86 -230.5t229 -91.5t229.5 91t86.5 231zM345 133h-70v439h112q86 0 124 -16
q61 -27 61 -112q0 -91 -77 -120l109 -190l-78 -2l-98 180h-10.5h-13.5h-12h-47v-179zM345 369h55q46 0 65 8q38 15 38 64q0 52 -36 64q-20 7 -70 7h-52v-143z" />
    <glyph glyph-name="macron" unicode="&#xaf;" horiz-adv-x="197" 
d="M238 607h-279v74h279v-74z" />
    <glyph glyph-name="degree" unicode="&#xb0;" horiz-adv-x="336" 
d="M306 575q0 -65 -38 -101.5t-101 -36.5q-61 0 -98.5 36t-37.5 101t38.5 101.5t102.5 36.5q63 0 98.5 -35.5t35.5 -101.5zM261 574q0 48 -24 73.5t-67 25.5t-68 -26t-25 -75q0 -46 25.5 -71t68.5 -25q42 0 66 26t24 72z" />
    <glyph glyph-name="plusminus" unicode="&#xb1;" horiz-adv-x="700" 
d="M386 138h-72v219h-224v70h224v216h72v-216h224v-70h-224v-219zM610 0h-520v71h520v-71z" />
    <glyph glyph-name="twosuperior" unicode="&#xb2;" 
d="M333 418h-295v48q108 88 168 145q49 49 49 94q0 37 -19.5 56t-66.5 19q-45 0 -99 -16l-11 51q63 23 126 23q79 0 108.5 -33t29.5 -92q0 -63 -50 -115q-59 -59 -142 -122q37 1 202 1v-59z" />
    <glyph glyph-name="threesuperior" unicode="&#xb3;" 
d="M231 636q87 -8 87 -101q0 -63 -36.5 -94t-121.5 -31q-75 0 -117 16l13 54q50 -12 102 -12q56 0 74 18t18 50q0 35 -20.5 51t-75.5 16h-25v57h26q82 0 82 61q0 34 -17.5 46.5t-63.5 12.5q-42 0 -91 -14l-11 51q53 21 117 21q79 0 106.5 -26t27.5 -86q0 -33 -19.5 -57.5
t-54.5 -32.5z" />
    <glyph glyph-name="acute" unicode="&#xb4;" horiz-adv-x="197" 
d="M57 576l-82 5l129 178l116 -5z" />
    <glyph glyph-name="mu" unicode="&#xb5;" horiz-adv-x="603" 
d="M181 -204h-90v703h89v-328q0 -48 8 -69q15 -38 94 -38q89 0 136 14v421h89v-474q-85 -38 -222 -38q-81 0 -104 29v-220z" />
    <glyph glyph-name="paragraph" unicode="&#xb6;" horiz-adv-x="565" 
d="M317 -128h-48v365q-113 0 -169 63t-56 164q0 117 61.5 179.5t213.5 62.5h157v-834h-48v785h-111v-785z" />
    <glyph glyph-name="periodcentered" unicode="&#xb7;" horiz-adv-x="231" 
d="M180 268q0 -65 -66 -65q-64 0 -64 65q0 34 18.5 50t47.5 16q64 0 64 -66z" />
    <glyph glyph-name="cedilla" unicode="&#xb8;" horiz-adv-x="197" 
d="M103 -56q57 -3 75.5 -26t18.5 -64q0 -47 -28 -73.5t-100 -26.5q-40 0 -67 8l11 56q26 -3 57 -3q50 0 50 36q0 21 -11.5 29.5t-40.5 8.5q-23 0 -35 -1l25 126h57z" />
    <glyph glyph-name="onesuperior" unicode="&#xb9;" 
d="M309 418h-210v59h76v284l-83 -29l-18 53l117 45h51v-353h67v-59z" />
    <glyph glyph-name="ordmasculine" unicode="&#xba;" horiz-adv-x="358" 
d="M324 419q0 -94 -34 -128.5t-113 -34.5q-77 0 -110 34t-33 127t37.5 126.5t109.5 33.5q79 0 111 -30.5t32 -127.5zM256 417q0 64 -15.5 84t-60.5 20q-41 0 -59.5 -21.5t-18.5 -81.5q0 -64 16.5 -85t59.5 -21t60.5 20t17.5 85z" />
    <glyph glyph-name="guillemotright" unicode="&#xbb;" horiz-adv-x="511" 
d="M238 458l87 10l150 -200l-150 -202l-87 8l139 193zM30 458l87 10l151 -200l-150 -202l-88 8l139 193z" />
    <glyph glyph-name="onequarter" unicode="&#xbc;" horiz-adv-x="854" 
d="M716 0h-65v99h-195v52l136 263l68 -4q-55 -105 -133 -251h124v99h65v-99h62v-60h-62v-99zM309 264h-210v59h76v284l-83 -29l-18 53l117 45h51v-353h67v-59zM264 -33l-51 5l357 740l51 -5z" />
    <glyph glyph-name="onehalf" unicode="&#xbd;" horiz-adv-x="854" 
d="M779 0h-295v48q108 88 168 145q49 49 49 94q0 37 -19.5 56t-66.5 19q-45 0 -99 -16l-11 51q63 23 126 23q79 0 108.5 -33t29.5 -92q0 -63 -50 -115q-59 -59 -142 -122q37 1 202 1v-59zM290 264h-210v59h76v284l-83 -29l-18 53l117 45h51v-353h67v-59zM246 -33l-51 5
l357 740l51 -5z" />
    <glyph glyph-name="threequarters" unicode="&#xbe;" horiz-adv-x="854" 
d="M301 -33l-51 5l357 740l51 -5zM267 482q87 -8 87 -101q0 -63 -36.5 -94t-121.5 -31q-75 0 -117 16l13 54q50 -12 102 -12q56 0 74 18t18 50q0 35 -20.5 51t-75.5 16h-25v57h26q82 0 82 61q0 34 -17.5 46.5t-63.5 12.5q-42 0 -91 -14l-11 51q52 21 117 21q79 0 106.5 -26
t27.5 -86q0 -33 -19.5 -57.5t-54.5 -32.5zM749 0h-65v99h-195v52l136 263l68 -4q-55 -105 -133 -251h124v99h65v-99h62v-60h-62v-99z" />
    <glyph glyph-name="questiondown" unicode="&#xbf;" horiz-adv-x="421" 
d="M205 277h71q2 -40 2 -64q0 -45 -13 -70.5t-54 -53.5q-48 -33 -66.5 -63t-18.5 -72q0 -46 24.5 -69t85.5 -23q55 0 131 13l12 -71q-69 -22 -160 -22q-104 0 -146 40.5t-42 117.5q0 60 20 95.5t81 77.5q38 26 51.5 45t17.5 55q2 16 4 64zM178 447q0 65 65 65q64 0 64 -65
q0 -66 -65 -66q-30 0 -47 14t-17 52z" />
    <glyph glyph-name="Agrave" unicode="&#xc0;" horiz-adv-x="616" 
d="M176 210l-74 -212l-97 4l247 704h115l245 -704l-102 -4l-71 212h-263zM201 292h215q-84 248 -106 325q-18 -59 -109 -325zM410 765l-87 -6l-202 146l121 9z" />
    <glyph glyph-name="Aacute" unicode="&#xc1;" horiz-adv-x="616" 
d="M176 210l-74 -212l-97 4l247 704h115l245 -704l-102 -4l-71 212h-263zM201 292h215q-84 248 -106 325q-18 -59 -109 -325zM295 750l-87 6l168 149l121 -9z" />
    <glyph glyph-name="Acircumflex" unicode="&#xc2;" horiz-adv-x="616" 
d="M176 210l-74 -212l-97 4l247 704h115l245 -704l-102 -4l-71 212h-263zM201 292h215q-84 248 -106 325q-18 -59 -109 -325zM209 753l-81 7l145 148h77l141 -148l-81 -6l-101 80z" />
    <glyph glyph-name="Atilde" unicode="&#xc3;" horiz-adv-x="616" 
d="M176 210l-74 -212l-97 4l247 704h115l245 -704l-102 -4l-71 212h-263zM201 292h215q-84 248 -106 325q-18 -59 -109 -325zM200 765l-65 9q11 55 37.5 86.5t64.5 31.5q29 0 79 -25q44 -22 61 -22t26.5 11t19.5 43l66 -8q-22 -122 -99 -122q-32 0 -85 24q-45 22 -61 22
q-14 0 -24.5 -11t-19.5 -39z" />
    <glyph glyph-name="Adieresis" unicode="&#xc4;" horiz-adv-x="616" 
d="M176 210l-74 -212l-97 4l247 704h115l245 -704l-102 -4l-71 212h-263zM201 292h215q-84 248 -106 325q-18 -59 -109 -325zM262 824q0 -55 -51 -55q-50 0 -50 54t50 54q51 0 51 -53zM456 824q0 -55 -51 -55t-51 54t51 54t51 -53z" />
    <glyph glyph-name="Aring" unicode="&#xc5;" horiz-adv-x="616" 
d="M176 210l-74 -212l-97 4l247 704h115l245 -704l-102 -4l-71 212h-263zM201 292h215q-84 248 -106 325q-18 -59 -109 -325zM400 828q0 -44 -26 -68t-68 -24q-41 0 -65 24t-24 68t25 69t67 25t66.5 -24.5t24.5 -69.5zM361 829q0 58 -54 58q-24 0 -39 -15t-15 -43
q0 -27 15 -42.5t40 -15.5t39 15t14 43z" />
    <glyph glyph-name="AE" unicode="&#xc6;" horiz-adv-x="962" 
d="M113 -2l-112 5l448 703h463v-84h-319v-213h291v-84h-291v-241h335v-84h-428v219h-246zM298 301h202v317q-61 -101 -202 -317z" />
    <glyph glyph-name="Ccedilla" unicode="&#xc7;" horiz-adv-x="594" 
d="M239 -248l12 59q24 -4 62 -4q53 0 53 38q0 21 -11.5 30t-42.5 9q-27 0 -39 -1l22 106q-79 6 -130 40.5t-79.5 112t-28.5 200.5q0 202 65.5 289.5t232.5 87.5q88 0 180 -15l-9 -78q-110 12 -167 12q-65 0 -107 -19t-63 -59t-28.5 -86.5t-7.5 -116.5q0 -56 4.5 -96.5
t17 -78.5t34 -61t57.5 -37t85 -14q93 0 187 15l10 -74q-92 -23 -194 -24l-8 -45q60 -3 80.5 -27.5t20.5 -67.5q0 -103 -137 -103q-42 0 -71 8z" />
    <glyph glyph-name="Egrave" unicode="&#xc8;" horiz-adv-x="559" 
d="M525 0h-428v706h412v-84h-319v-213h291v-84h-291v-241h335v-84zM412 765l-87 -6l-202 146l121 9z" />
    <glyph glyph-name="Eacute" unicode="&#xc9;" horiz-adv-x="559" 
d="M525 0h-428v706h412v-84h-319v-213h291v-84h-291v-241h335v-84zM315 750l-87 6l168 149l121 -9z" />
    <glyph glyph-name="Ecircumflex" unicode="&#xca;" horiz-adv-x="559" 
d="M525 0h-428v706h412v-84h-319v-213h291v-84h-291v-241h335v-84zM211 753l-81 7l145 148h77l141 -148l-81 -6l-101 80z" />
    <glyph glyph-name="Edieresis" unicode="&#xcb;" horiz-adv-x="559" 
d="M525 0h-428v706h412v-84h-319v-213h291v-84h-291v-241h335v-84zM265 824q0 -55 -51 -55q-50 0 -50 54t50 54q51 0 51 -53zM459 824q0 -55 -51 -55t-51 54t51 54t51 -53z" />
    <glyph glyph-name="Igrave" unicode="&#xcc;" horiz-adv-x="287" 
d="M190 0h-93v706h93v-706zM249 765l-87 -6l-202 146l121 9z" />
    <glyph glyph-name="Iacute" unicode="&#xcd;" horiz-adv-x="287" 
d="M190 0h-93v706h93v-706zM129 759l-87 6l168 149l121 -9z" />
    <glyph glyph-name="Icircumflex" unicode="&#xce;" horiz-adv-x="287" 
d="M190 0h-93v706h93v-706zM42 753l-81 7l145 148h77l141 -148l-81 -6l-101 80z" />
    <glyph glyph-name="Idieresis" unicode="&#xcf;" horiz-adv-x="287" 
d="M190 0h-93v706h93v-706zM97 824q0 -55 -51 -55q-50 0 -50 54t50 54q51 0 51 -53zM291 824q0 -55 -51 -55t-51 54t51 54t51 -53z" />
    <glyph glyph-name="Eth" unicode="&#xd0;" horiz-adv-x="701" 
d="M97 4v325h-76v75h76v298q116 6 181 6q120 0 188 -20q178 -51 178 -327q0 -133 -40.5 -216t-140.5 -121q-70 -26 -195 -26q-96 0 -171 6zM191 621v-217h187v-75h-187v-244q33 -3 99 -3q94 0 143 23q64 29 89 92.5t25 163.5q0 94 -24.5 154t-83.5 87q-47 22 -151 22
q-54 0 -97 -3z" />
    <glyph glyph-name="Ntilde" unicode="&#xd1;" horiz-adv-x="723" 
d="M188 0h-91v706h128q282 -499 313 -572q-2 82 -2 572h90v-706h-115q-279 502 -325 594q2 -170 2 -594zM255 765l-65 9q11 55 37.5 86.5t64.5 31.5q29 0 79 -25q44 -22 61 -22t26.5 11t19.5 43l66 -8q-22 -122 -99 -122q-32 0 -85 24q-45 22 -61 22q-14 0 -24.5 -11
t-19.5 -39z" />
    <glyph glyph-name="Ograve" unicode="&#xd2;" horiz-adv-x="696" 
d="M639 358q0 -145 -33 -227t-95 -113t-167 -31q-76 0 -127 16.5t-88.5 58t-54.5 114t-17 181.5t21.5 182.5t63.5 111.5t91.5 53t118.5 15q62 0 104.5 -8t79.5 -30.5t58 -62.5t33 -104t12 -156zM542 356q0 90 -10 145.5t-34.5 85.5t-58.5 40.5t-90 10.5q-51 0 -84.5 -11.5
t-60 -41.5t-39 -86t-12.5 -142q0 -91 12 -149t38 -88t59 -41t84 -11t83.5 10t60 39.5t40 88t12.5 150.5zM461 765l-87 -6l-202 146l121 9z" />
    <glyph glyph-name="Oacute" unicode="&#xd3;" horiz-adv-x="696" 
d="M639 358q0 -145 -33 -227t-95 -113t-167 -31q-76 0 -127 16.5t-88.5 58t-54.5 114t-17 181.5t21.5 182.5t63.5 111.5t91.5 53t118.5 15q62 0 104.5 -8t79.5 -30.5t58 -62.5t33 -104t12 -156zM542 356q0 90 -10 145.5t-34.5 85.5t-58.5 40.5t-90 10.5q-51 0 -84.5 -11.5
t-60 -41.5t-39 -86t-12.5 -142q0 -91 12 -149t38 -88t59 -41t84 -11t83.5 10t60 39.5t40 88t12.5 150.5zM330 759l-87 6l168 149l121 -9z" />
    <glyph glyph-name="Ocircumflex" unicode="&#xd4;" horiz-adv-x="696" 
d="M639 358q0 -145 -33 -227t-95 -113t-167 -31q-76 0 -127 16.5t-88.5 58t-54.5 114t-17 181.5t21.5 182.5t63.5 111.5t91.5 53t118.5 15q62 0 104.5 -8t79.5 -30.5t58 -62.5t33 -104t12 -156zM542 356q0 90 -10 145.5t-34.5 85.5t-58.5 40.5t-90 10.5q-51 0 -84.5 -11.5
t-60 -41.5t-39 -86t-12.5 -142q0 -91 12 -149t38 -88t59 -41t84 -11t83.5 10t60 39.5t40 88t12.5 150.5zM250 753l-81 7l145 148h77l141 -148l-81 -6l-101 80z" />
    <glyph glyph-name="Otilde" unicode="&#xd5;" horiz-adv-x="696" 
d="M639 358q0 -145 -33 -227t-95 -113t-167 -31q-76 0 -127 16.5t-88.5 58t-54.5 114t-17 181.5t21.5 182.5t63.5 111.5t91.5 53t118.5 15q62 0 104.5 -8t79.5 -30.5t58 -62.5t33 -104t12 -156zM542 356q0 90 -10 145.5t-34.5 85.5t-58.5 40.5t-90 10.5q-51 0 -84.5 -11.5
t-60 -41.5t-39 -86t-12.5 -142q0 -91 12 -149t38 -88t59 -41t84 -11t83.5 10t60 39.5t40 88t12.5 150.5zM242 765l-65 9q11 55 37.5 86.5t64.5 31.5q29 0 79 -25q44 -22 61 -22t26.5 11t19.5 43l66 -8q-22 -122 -99 -122q-32 0 -85 24q-45 22 -61 22q-14 0 -24.5 -11
t-19.5 -39z" />
    <glyph glyph-name="Odieresis" unicode="&#xd6;" horiz-adv-x="696" 
d="M639 358q0 -145 -33 -227t-95 -113t-167 -31q-76 0 -127 16.5t-88.5 58t-54.5 114t-17 181.5t21.5 182.5t63.5 111.5t91.5 53t118.5 15q62 0 104.5 -8t79.5 -30.5t58 -62.5t33 -104t12 -156zM542 356q0 90 -10 145.5t-34.5 85.5t-58.5 40.5t-90 10.5q-51 0 -84.5 -11.5
t-60 -41.5t-39 -86t-12.5 -142q0 -91 12 -149t38 -88t59 -41t84 -11t83.5 10t60 39.5t40 88t12.5 150.5zM310 824q0 -55 -51 -55q-50 0 -50 54t50 54q51 0 51 -53zM504 824q0 -55 -51 -55t-51 54t51 54t51 -53z" />
    <glyph glyph-name="multiply" unicode="&#xd7;" horiz-adv-x="700" 
d="M568 129l-50 -53l-169 168l-168 -168l-49 51l168 168l-170 170l50 53l169 -171l173 170l49 -52l-171 -170z" />
    <glyph glyph-name="Oslash" unicode="&#xd8;" horiz-adv-x="696" 
d="M93 -33l-42 31l62 85q-55 85 -55 274q0 109 21.5 182.5t63.5 111.5t92 53t119 15q132 0 190 -43l53 72l42 -30l-58 -79q59 -82 59 -281q0 -145 -33 -227t-95 -113t-167 -31q-134 0 -197 55zM544 356q0 135 -26 196l-314 -433q41 -51 143 -51q51 0 83.5 10t60.5 39.5
t40.5 88t12.5 150.5zM154 357q0 -120 23 -186l311 428q-39 39 -138 39q-51 0 -84.5 -11.5t-60 -41.5t-39 -86t-12.5 -142z" />
    <glyph glyph-name="Ugrave" unicode="&#xd9;" horiz-adv-x="694" 
d="M604 706v-424q0 -82 -5.5 -125.5t-23.5 -74.5q-55 -96 -233 -96q-181 0 -230 106q-22 48 -22 188v426h93v-454q0 -95 22 -129q35 -55 142 -55q113 0 144 52q23 38 23 129v457h90zM456 765l-87 -6l-202 146l121 9z" />
    <glyph glyph-name="Uacute" unicode="&#xda;" horiz-adv-x="694" 
d="M604 706v-424q0 -82 -5.5 -125.5t-23.5 -74.5q-55 -96 -233 -96q-181 0 -230 106q-22 48 -22 188v426h93v-454q0 -95 22 -129q35 -55 142 -55q113 0 144 52q23 38 23 129v457h90zM328 759l-87 6l168 149l121 -9z" />
    <glyph glyph-name="Ucircumflex" unicode="&#xdb;" horiz-adv-x="694" 
d="M604 706v-424q0 -82 -5.5 -125.5t-23.5 -74.5q-55 -96 -233 -96q-181 0 -230 106q-22 48 -22 188v426h93v-454q0 -95 22 -129q35 -55 142 -55q113 0 144 52q23 38 23 129v457h90zM250 753l-81 7l145 148h77l141 -148l-81 -6l-101 80z" />
    <glyph glyph-name="Udieresis" unicode="&#xdc;" horiz-adv-x="694" 
d="M604 706v-424q0 -82 -5.5 -125.5t-23.5 -74.5q-55 -96 -233 -96q-181 0 -230 106q-22 48 -22 188v426h93v-454q0 -95 22 -129q35 -55 142 -55q113 0 144 52q23 38 23 129v457h90zM306 824q0 -55 -51 -55q-50 0 -50 54t50 54q51 0 51 -53zM500 824q0 -55 -51 -55t-51 54
t51 54t51 -53z" />
    <glyph glyph-name="Yacute" unicode="&#xdd;" horiz-adv-x="594" 
d="M344 0h-94v303l-244 400l108 5q138 -226 186 -313q47 84 187 313l101 -5l-244 -398v-305zM280 756l-87 6l168 149l121 -9z" />
    <glyph glyph-name="Thorn" unicode="&#xde;" horiz-adv-x="625" 
d="M190 0h-93v706h93v-137q2 0 49 0.5t48 0.5q122 0 180 -23q101 -42 101 -182q0 -154 -132 -193q-54 -16 -149 -16h-97v-156zM190 234h103q75 0 117 15q63 26 63 111q0 89 -62 114q-37 15 -124 15q-93 0 -97 -1v-254z" />
    <glyph glyph-name="germandbls" unicode="&#xdf;" horiz-adv-x="551" 
d="M175 0h-90v491q0 116 18 157q46 103 193 103q98 0 142.5 -43.5t44.5 -134.5q0 -77 -27.5 -116.5t-86.5 -56.5q82 -10 115.5 -53t33.5 -132q0 -115 -53 -165q-58 -56 -220 -56l-3 70q129 9 162 50q24 28 24 103q0 71 -33 100.5t-119 29.5h-20v79h19q48 0 83 33.5t35 103.5
q0 57 -26 83.5t-79 26.5q-75 0 -100 -54q-13 -28 -13 -118v-501z" />
    <glyph glyph-name="agrave" unicode="&#xe0;" horiz-adv-x="527" 
d="M446 23q-80 -36 -218 -36q-102 0 -141.5 43.5t-39.5 116.5q0 85 58 121q46 28 150 28q65 0 103 -3v40q0 40 -7 59q-15 42 -111 42q-80 0 -140 -8l-7 71q82 16 172 16q111 0 148 -40q33 -36 33 -132v-318zM358 74v152q-44 2 -92 2q-79 0 -108 -21q-24 -19 -24 -59
q0 -43 22.5 -66t82.5 -23q70 0 119 15zM347 581l-80 -5l-163 177l114 6z" />
    <glyph glyph-name="aacute" unicode="&#xe1;" horiz-adv-x="527" 
d="M446 23q-80 -36 -218 -36q-102 0 -141.5 43.5t-39.5 116.5q0 85 58 121q46 28 150 28q65 0 103 -3v40q0 40 -7 59q-15 42 -111 42q-80 0 -140 -8l-7 71q82 16 172 16q111 0 148 -40q33 -36 33 -132v-318zM358 74v152q-44 2 -92 2q-79 0 -108 -21q-24 -19 -24 -59
q0 -43 22.5 -66t82.5 -23q70 0 119 15zM268 576l-82 5l129 178l116 -5z" />
    <glyph glyph-name="acircumflex" unicode="&#xe2;" horiz-adv-x="527" 
d="M446 23q-80 -36 -218 -36q-102 0 -141.5 43.5t-39.5 116.5q0 85 58 121q46 28 150 28q65 0 103 -3v40q0 40 -7 59q-15 42 -111 42q-80 0 -140 -8l-7 71q82 16 172 16q111 0 148 -40q33 -36 33 -132v-318zM358 74v152q-44 2 -92 2q-79 0 -108 -21q-24 -19 -24 -59
q0 -43 22.5 -66t82.5 -23q70 0 119 15zM175 566l-76 6l128 177h77l126 -177l-76 -5l-90 107z" />
    <glyph glyph-name="atilde" unicode="&#xe3;" horiz-adv-x="527" 
d="M446 23q-80 -36 -218 -36q-102 0 -141.5 43.5t-39.5 116.5q0 85 58 121q46 28 150 28q65 0 103 -3v40q0 40 -7 59q-15 42 -111 42q-80 0 -140 -8l-7 71q82 16 172 16q111 0 148 -40q33 -36 33 -132v-318zM358 74v152q-44 2 -92 2q-79 0 -108 -21q-24 -19 -24 -59
q0 -43 22.5 -66t82.5 -23q70 0 119 15zM156 593l-64 9q12 55 38 87t61 32q27 0 76 -25q42 -22 58 -22q17 0 26 11t18 43l64 -8q-12 -60 -33 -91.5t-62 -31.5q-33 0 -82 24q-48 23 -58 23q-26 0 -42 -51z" />
    <glyph glyph-name="adieresis" unicode="&#xe4;" horiz-adv-x="527" 
d="M446 23q-80 -36 -218 -36q-102 0 -141.5 43.5t-39.5 116.5q0 85 58 121q46 28 150 28q65 0 103 -3v40q0 40 -7 59q-15 42 -111 42q-80 0 -140 -8l-7 71q82 16 172 16q111 0 148 -40q33 -36 33 -132v-318zM358 74v152q-44 2 -92 2q-79 0 -108 -21q-24 -19 -24 -59
q0 -43 22.5 -66t82.5 -23q70 0 119 15zM231 660q0 -54 -51 -54q-50 0 -50 53q0 54 50 54q51 0 51 -53zM415 660q0 -54 -51 -54t-51 53q0 54 51 54t51 -53z" />
    <glyph glyph-name="aring" unicode="&#xe5;" horiz-adv-x="527" 
d="M446 23q-80 -36 -218 -36q-102 0 -141.5 43.5t-39.5 116.5q0 85 58 121q46 28 150 28q65 0 103 -3v40q0 40 -7 59q-15 42 -111 42q-80 0 -140 -8l-7 71q82 16 172 16q111 0 148 -40q33 -36 33 -132v-318zM358 74v152q-44 2 -92 2q-79 0 -108 -21q-24 -19 -24 -59
q0 -43 22.5 -66t82.5 -23q70 0 119 15zM363 670q0 -45 -27 -70t-72 -25q-43 0 -69 25t-26 70q0 46 27 72t71 26q45 0 70.5 -26t25.5 -72zM323 672q0 61 -58 61q-26 0 -42 -16t-16 -46q0 -29 16 -45.5t43 -16.5t42 16.5t15 46.5z" />
    <glyph glyph-name="ae" unicode="&#xe6;" horiz-adv-x="825" 
d="M412 47q-67 -60 -187 -60q-98 0 -138 42.5t-40 118.5q0 85 59 119q48 27 160 29q62 0 92 -1v38q0 44 -7 61q-16 40 -103 40q-102 0 -148 -8l-7 71q79 16 174 16q68 0 104 -16.5t47 -60.5q21 37 66 57t100 20q51 0 87 -12t57 -32t32 -54.5t14.5 -69.5t3.5 -87
q0 -17 -2 -33h-329q0 -90 36.5 -124.5t112.5 -34.5q90 0 155 15l12 -69q-70 -25 -176 -25q-122 0 -175 60zM358 226q-44 2 -83 2q-92 -1 -118 -23q-23 -17 -23 -57q0 -43 23.5 -66t84.5 -23q86 0 138 40q-22 46 -22 127zM448 297h244q1 2 1 18q0 65 -24.5 94t-87.5 29
q-69 0 -100 -34t-33 -107z" />
    <glyph glyph-name="ccedilla" unicode="&#xe7;" horiz-adv-x="450" 
d="M269 -56q57 -3 75.5 -26t18.5 -64q0 -47 -28 -73.5t-100 -26.5q-40 0 -67 8l11 56q26 -3 57 -3q50 0 50 36q0 21 -11.5 29.5t-40.5 8.5q-23 0 -35 -1l20 102q-85 10 -126.5 68.5t-41.5 183.5q0 144 50 207.5t176 63.5q61 0 130 -16l-9 -72q-61 9 -121 9q-45 0 -73 -13
t-41 -41t-17 -56t-4 -73q0 -95 28 -139.5t108 -44.5q61 0 129 13l11 -72q-68 -19 -142 -21z" />
    <glyph glyph-name="egrave" unicode="&#xe8;" horiz-adv-x="518" 
d="M141 226q1 -96 39 -128t120 -32q61 0 145 18l12 -71q-71 -26 -174 -26q-127 0 -180.5 61.5t-53.5 199.5q0 140 56.5 202.5t174.5 62.5q109 0 150 -55t41 -174q0 -40 -3 -58h-327zM142 297h245v14q0 66 -23.5 96.5t-88.5 30.5q-74 0 -102 -36.5t-31 -104.5zM358 581
l-80 -5l-163 177l114 6z" />
    <glyph glyph-name="eacute" unicode="&#xe9;" horiz-adv-x="518" 
d="M141 226q1 -96 39 -128t120 -32q61 0 145 18l12 -71q-71 -26 -174 -26q-127 0 -180.5 61.5t-53.5 199.5q0 140 56.5 202.5t174.5 62.5q109 0 150 -55t41 -174q0 -40 -3 -58h-327zM142 297h245v14q0 66 -23.5 96.5t-88.5 30.5q-74 0 -102 -36.5t-31 -104.5zM263 576l-82 5
l129 178l116 -5z" />
    <glyph glyph-name="ecircumflex" unicode="&#xea;" horiz-adv-x="518" 
d="M141 226q1 -96 39 -128t120 -32q61 0 145 18l12 -71q-71 -26 -174 -26q-127 0 -180.5 61.5t-53.5 199.5q0 140 56.5 202.5t174.5 62.5q109 0 150 -55t41 -174q0 -40 -3 -58h-327zM142 297h245v14q0 66 -23.5 96.5t-88.5 30.5q-74 0 -102 -36.5t-31 -104.5zM183 566l-76 6
l128 177h77l126 -177l-76 -5l-90 107z" />
    <glyph glyph-name="edieresis" unicode="&#xeb;" horiz-adv-x="518" 
d="M141 226q1 -96 39 -128t120 -32q61 0 145 18l12 -71q-71 -26 -174 -26q-127 0 -180.5 61.5t-53.5 199.5q0 140 56.5 202.5t174.5 62.5q109 0 150 -55t41 -174q0 -40 -3 -58h-327zM142 297h245v14q0 66 -23.5 96.5t-88.5 30.5q-74 0 -102 -36.5t-31 -104.5zM230 660
q0 -54 -51 -54q-50 0 -50 53q0 54 50 54q51 0 51 -53zM414 660q0 -54 -51 -54t-51 53q0 54 51 54t51 -53z" />
    <glyph glyph-name="igrave" unicode="&#xec;" horiz-adv-x="250" 
d="M201 581l-80 -5l-163 177l114 6zM170 0h-90v499h90v-499z" />
    <glyph glyph-name="iacute" unicode="&#xed;" horiz-adv-x="250" 
d="M129 576l-82 5l129 178l116 -5zM170 0h-90v499h90v-499z" />
    <glyph glyph-name="icircumflex" unicode="&#xee;" horiz-adv-x="250" 
d="M170 0h-90v499h90v-499zM36 566l-76 6l128 177h77l126 -177l-76 -5l-90 107z" />
    <glyph glyph-name="idieresis" unicode="&#xef;" horiz-adv-x="250" 
d="M84 660q0 -54 -51 -54q-50 0 -50 53q0 54 50 54q51 0 51 -53zM268 660q0 -54 -51 -54t-51 53q0 54 51 54t51 -53zM170 0h-90v499h90v-499z" />
    <glyph glyph-name="eth" unicode="&#xf0;" horiz-adv-x="547" 
d="M493 705l-79 -53q52 -60 69 -155t17 -242q0 -154 -53 -211t-173 -57q-59 0 -98 11t-68.5 40t-43 81t-13.5 132q0 77 16 129t48 78.5t69 37t89 10.5q36 0 76.5 -12.5t55.5 -40.5q-16 101 -61 153l-93 -62l-35 51l78 51q-57 31 -144 35l8 66q132 -1 209 -53l93 61zM409 248
q0 110 -28 145.5t-102 35.5q-73 0 -105 -37t-32 -140q0 -79 14.5 -120t41.5 -54t78 -13q36 0 58 6t40.5 24.5t26.5 55.5t8 97z" />
    <glyph glyph-name="ntilde" unicode="&#xf1;" horiz-adv-x="577" 
d="M170 0h-90v466q108 47 258 47q71 0 104 -15t45 -47q10 -27 10 -98v-353h-90v336q0 44 -6 62q-12 36 -85 36q-80 0 -146 -21v-413zM186 593l-64 9q12 55 38 87t61 32q27 0 76 -25q42 -22 58 -22q17 0 26 11t18 43l64 -8q-12 -60 -33 -91.5t-62 -31.5q-33 0 -82 24
q-48 23 -58 23q-26 0 -42 -51z" />
    <glyph glyph-name="ograve" unicode="&#xf2;" horiz-adv-x="550" 
d="M499 254q0 -153 -52 -210t-175 -57q-80 0 -126 21.5t-70.5 79.5t-24.5 163q0 79 16 132t48.5 80.5t71 38.5t92.5 11q61 0 98.5 -9t67 -36t42 -79t12.5 -135zM409 249q0 114 -27.5 149.5t-104.5 35.5q-71 0 -103 -37.5t-32 -143.5q0 -79 14.5 -120t41 -54.5t76.5 -13.5
q37 0 59.5 6t41 25t26.5 56t8 97zM361 581l-80 -5l-163 177l114 6z" />
    <glyph glyph-name="oacute" unicode="&#xf3;" horiz-adv-x="550" 
d="M499 254q0 -153 -52 -210t-175 -57q-80 0 -126 21.5t-70.5 79.5t-24.5 163q0 79 16 132t48.5 80.5t71 38.5t92.5 11q61 0 98.5 -9t67 -36t42 -79t12.5 -135zM409 249q0 114 -27.5 149.5t-104.5 35.5q-71 0 -103 -37.5t-32 -143.5q0 -79 14.5 -120t41 -54.5t76.5 -13.5
q37 0 59.5 6t41 25t26.5 56t8 97zM272 576l-82 5l129 178l116 -5z" />
    <glyph glyph-name="ocircumflex" unicode="&#xf4;" horiz-adv-x="550" 
d="M499 254q0 -153 -52 -210t-175 -57q-80 0 -126 21.5t-70.5 79.5t-24.5 163q0 79 16 132t48.5 80.5t71 38.5t92.5 11q61 0 98.5 -9t67 -36t42 -79t12.5 -135zM409 249q0 114 -27.5 149.5t-104.5 35.5q-71 0 -103 -37.5t-32 -143.5q0 -79 14.5 -120t41 -54.5t76.5 -13.5
q37 0 59.5 6t41 25t26.5 56t8 97zM191 566l-76 6l128 177h77l126 -177l-76 -5l-90 107z" />
    <glyph glyph-name="otilde" unicode="&#xf5;" horiz-adv-x="550" 
d="M499 254q0 -153 -52 -210t-175 -57q-80 0 -126 21.5t-70.5 79.5t-24.5 163q0 79 16 132t48.5 80.5t71 38.5t92.5 11q61 0 98.5 -9t67 -36t42 -79t12.5 -135zM409 249q0 114 -27.5 149.5t-104.5 35.5q-71 0 -103 -37.5t-32 -143.5q0 -79 14.5 -120t41 -54.5t76.5 -13.5
q37 0 59.5 6t41 25t26.5 56t8 97zM172 593l-64 9q12 55 38 87t61 32q27 0 76 -25q42 -22 58 -22q17 0 26 11t18 43l64 -8q-12 -60 -33 -91.5t-62 -31.5q-33 0 -82 24q-48 23 -58 23q-26 0 -42 -51z" />
    <glyph glyph-name="odieresis" unicode="&#xf6;" horiz-adv-x="550" 
d="M499 254q0 -153 -52 -210t-175 -57q-80 0 -126 21.5t-70.5 79.5t-24.5 163q0 79 16 132t48.5 80.5t71 38.5t92.5 11q61 0 98.5 -9t67 -36t42 -79t12.5 -135zM409 249q0 114 -27.5 149.5t-104.5 35.5q-71 0 -103 -37.5t-32 -143.5q0 -79 14.5 -120t41 -54.5t76.5 -13.5
q37 0 59.5 6t41 25t26.5 56t8 97zM238 660q0 -54 -51 -54q-50 0 -50 53q0 54 50 54q51 0 51 -53zM422 660q0 -54 -51 -54t-51 53q0 54 51 54t51 -53z" />
    <glyph glyph-name="divide" unicode="&#xf7;" horiz-adv-x="700" 
d="M398 462q0 -51 -48 -51q-47 0 -47 51q0 50 49 50q46 0 46 -50zM610 260h-520v70h520v-70zM398 123q0 -50 -48 -50q-47 0 -47 50q0 52 49 52q46 0 46 -52z" />
    <glyph glyph-name="oslash" unicode="&#xf8;" horiz-adv-x="550" 
d="M96 -42l-39 28l43 60q-50 61 -50 205q0 79 17 132.5t50.5 81t72.5 38t93 10.5q95 0 140 -25l49 68l39 -28l-51 -70q48 -57 48 -204q0 -105 -26.5 -164t-74.5 -81t-130 -22q-90 0 -139 28zM420 249q0 90 -17 131l-216 -297q27 -20 91 -20q38 0 62 6t43.5 25t28 57t8.5 98z
M139 253q0 -88 18 -130l215 295q-29 18 -91 18q-76 0 -109 -37.5t-33 -145.5z" />
    <glyph glyph-name="ugrave" unicode="&#xf9;" horiz-adv-x="577" 
d="M497 25q-96 -38 -245 -38q-127 0 -156 62q-16 32 -16 102v348h90v-332q0 -47 8 -66q14 -36 91 -36q88 0 138 13v421h90v-474zM372 583l-80 -5l-163 177l114 6z" />
    <glyph glyph-name="uacute" unicode="&#xfa;" horiz-adv-x="577" 
d="M497 25q-96 -38 -245 -38q-127 0 -156 62q-16 32 -16 102v348h90v-332q0 -47 8 -66q14 -36 91 -36q88 0 138 13v421h90v-474zM286 576l-82 5l129 178l116 -5z" />
    <glyph glyph-name="ucircumflex" unicode="&#xfb;" horiz-adv-x="577" 
d="M497 25q-96 -38 -245 -38q-127 0 -156 62q-16 32 -16 102v348h90v-332q0 -47 8 -66q14 -36 91 -36q88 0 138 13v421h90v-474zM199 566l-76 6l128 177h77l126 -177l-76 -5l-90 107z" />
    <glyph glyph-name="udieresis" unicode="&#xfc;" horiz-adv-x="577" 
d="M497 25q-96 -38 -245 -38q-127 0 -156 62q-16 32 -16 102v348h90v-332q0 -47 8 -66q14 -36 91 -36q88 0 138 13v421h90v-474zM248 660q0 -54 -51 -54q-50 0 -50 53q0 54 50 54q51 0 51 -53zM432 660q0 -54 -51 -54t-51 53q0 54 51 54t51 -53z" />
    <glyph glyph-name="yacute" unicode="&#xfd;" horiz-adv-x="577" 
d="M407 21q-63 -31 -171 -31q-120 0 -144 63q-12 32 -12 99v347h90v-330q0 -44 7 -64q13 -36 88 -36q94 0 142 29v401h90v-474q0 -90 -13 -126q-24 -69 -124 -101q-90 -28 -213 -32l-4 76q133 15 185 31.5t66 46.5q13 27 13 80v21zM290 576l-82 5l129 178l116 -5z" />
    <glyph glyph-name="thorn" unicode="&#xfe;" horiz-adv-x="565" 
d="M170 -234h-90v982h90v-260q69 24 152 24q97 0 144.5 -56.5t47.5 -194.5q0 -82 -14 -135.5t-45 -84t-72.5 -42t-105.5 -11.5t-107 16v-238zM170 79q52 -15 99 -15q92 0 123 39.5t31 152.5q0 97 -26 137.5t-96 40.5q-65 0 -131 -21v-334z" />
    <glyph glyph-name="ydieresis" unicode="&#xff;" horiz-adv-x="577" 
d="M407 21q-63 -31 -171 -31q-120 0 -144 63q-12 32 -12 99v347h90v-330q0 -44 7 -64q13 -36 88 -36q94 0 142 29v401h90v-474q0 -90 -13 -126q-24 -69 -124 -101q-90 -28 -213 -32l-4 76q133 15 185 31.5t66 46.5q13 27 13 80v21zM252 660q0 -54 -51 -54q-50 0 -50 53
q0 54 50 54q51 0 51 -53zM436 660q0 -54 -51 -54t-51 53q0 54 51 54t51 -53z" />
    <glyph glyph-name="Amacron" unicode="&#x100;" horiz-adv-x="616" 
d="M176 210l-74 -212l-97 4l247 704h115l245 -704l-102 -4l-71 212h-263zM201 292h215q-84 248 -106 325q-18 -59 -109 -325zM455 788h-297v74h297v-74z" />
    <glyph glyph-name="amacron" unicode="&#x101;" horiz-adv-x="527" 
d="M446 23q-80 -36 -218 -36q-102 0 -141.5 43.5t-39.5 116.5q0 85 58 121q46 28 150 28q65 0 103 -3v40q0 40 -7 59q-15 42 -111 42q-80 0 -140 -8l-7 71q82 16 172 16q111 0 148 -40q33 -36 33 -132v-318zM358 74v152q-44 2 -92 2q-79 0 -108 -21q-24 -19 -24 -59
q0 -43 22.5 -66t82.5 -23q70 0 119 15zM405 607h-279v74h279v-74z" />
    <glyph glyph-name="Abreve" unicode="&#x102;" horiz-adv-x="616" 
d="M176 210l-74 -212l-97 4l247 704h115l245 -704l-102 -4l-71 212h-263zM201 292h215q-84 248 -106 325q-18 -59 -109 -325zM398 909l62 -3q-2 -148 -156 -148q-151 0 -151 148l63 3q4 -43 24.5 -62.5t63.5 -19.5t65 18.5t29 63.5z" />
    <glyph glyph-name="abreve" unicode="&#x103;" horiz-adv-x="527" 
d="M446 23q-80 -36 -218 -36q-102 0 -141.5 43.5t-39.5 116.5q0 85 58 121q46 28 150 28q65 0 103 -3v40q0 40 -7 59q-15 42 -111 42q-80 0 -140 -8l-7 71q82 16 172 16q111 0 148 -40q33 -36 33 -132v-318zM358 74v152q-44 2 -92 2q-79 0 -108 -21q-24 -19 -24 -59
q0 -43 22.5 -66t82.5 -23q70 0 119 15zM352 731l61 -3q0 -72 -36 -114t-114 -42q-145 0 -145 156l63 3q3 -48 22 -69t61 -21q41 0 61.5 20t26.5 70z" />
    <glyph glyph-name="Aogonek" unicode="&#x104;" horiz-adv-x="616" 
d="M176 210l-74 -212l-97 4l247 704h115l245 -704l-21 -1q-55 -37 -77.5 -63.5t-22.5 -65.5q0 -53 56 -53q28 0 58 5l9 -58q-35 -12 -85 -12q-117 0 -117 106q0 51 25.5 82.5t72.5 55.5l-71 212h-263zM201 292h215q-84 248 -106 325q-18 -59 -109 -325z" />
    <glyph glyph-name="aogonek" unicode="&#x105;" horiz-adv-x="527" 
d="M412 9q-57 -37 -80 -64.5t-23 -66.5q0 -50 53 -50q31 0 55 4l9 -56q-32 -11 -81 -11q-111 0 -111 102q0 82 80 125q-43 -5 -86 -5q-102 0 -141.5 43.5t-39.5 116.5q0 85 58 121q46 28 150 28q65 0 103 -3v40q0 40 -7 59q-15 42 -111 42q-80 0 -140 -8l-7 71q82 16 172 16
q111 0 148 -40q33 -36 33 -132v-318q-10 -6 -34 -14zM358 74v152q-44 2 -92 2q-79 0 -108 -21q-24 -19 -24 -59q0 -43 22.5 -66t82.5 -23q70 0 119 15z" />
    <glyph glyph-name="Cacute" unicode="&#x106;" horiz-adv-x="594" 
d="M153 357q0 -56 4.5 -96.5t17 -78.5t34 -61t57.5 -37t85 -14q93 0 187 15l10 -74q-99 -25 -214 -24q-69 1 -118 18.5t-86 57.5t-55 109.5t-18 169.5q0 202 65.5 289.5t232.5 87.5q88 0 180 -15l-9 -78q-110 12 -167 12q-65 0 -107 -19t-63 -59t-28.5 -86.5t-7.5 -116.5z
M342 759l-87 6l168 149l121 -9z" />
    <glyph glyph-name="cacute" unicode="&#x107;" horiz-adv-x="450" 
d="M418 8q-73 -21 -154 -21q-108 0 -160.5 57.5t-52.5 197.5q0 144 50 207.5t176 63.5q61 0 130 -16l-9 -72q-61 9 -121 9q-45 0 -73 -13t-41 -41t-17 -56t-4 -73q0 -95 28 -139.5t108 -44.5q61 0 129 13zM275 576l-82 5l129 178l116 -5z" />
    <glyph glyph-name="Ccircumflex" unicode="&#x108;" horiz-adv-x="594" 
d="M153 357q0 -56 4.5 -96.5t17 -78.5t34 -61t57.5 -37t85 -14q93 0 187 15l10 -74q-99 -24 -214 -24q-92 0 -151 31.5t-92.5 111t-33.5 212.5q0 202 65.5 289.5t232.5 87.5q88 0 180 -15l-9 -78q-110 12 -167 12q-65 0 -107 -19t-63 -59t-28.5 -86.5t-7.5 -116.5zM252 753
l-81 7l145 148h77l141 -148l-81 -6l-101 80z" />
    <glyph glyph-name="ccircumflex" unicode="&#x109;" horiz-adv-x="450" 
d="M418 8q-73 -21 -154 -21q-108 0 -160.5 57.5t-52.5 197.5q0 144 50 207.5t176 63.5q61 0 130 -16l-9 -72q-61 9 -121 9q-45 0 -73 -13t-41 -41t-17 -56t-4 -73q0 -95 28 -139.5t108 -44.5q61 0 129 13zM180 566l-76 6l128 177h77l126 -177l-76 -5l-90 107z" />
    <glyph glyph-name="Cdotaccent" unicode="&#x10a;" horiz-adv-x="594" 
d="M153 357q0 -56 4.5 -96.5t17 -78.5t34 -61t57.5 -37t85 -14q93 0 187 15l10 -74q-99 -24 -214 -24q-92 0 -151 31.5t-92.5 111t-33.5 212.5q0 202 65.5 289.5t232.5 87.5q88 0 180 -15l-9 -78q-110 12 -167 12q-65 0 -107 -19t-63 -59t-28.5 -86.5t-7.5 -116.5zM401 824
q0 -55 -51 -55q-50 0 -50 54t50 54q51 0 51 -53z" />
    <glyph glyph-name="cdotaccent" unicode="&#x10b;" horiz-adv-x="450" 
d="M418 8q-73 -21 -154 -21q-108 0 -160.5 57.5t-52.5 197.5q0 144 50 207.5t176 63.5q61 0 130 -16l-9 -72q-61 9 -121 9q-45 0 -73 -13t-41 -41t-17 -56t-4 -73q0 -95 28 -139.5t108 -44.5q61 0 129 13zM324 660q0 -54 -51 -54t-51 53q0 54 51 54t51 -53z" />
    <glyph glyph-name="Ccaron" unicode="&#x10c;" horiz-adv-x="594" 
d="M153 357q0 -56 4.5 -96.5t17 -78.5t34 -61t57.5 -37t85 -14q93 0 187 15l10 -74q-93 -24 -214 -24q-92 0 -151 31.5t-92.5 111t-33.5 212.5q0 202 65.5 289.5t232.5 87.5q88 0 180 -15l-9 -78q-110 12 -167 12q-65 0 -107 -19t-63 -59t-28.5 -86.5t-7.5 -116.5zM448 912
l81 -7l-145 -149h-77l-141 149l81 6l101 -80z" />
    <glyph glyph-name="ccaron" unicode="&#x10d;" horiz-adv-x="450" 
d="M418 8q-73 -21 -154 -21q-108 0 -160.5 57.5t-52.5 197.5q0 144 50 207.5t176 63.5q61 0 130 -16l-9 -72q-61 9 -121 9q-45 0 -73 -13t-41 -41t-17 -56t-4 -73q0 -95 28 -139.5t108 -44.5q61 0 129 13zM360 753l76 -6l-128 -177h-77l-126 177l76 5l90 -107z" />
    <glyph glyph-name="Dcaron" unicode="&#x10e;" horiz-adv-x="701" 
d="M97 4v698q116 6 181 6q120 0 188 -20q178 -51 178 -327q0 -133 -40.5 -216t-140.5 -121q-70 -26 -195 -26q-96 0 -171 6zM191 621v-536q33 -3 99 -3q94 0 143 23q64 29 89 92.5t25 163.5q0 94 -24.5 154t-83.5 87q-47 22 -151 22q-54 0 -97 -3zM431 912l81 -7l-145 -149
h-77l-141 149l81 6l101 -80z" />
    <glyph glyph-name="dcaron" unicode="&#x10f;" horiz-adv-x="565" 
d="M485 23q-86 -36 -215 -36q-117 0 -168 56t-51 196q0 156 56.5 215t182.5 59q56 0 106 -14v249h89v-725zM396 77v345q-50 13 -101 13q-90 0 -121.5 -42.5t-31.5 -150.5q0 -95 28.5 -137t101.5 -42t124 14zM564 525l-49 32q65 78 65 196h88q0 -139 -104 -228z" />
    <glyph glyph-name="Dcroat" unicode="&#x110;" horiz-adv-x="701" 
d="M97 4v325h-76v75h76v298q116 6 181 6q120 0 188 -20q178 -51 178 -327q0 -133 -40.5 -216t-140.5 -121q-70 -26 -195 -26q-96 0 -171 6zM191 621v-217h187v-75h-187v-244q33 -3 99 -3q94 0 143 23q64 29 89 92.5t25 163.5q0 94 -24.5 154t-83.5 87q-47 22 -151 22
q-54 0 -97 -3z" />
    <glyph glyph-name="dcroat" unicode="&#x111;" horiz-adv-x="565" 
d="M485 23q-86 -36 -215 -36q-117 0 -168 56t-51 196q0 156 56.5 215t182.5 59q56 0 106 -14v83h-123v68h123v98h89v-98h76v-68h-76v-559zM396 77v345q-50 13 -101 13q-90 0 -121.5 -42.5t-31.5 -150.5q0 -95 28.5 -137t101.5 -42t124 14z" />
    <glyph glyph-name="Emacron" unicode="&#x112;" horiz-adv-x="559" 
d="M525 0h-428v706h412v-84h-319v-213h291v-84h-291v-241h335v-84zM462 788h-297v74h297v-74z" />
    <glyph glyph-name="emacron" unicode="&#x113;" horiz-adv-x="518" 
d="M141 226q1 -96 39 -128t120 -32q61 0 145 18l12 -71q-71 -26 -174 -26q-127 0 -180.5 61.5t-53.5 199.5q0 140 56.5 202.5t174.5 62.5q109 0 150 -55t41 -174q0 -40 -3 -58h-327zM142 297h245v14q0 66 -23.5 96.5t-88.5 30.5q-74 0 -102 -36.5t-31 -104.5zM415 607h-279
v74h279v-74z" />
    <glyph glyph-name="Ebreve" unicode="&#x114;" horiz-adv-x="559" 
d="M525 0h-428v706h412v-84h-319v-213h291v-84h-291v-241h335v-84zM402 909l62 -3q-2 -148 -156 -148q-151 0 -151 148l63 3q4 -43 24.5 -62.5t63.5 -19.5t65 18.5t29 63.5z" />
    <glyph glyph-name="ebreve" unicode="&#x115;" horiz-adv-x="518" 
d="M141 226q1 -96 39 -128t120 -32q61 0 145 18l12 -71q-71 -26 -174 -26q-127 0 -180.5 61.5t-53.5 199.5q0 140 56.5 202.5t174.5 62.5q109 0 150 -55t41 -174q0 -40 -3 -58h-327zM142 297h245v14q0 66 -23.5 96.5t-88.5 30.5q-74 0 -102 -36.5t-31 -104.5zM360 731l61 -3
q0 -72 -36 -114t-114 -42q-145 0 -145 156l63 3q3 -48 22 -69t61 -21q41 0 61.5 20t26.5 70z" />
    <glyph glyph-name="Edotaccent" unicode="&#x116;" horiz-adv-x="559" 
d="M525 0h-428v706h412v-84h-319v-213h291v-84h-291v-241h335v-84zM364 824q0 -55 -51 -55q-50 0 -50 54t50 54q51 0 51 -53z" />
    <glyph glyph-name="edotaccent" unicode="&#x117;" horiz-adv-x="518" 
d="M141 226q1 -96 39 -128t120 -32q61 0 145 18l12 -71q-71 -26 -174 -26q-127 0 -180.5 61.5t-53.5 199.5q0 140 56.5 202.5t174.5 62.5q109 0 150 -55t41 -174q0 -40 -3 -58h-327zM142 297h245v14q0 66 -23.5 96.5t-88.5 30.5q-74 0 -102 -36.5t-31 -104.5zM326 660
q0 -54 -51 -54t-51 53q0 54 51 54t51 -53z" />
    <glyph glyph-name="Eogonek" unicode="&#x118;" horiz-adv-x="559" 
d="M525 0h-38q-54 -36 -76 -63t-22 -65q0 -53 56 -53q28 0 58 5l9 -58q-35 -12 -85 -12q-117 0 -117 106q0 52 26.5 84t74.5 56h-314v706h412v-84h-319v-213h291v-84h-291v-241h335v-84z" />
    <glyph glyph-name="eogonek" unicode="&#x119;" horiz-adv-x="518" 
d="M141 226q1 -96 39 -128t120 -32q61 0 145 18l12 -71q-31 -11 -68 -17q-48 -32 -68 -57t-20 -61q0 -50 53 -50q31 0 55 4l9 -56q-32 -11 -81 -11q-111 0 -111 102q0 78 73 120h-16q-127 0 -180.5 61.5t-53.5 199.5q0 140 56.5 202.5t174.5 62.5q109 0 150 -55t41 -174
q0 -40 -3 -58h-327zM142 297h245v14q0 66 -23.5 96.5t-88.5 30.5q-74 0 -102 -36.5t-31 -104.5z" />
    <glyph glyph-name="Ecaron" unicode="&#x11a;" horiz-adv-x="559" 
d="M525 0h-428v706h412v-84h-319v-213h291v-84h-291v-241h335v-84zM409 912l81 -7l-145 -149h-77l-141 149l81 6l101 -80z" />
    <glyph glyph-name="ecaron" unicode="&#x11b;" horiz-adv-x="518" 
d="M141 226q1 -96 39 -128t120 -32q61 0 145 18l12 -71q-71 -26 -174 -26q-127 0 -180.5 61.5t-53.5 199.5q0 140 56.5 202.5t174.5 62.5q109 0 150 -55t41 -174q0 -40 -3 -58h-327zM142 297h245v14q0 66 -23.5 96.5t-88.5 30.5q-74 0 -102 -36.5t-31 -104.5zM363 753l76 -6
l-128 -177h-77l-126 177l76 5l90 -107z" />
    <glyph glyph-name="Gcircumflex" unicode="&#x11c;" horiz-adv-x="665" 
d="M602 27q-98 -40 -259 -40q-147 0 -216.5 79t-69.5 276q0 201 69.5 289t240.5 88q113 0 200 -23l-11 -77q-93 19 -192 19q-64 0 -107 -20t-65 -60t-30.5 -87t-8.5 -114q0 -54 4 -93.5t16.5 -78.5t33.5 -63t57.5 -39t86.5 -15q94 0 159 18v207h-160v83h252v-349zM258 753
l-81 7l145 148h77l141 -148l-81 -6l-101 80z" />
    <glyph glyph-name="gcircumflex" unicode="&#x11d;" horiz-adv-x="563" 
d="M392 14q-54 -20 -133 -20q-110 0 -159 53t-49 192q0 155 55 214t184 59q119 0 192 -33v-451q0 -86 -15 -128q-24 -69 -113 -99q-85 -29 -224 -35l-4 76q123 13 176.5 28.5t72.5 43.5q17 25 17 78v22zM392 89v332q-34 12 -104 12q-89 0 -117.5 -41.5t-28.5 -148.5
q0 -92 26.5 -131.5t98.5 -39.5q69 0 125 17zM206 566l-76 6l128 177h77l126 -177l-76 -5l-90 107z" />
    <glyph glyph-name="Gbreve" unicode="&#x11e;" horiz-adv-x="665" 
d="M602 27q-98 -40 -259 -40q-147 0 -216.5 79t-69.5 276q0 201 69.5 289t240.5 88q113 0 200 -23l-11 -77q-93 19 -192 19q-64 0 -107 -20t-65 -60t-30.5 -87t-8.5 -114q0 -54 4 -93.5t16.5 -78.5t33.5 -63t57.5 -39t86.5 -15q94 0 159 18v207h-160v83h252v-349zM449 909
l62 -3q-2 -148 -156 -148q-151 0 -151 148l63 3q4 -43 24.5 -62.5t63.5 -19.5t65 18.5t29 63.5z" />
    <glyph glyph-name="gbreve" unicode="&#x11f;" horiz-adv-x="563" 
d="M392 14q-54 -20 -133 -20q-110 0 -159 53t-49 192q0 155 55 214t184 59q119 0 192 -33v-451q0 -86 -15 -128q-24 -69 -113 -99q-85 -29 -224 -35l-4 76q123 13 176.5 28.5t72.5 43.5q17 25 17 78v22zM392 89v332q-34 12 -104 12q-89 0 -117.5 -41.5t-28.5 -148.5
q0 -92 26.5 -131.5t98.5 -39.5q69 0 125 17zM372 731l61 -3q0 -72 -36 -114t-114 -42q-145 0 -145 156l63 3q3 -48 22 -69t61 -21q41 0 61.5 20t26.5 70z" />
    <glyph glyph-name="Gdotaccent" unicode="&#x120;" horiz-adv-x="665" 
d="M602 27q-98 -40 -259 -40q-147 0 -216.5 79t-69.5 276q0 201 69.5 289t240.5 88q113 0 200 -23l-11 -77q-93 19 -192 19q-64 0 -107 -20t-65 -60t-30.5 -87t-8.5 -114q0 -54 4 -93.5t16.5 -78.5t33.5 -63t57.5 -39t86.5 -15q94 0 159 18v207h-160v83h252v-349zM412 824
q0 -55 -51 -55q-50 0 -50 54t50 54q51 0 51 -53z" />
    <glyph glyph-name="gdotaccent" unicode="&#x121;" horiz-adv-x="563" 
d="M392 14q-54 -20 -133 -20q-110 0 -159 53t-49 192q0 155 55 214t184 59q119 0 192 -33v-451q0 -86 -15 -128q-24 -69 -113 -99q-85 -29 -224 -35l-4 76q123 13 176.5 28.5t72.5 43.5q17 25 17 78v22zM392 89v332q-34 12 -104 12q-89 0 -117.5 -41.5t-28.5 -148.5
q0 -92 26.5 -131.5t98.5 -39.5q69 0 125 17zM343 660q0 -54 -51 -54t-51 53q0 54 51 54t51 -53z" />
    <glyph glyph-name="Gcommaaccent" unicode="&#x122;" horiz-adv-x="665" 
d="M602 27q-98 -40 -259 -40q-147 0 -216.5 79t-69.5 276q0 201 69.5 289t240.5 88q113 0 200 -23l-11 -77q-93 19 -192 19q-64 0 -107 -20t-65 -60t-30.5 -87t-8.5 -114q0 -54 4 -93.5t16.5 -78.5t33.5 -63t57.5 -39t86.5 -15q94 0 159 18v207h-160v83h252v-349zM312 -287
l-49 31q65 78 65 196h88q0 -140 -104 -227z" />
    <glyph glyph-name="gcommaaccent" unicode="&#x123;" horiz-adv-x="563" 
d="M392 14q-54 -20 -133 -20q-110 0 -159 53t-49 192q0 155 55 214t184 59q119 0 192 -33v-451q0 -83 -14 -129q-39 -126 -338 -133l-4 76q121 10 175.5 26t73.5 46q17 27 17 78v22zM393 89v332q-34 12 -105 12q-89 0 -117.5 -41.5t-28.5 -148.5q0 -92 26.5 -131.5
t98.5 -39.5q70 0 126 17zM341 805l49 -31q-65 -78 -65 -196h-88q0 140 104 227z" />
    <glyph glyph-name="Hcircumflex" unicode="&#x124;" horiz-adv-x="711" 
d="M190 0h-93v706h93v-297h331v297h93v-706h-93v325h-331v-325zM256 753l-81 7l145 148h77l141 -148l-81 -6l-101 80z" />
    <glyph glyph-name="hcircumflex" unicode="&#x125;" horiz-adv-x="577" 
d="M170 0h-90v748h90v-270q70 35 174 35q69 0 100.5 -15t42.5 -47q10 -27 10 -99v-352h-90v334q0 45 -6 63q-6 20 -24.5 28.5t-60.5 8.5q-79 0 -146 -21v-413zM48 770l-81 7l145 148h77l141 -148l-81 -6l-101 80z" />
    <glyph glyph-name="Hbar" unicode="&#x126;" horiz-adv-x="711" 
d="M190 0h-93v490h-75v76h75v140h93v-140h331v140h93v-140h75v-76h-75v-490h-93v325h-331v-325zM190 409h331v81h-331v-81z" />
    <glyph glyph-name="hbar" unicode="&#x127;" horiz-adv-x="577" 
d="M170 0h-90v582h-64v68h64v98h90v-98h133v-68h-133v-104q70 35 174 35q69 0 100.5 -15t42.5 -47q10 -27 10 -99v-352h-90v334q0 45 -6 63q-6 20 -24.5 28.5t-60.5 8.5q-79 0 -146 -21v-413z" />
    <glyph glyph-name="Itilde" unicode="&#x128;" horiz-adv-x="287" 
d="M190 0h-93v706h93v-706zM32 765l-65 9q11 55 37.5 86.5t64.5 31.5q29 0 79 -25q44 -22 61 -22t26.5 11t19.5 43l66 -8q-22 -122 -99 -122q-32 0 -85 24q-45 22 -61 22q-14 0 -24.5 -11t-19.5 -39z" />
    <glyph glyph-name="itilde" unicode="&#x129;" horiz-adv-x="250" 
d="M18 593l-64 9q12 55 38 87t61 32q27 0 76 -25q42 -22 58 -22q17 0 26 11t18 43l64 -8q-12 -60 -33 -91.5t-62 -31.5q-33 0 -82 24q-48 23 -58 23q-26 0 -42 -51zM170 0h-90v499h90v-499z" />
    <glyph glyph-name="Imacron" unicode="&#x12a;" horiz-adv-x="287" 
d="M190 0h-93v706h93v-706zM291 788h-297v74h297v-74z" />
    <glyph glyph-name="imacron" unicode="&#x12b;" horiz-adv-x="250" 
d="M266 607h-279v74h279v-74zM170 0h-90v499h90v-499z" />
    <glyph glyph-name="Ibreve" unicode="&#x12c;" horiz-adv-x="287" 
d="M190 0h-93v706h93v-706zM235 909l62 -3q-2 -148 -156 -148q-151 0 -151 148l63 3q4 -43 24.5 -62.5t63.5 -19.5t65 18.5t29 63.5z" />
    <glyph glyph-name="ibreve" unicode="&#x12d;" horiz-adv-x="250" 
d="M216 731l61 -3q0 -72 -36 -114t-114 -42q-145 0 -145 156l63 3q3 -48 22 -69t61 -21q41 0 61.5 20t26.5 70zM170 0h-90v499h90v-499z" />
    <glyph glyph-name="Iogonek" unicode="&#x12e;" horiz-adv-x="287" 
d="M190 0h-6q-54 -36 -76 -63t-22 -65q0 -53 56 -53q28 0 58 5l9 -58q-35 -12 -85 -12q-117 0 -117 106q0 52 26.5 84t74.5 56h-11v706h93v-706z" />
    <glyph glyph-name="iogonek" unicode="&#x12f;" horiz-adv-x="250" 
d="M170 0h-5q-57 -34 -79 -58.5t-22 -63.5q0 -50 53 -50q31 0 55 4l9 -56q-32 -11 -81 -11q-111 0 -111 102q0 50 25 80t71 53h-5v499h90v-499zM179 661q0 -57 -55 -57t-55 56q0 58 55 58t55 -57z" />
    <glyph glyph-name="Idotaccent" unicode="&#x130;" horiz-adv-x="287" 
d="M190 0h-93v706h93v-706zM192 824q0 -55 -51 -55q-50 0 -50 54t50 54q51 0 51 -53z" />
    <glyph glyph-name="dotlessi" unicode="&#x131;" horiz-adv-x="250" 
d="M170 0h-90v499h90v-499z" />
    <glyph glyph-name="IJ" unicode="&#x132;" horiz-adv-x="603" 
d="M190 0h-93v706h93v-706zM507 59q0 -98 -46 -142q-63 -58 -173 -69l-11 74q65 15 103 42q33 23 33 94v648h94v-647z" />
    <glyph glyph-name="ij" unicode="&#x133;" horiz-adv-x="502" 
d="M170 0h-90v499h90v-499zM179 661q0 -57 -55 -57t-55 56q0 58 55 58t55 -57zM421 499v-531q0 -97 -44 -138q-45 -42 -169 -64l-13 73q82 21 107 41q29 24 29 91v528h90zM430 661q0 -57 -54 -57t-54 56q0 58 54 58t54 -57z" />
    <glyph glyph-name="Jcircumflex" unicode="&#x134;" horiz-adv-x="316" 
d="M220 59q0 -98 -46 -142q-63 -58 -173 -69l-11 74q65 15 103 42q33 23 33 94v648h94v-647zM72 753l-81 7l145 148h77l141 -148l-81 -6l-101 80z" />
    <glyph glyph-name="jcircumflex" unicode="&#x135;" horiz-adv-x="250" 
d="M170 499v-530q0 -98 -44 -139q-45 -42 -169 -64l-13 73q82 21 107 41q29 24 29 91v528h90zM36 566l-76 6l128 177h77l126 -177l-76 -5l-90 107z" />
    <glyph glyph-name="Kcommaaccent" unicode="&#x136;" horiz-adv-x="622" 
d="M190 0h-93v706h93v-298h106l206 300l100 -5l-234 -334l250 -366l-104 -5l-225 327h-99v-325zM281 -287l-49 31q65 78 65 196h88q0 -140 -104 -227z" />
    <glyph glyph-name="kcommaaccent" unicode="&#x137;" horiz-adv-x="523" 
d="M170 0h-90v747h90v-432h80l148 186l96 -5l-176 -214l199 -279l-104 -5l-171 240h-72v-238zM235 -287l-49 31q65 78 65 196h88q0 -140 -104 -227z" />
    <glyph glyph-name="kgreenlandic" unicode="&#x138;" horiz-adv-x="523" 
d="M170 0h-90v498h90v-190h80l148 193l96 -5l-176 -222l199 -271l-104 -5l-171 232h-72v-230z" />
    <glyph glyph-name="Lacute" unicode="&#x139;" horiz-adv-x="550" 
d="M525 0h-428v706h93v-622h335v-84zM145 759l-87 6l168 149l121 -9z" />
    <glyph glyph-name="lacute" unicode="&#x13a;" horiz-adv-x="271" 
d="M250 -6q-116 4 -150 53q-20 29 -20 100v601h90v-591q0 -47 13 -64q15 -20 75 -29zM123 784l-87 6l168 149l121 -9z" />
    <glyph glyph-name="Lcommaaccent" unicode="&#x13b;" horiz-adv-x="550" 
d="M525 0h-428v706h93v-622h335v-84zM255 -287l-49 31q65 78 65 196h88q0 -140 -104 -227z" />
    <glyph glyph-name="lcommaaccent" unicode="&#x13c;" horiz-adv-x="271" 
d="M250 -6q-116 4 -150 53q-20 29 -20 100v601h90v-591q0 -47 13 -64q15 -20 75 -29zM106 -287l-49 31q65 78 65 196h88q0 -140 -104 -227z" />
    <glyph glyph-name="Lcaron" unicode="&#x13d;" horiz-adv-x="550" 
d="M525 0h-428v706h93v-622h335v-84zM305 499l-49 32q65 78 65 196h88q0 -139 -104 -228z" />
    <glyph glyph-name="lcaron" unicode="&#x13e;" horiz-adv-x="271" 
d="M250 -6q-116 4 -150 53q-20 29 -20 100v601h90v-591q0 -47 13 -64q15 -20 75 -29zM260 525l-49 32q65 78 65 196h88q0 -139 -104 -228z" />
    <glyph glyph-name="Ldot" unicode="&#x13f;" horiz-adv-x="550" 
d="M465 349q0 -60 -58 -60q-24 0 -40.5 13.5t-16.5 46.5q0 60 58 60q57 0 57 -60zM525 0h-428v706h93v-622h335v-84z" />
    <glyph glyph-name="ldot" unicode="&#x140;" horiz-adv-x="368" 
d="M362 349q0 -58 -55 -58q-54 0 -54 58t55 58q54 0 54 -58zM250 -6q-116 4 -150 53q-20 29 -20 100v601h90v-591q0 -47 13 -64q15 -20 75 -29z" />
    <glyph glyph-name="Lslash" unicode="&#x141;" horiz-adv-x="550" 
d="M525 0h-428v237l-57 -39l-39 64l96 66v378h93v-313l153 106l40 -63l-193 -134v-218h335v-84z" />
    <glyph glyph-name="lslash" unicode="&#x142;" horiz-adv-x="271" 
d="M250 -6q-116 4 -150 53q-20 29 -20 100v137l-52 -34l-34 59l86 57v382h90v-322l63 42l36 -59l-99 -65v-187q0 -47 13 -64q15 -20 75 -29z" />
    <glyph glyph-name="Nacute" unicode="&#x143;" horiz-adv-x="723" 
d="M188 0h-91v706h128q282 -499 313 -572q-2 82 -2 572h90v-706h-115q-279 502 -325 594q2 -170 2 -594zM365 759l-87 6l168 149l121 -9z" />
    <glyph glyph-name="nacute" unicode="&#x144;" horiz-adv-x="577" 
d="M170 0h-90v466q108 47 258 47q71 0 104 -15t45 -47q10 -27 10 -98v-353h-90v336q0 44 -6 62q-12 36 -85 36q-80 0 -146 -21v-413zM286 576l-82 5l129 178l116 -5z" />
    <glyph glyph-name="Ncommaaccent" unicode="&#x145;" horiz-adv-x="723" 
d="M188 0h-91v706h128q282 -499 313 -572q-2 82 -2 572h90v-706h-115q-279 502 -325 594q2 -170 2 -594zM314 -287l-49 31q65 78 65 196h88q0 -140 -104 -227z" />
    <glyph glyph-name="ncommaaccent" unicode="&#x146;" horiz-adv-x="577" 
d="M170 0h-90v466q108 47 258 47q71 0 104 -15t45 -47q10 -27 10 -98v-353h-90v336q0 44 -6 62q-12 36 -85 36q-80 0 -146 -21v-413zM247 -287l-49 31q65 78 65 196h88q0 -140 -104 -227z" />
    <glyph glyph-name="Ncaron" unicode="&#x147;" horiz-adv-x="723" 
d="M188 0h-91v706h128q282 -499 313 -572q-2 82 -2 572h90v-706h-115q-279 502 -325 594q2 -170 2 -594zM467 912l81 -7l-145 -149h-77l-141 149l81 6l101 -80z" />
    <glyph glyph-name="ncaron" unicode="&#x148;" horiz-adv-x="577" 
d="M170 0h-90v466q108 47 258 47q71 0 104 -15t45 -47q10 -27 10 -98v-353h-90v336q0 44 -6 62q-12 36 -85 36q-80 0 -146 -21v-413zM373 753l76 -6l-128 -177h-77l-126 177l76 5l90 -107z" />
    <glyph glyph-name="napostrophe" unicode="&#x149;" horiz-adv-x="577" 
d="M170 0h-90v466q108 47 258 47q71 0 104 -15t45 -47q10 -27 10 -98v-353h-90v336q0 44 -6 62q-12 36 -85 36q-80 0 -146 -21v-413zM76 559l-49 31q65 78 65 196h88q0 -140 -104 -227z" />
    <glyph glyph-name="Eng" unicode="&#x14a;" horiz-adv-x="723" 
d="M188 0h-91v706h128q282 -462 313 -525q-2 84 -2 525h90v-708q0 -102 -33 -144q-50 -60 -186 -77l-11 75q93 24 116 50q21 21 21 80v21q-279 467 -347 591q2 -170 2 -594z" />
    <glyph glyph-name="eng" unicode="&#x14b;" horiz-adv-x="577" 
d="M170 0h-90v466q108 47 258 47q71 0 104 -15t45 -47q10 -27 10 -98v-366q0 -110 -30 -148q-42 -55 -178 -74l-11 76q88 21 111 48q18 21 18 86v361q0 44 -6 62q-12 36 -85 36q-80 0 -146 -21v-413z" />
    <glyph glyph-name="Omacron" unicode="&#x14c;" horiz-adv-x="696" 
d="M639 358q0 -145 -33 -227t-95 -113t-167 -31q-76 0 -127 16.5t-88.5 58t-54.5 114t-17 181.5t21.5 182.5t63.5 111.5t91.5 53t118.5 15q62 0 104.5 -8t79.5 -30.5t58 -62.5t33 -104t12 -156zM542 356q0 90 -10 145.5t-34.5 85.5t-58.5 40.5t-90 10.5q-51 0 -84.5 -11.5
t-60 -41.5t-39 -86t-12.5 -142q0 -91 12 -149t38 -88t59 -41t84 -11t83.5 10t60 39.5t40 88t12.5 150.5zM503 788h-297v74h297v-74z" />
    <glyph glyph-name="omacron" unicode="&#x14d;" horiz-adv-x="550" 
d="M499 254q0 -153 -52 -210t-175 -57q-80 0 -126 21.5t-70.5 79.5t-24.5 163q0 79 16 132t48.5 80.5t71 38.5t92.5 11q61 0 98.5 -9t67 -36t42 -79t12.5 -135zM409 249q0 114 -27.5 149.5t-104.5 35.5q-71 0 -103 -37.5t-32 -143.5q0 -79 14.5 -120t41 -54.5t76.5 -13.5
q37 0 59.5 6t41 25t26.5 56t8 97zM420 607h-279v74h279v-74z" />
    <glyph glyph-name="Obreve" unicode="&#x14e;" horiz-adv-x="696" 
d="M639 358q0 -145 -33 -227t-95 -113t-167 -31q-76 0 -127 16.5t-88.5 58t-54.5 114t-17 181.5t21.5 182.5t63.5 111.5t91.5 53t118.5 15q62 0 104.5 -8t79.5 -30.5t58 -62.5t33 -104t12 -156zM542 356q0 90 -10 145.5t-34.5 85.5t-58.5 40.5t-90 10.5q-51 0 -84.5 -11.5
t-60 -41.5t-39 -86t-12.5 -142q0 -91 12 -149t38 -88t59 -41t84 -11t83.5 10t60 39.5t40 88t12.5 150.5zM444 909l62 -3q-2 -148 -156 -148q-151 0 -151 148l63 3q4 -43 24.5 -62.5t63.5 -19.5t65 18.5t29 63.5z" />
    <glyph glyph-name="obreve" unicode="&#x14f;" horiz-adv-x="550" 
d="M499 254q0 -153 -52 -210t-175 -57q-80 0 -126 21.5t-70.5 79.5t-24.5 163q0 79 16 132t48.5 80.5t71 38.5t92.5 11q61 0 98.5 -9t67 -36t42 -79t12.5 -135zM409 249q0 114 -27.5 149.5t-104.5 35.5q-71 0 -103 -37.5t-32 -143.5q0 -79 14.5 -120t41 -54.5t76.5 -13.5
q37 0 59.5 6t41 25t26.5 56t8 97zM366 731l61 -3q0 -72 -36 -114t-114 -42q-145 0 -145 156l63 3q3 -48 22 -69t61 -21q41 0 61.5 20t26.5 70z" />
    <glyph glyph-name="Ohungarumlaut" unicode="&#x150;" horiz-adv-x="696" 
d="M639 358q0 -145 -33 -227t-95 -113t-167 -31q-76 0 -127 16.5t-88.5 58t-54.5 114t-17 181.5t21.5 182.5t63.5 111.5t91.5 53t118.5 15q62 0 104.5 -8t79.5 -30.5t58 -62.5t33 -104t12 -156zM542 356q0 90 -10 145.5t-34.5 85.5t-58.5 40.5t-90 10.5q-51 0 -84.5 -11.5
t-60 -41.5t-39 -86t-12.5 -142q0 -91 12 -149t38 -88t59 -41t84 -11t83.5 10t60 39.5t40 88t12.5 150.5zM270 759l-80 5l156 149l111 -8zM465 759l-80 5l156 149l111 -8z" />
    <glyph glyph-name="ohungarumlaut" unicode="&#x151;" horiz-adv-x="550" 
d="M499 254q0 -153 -52 -210t-175 -57q-80 0 -126 21.5t-70.5 79.5t-24.5 163q0 79 16 132t48.5 80.5t71 38.5t92.5 11q61 0 98.5 -9t67 -36t42 -79t12.5 -135zM409 249q0 114 -27.5 149.5t-104.5 35.5q-71 0 -103 -37.5t-32 -143.5q0 -79 14.5 -120t41 -54.5t76.5 -13.5
q37 0 59.5 6t41 25t26.5 56t8 97zM203 577l-74 4l120 176l105 -5zM371 577l-74 4l121 176l104 -5z" />
    <glyph glyph-name="OE" unicode="&#x152;" horiz-adv-x="956" 
d="M922 0h-428q-63 -11 -155 -11q-97 0 -156.5 30.5t-92.5 110.5t-33 217q0 203 69.5 286.5t229.5 83.5q81 0 138 -11h412v-84h-319v-213h291v-84h-291v-241h335v-84zM494 83v541q-55 9 -135 9q-66 0 -108 -18.5t-63 -58t-28 -85t-7 -114.5q0 -57 4 -96.5t16 -77t33 -60
t56.5 -36t85.5 -13.5q89 0 146 9z" />
    <glyph glyph-name="oe" unicode="&#x153;" horiz-adv-x="876" 
d="M452 73q-23 -48 -65.5 -67t-114.5 -19q-80 0 -126 21.5t-70.5 79.5t-24.5 163q0 79 16 132t48.5 80.5t71 38.5t92.5 11q74 0 116.5 -18.5t63.5 -69.5q50 88 178 88q63 0 102.5 -17t58.5 -53t25 -74.5t6 -99.5q0 -22 -3 -43h-327q1 -97 39 -128.5t116 -31.5q80 0 149 15
l11 -68q-73 -26 -174 -26q-73 0 -118.5 20.5t-69.5 65.5zM409 249q0 114 -27.5 149.5t-104.5 35.5q-70 0 -102.5 -37.5t-32.5 -143.5q0 -79 14.5 -120t41 -54.5t76.5 -13.5q37 0 59.5 6t41 25t26.5 56t8 97zM500 297h244q1 5 1 18q0 63 -24 93t-89 30q-68 0 -99 -35
t-33 -106z" />
    <glyph glyph-name="Racute" unicode="&#x154;" horiz-adv-x="624" 
d="M190 0h-93v703q67 5 184 5q124 0 185 -24q102 -40 102 -178q0 -153 -130 -192l169 -313l-102 -2l-157 300q-19 -2 -61 -2h-97v-297zM190 375h101q77 0 119 16q62 24 62 110q0 49 -15 74t-45 37q-37 15 -119 15q-60 0 -103 -2v-250zM308 759l-87 6l168 149l121 -9z" />
    <glyph glyph-name="racute" unicode="&#x155;" horiz-adv-x="371" 
d="M170 0h-90v466q90 45 204 45q50 0 69 -4l-6 -79q-34 2 -56 2q-77 0 -121 -18v-412zM218 576l-82 5l129 178l116 -5z" />
    <glyph glyph-name="Rcommaaccent" unicode="&#x156;" horiz-adv-x="624" 
d="M190 0h-93v703q67 5 184 5q124 0 185 -24q102 -40 102 -178q0 -153 -130 -192l169 -313l-102 -2l-157 300q-19 -2 -61 -2h-97v-297zM190 375h101q77 0 119 16q62 24 62 110q0 49 -15 74t-45 37q-37 15 -119 15q-60 0 -103 -2v-250zM272 -287l-49 31q65 78 65 196h88
q0 -140 -104 -227z" />
    <glyph glyph-name="rcommaaccent" unicode="&#x157;" horiz-adv-x="371" 
d="M170 0h-90v466q90 45 204 45q50 0 69 -4l-6 -79q-34 2 -56 2q-77 0 -121 -18v-412zM68 -287l-49 31q65 78 65 196h88q0 -140 -104 -227z" />
    <glyph glyph-name="Rcaron" unicode="&#x158;" horiz-adv-x="624" 
d="M190 0h-93v703q67 5 184 5q124 0 185 -24q102 -40 102 -178q0 -153 -130 -192l169 -313l-102 -2l-157 300q-19 -2 -61 -2h-97v-297zM190 375h101q77 0 119 16q62 24 62 110q0 49 -15 74t-45 37q-37 15 -119 15q-60 0 -103 -2v-250zM404 912l81 -7l-145 -149h-77l-141 149
l81 6l101 -80z" />
    <glyph glyph-name="rcaron" unicode="&#x159;" horiz-adv-x="371" 
d="M170 0h-90v466q90 45 204 45q50 0 69 -4l-6 -79q-34 2 -56 2q-77 0 -121 -18v-412zM305 753l76 -6l-128 -177h-77l-126 177l76 5l90 -107z" />
    <glyph glyph-name="Sacute" unicode="&#x15a;" horiz-adv-x="569" 
d="M351 383q93 -27 130 -66.5t37 -120.5q0 -102 -58 -155.5t-193 -53.5q-123 0 -218 35l17 77q101 -30 203 -30q50 0 82.5 10.5t47 29.5t19 36t4.5 41q0 42 -23 68t-100 47l-94 26q-75 21 -111.5 66t-36.5 121q0 100 58 152.5t188 52.5q105 0 184 -22l-12 -78
q-90 18 -176 18t-116 -29t-30 -85q0 -41 20.5 -67t86.5 -46zM283 759l-87 6l168 149l121 -9z" />
    <glyph glyph-name="sacute" unicode="&#x15b;" horiz-adv-x="438" 
d="M46 11l15 72q74 -19 153 -19q63 0 84.5 20.5t21.5 52.5q0 25 -14 39t-64 28l-77 22q-58 16 -86 48.5t-28 88.5q0 150 186 150q83 0 145 -16l-10 -71q-67 10 -135 10q-59 0 -78 -18t-19 -51q0 -26 12.5 -39.5t54.5 -25.5l77 -22q66 -19 94.5 -49.5t28.5 -92.5
q0 -151 -194 -151q-99 0 -167 24zM232 576l-82 5l129 178l116 -5z" />
    <glyph glyph-name="Scircumflex" unicode="&#x15c;" horiz-adv-x="569" 
d="M351 383q93 -27 130 -66.5t37 -120.5q0 -102 -58 -155.5t-193 -53.5q-123 0 -218 35l17 77q101 -30 203 -30q50 0 82.5 10.5t47 29.5t19 36t4.5 41q0 42 -23 68t-100 47l-94 26q-75 21 -111.5 66t-36.5 121q0 100 58 152.5t188 52.5q105 0 184 -22l-12 -78
q-90 18 -176 18t-116 -29t-30 -85q0 -41 20.5 -67t86.5 -46zM188 753l-81 7l145 148h77l141 -148l-81 -6l-101 80z" />
    <glyph glyph-name="scircumflex" unicode="&#x15d;" horiz-adv-x="438" 
d="M46 11l15 72q74 -19 153 -19q63 0 84.5 20.5t21.5 52.5q0 25 -14 39t-64 28l-77 22q-58 16 -86 48.5t-28 88.5q0 150 186 150q83 0 145 -16l-10 -71q-67 10 -135 10q-59 0 -78 -18t-19 -51q0 -26 12.5 -39.5t54.5 -25.5l77 -22q66 -19 94.5 -49.5t28.5 -92.5
q0 -151 -194 -151q-99 0 -167 24zM138 566l-76 6l128 177h77l126 -177l-76 -5l-90 107z" />
    <glyph glyph-name="Scedilla" unicode="&#x15e;" horiz-adv-x="569" 
d="M179 -248l12 59q24 -4 62 -4q53 0 53 38q0 21 -11.5 30t-42.5 9q-27 0 -39 -1l21 105q-108 5 -185 34l17 77q101 -30 203 -30q50 0 82.5 10.5t47 29.5t19 36t4.5 41q0 42 -23 68t-100 47l-94 26q-75 21 -111.5 66t-36.5 121q0 100 58 152.5t188 52.5q105 0 184 -22
l-12 -78q-90 18 -176 18t-116 -29t-30 -85q0 -41 20.5 -67t86.5 -46l91 -27q93 -27 130 -66.5t37 -120.5q0 -97 -52 -150t-172 -58l-8 -46q60 -3 80.5 -27.5t20.5 -67.5q0 -103 -137 -103q-42 0 -71 8z" />
    <glyph glyph-name="scedilla" unicode="&#x15f;" horiz-adv-x="438" 
d="M227 -56q57 -3 75.5 -26t18.5 -64q0 -47 -28 -73.5t-100 -26.5q-40 0 -67 8l11 56q26 -3 57 -3q50 0 50 36q0 21 -11.5 29.5t-40.5 8.5q-23 0 -35 -1l20 100q-80 4 -131 23l15 72q74 -19 153 -19q63 0 84.5 20.5t21.5 52.5q0 25 -14 39t-64 28l-77 22q-58 16 -86 48.5
t-28 88.5q0 150 186 150q83 0 145 -16l-10 -71q-67 10 -135 10q-59 0 -78 -18t-19 -51q0 -26 12.5 -39.5t54.5 -25.5l77 -22q66 -19 94.5 -49.5t28.5 -92.5q0 -142 -173 -150z" />
    <glyph glyph-name="Scaron" unicode="&#x160;" horiz-adv-x="569" 
d="M351 383q93 -27 130 -66.5t37 -120.5q0 -102 -58 -155.5t-193 -53.5q-123 0 -218 35l17 77q101 -30 203 -30q50 0 82.5 10.5t47 29.5t19 36t4.5 41q0 42 -23 68t-100 47l-94 26q-75 21 -111.5 66t-36.5 121q0 100 58 152.5t188 52.5q105 0 184 -22l-12 -78
q-90 18 -176 18t-116 -29t-30 -85q0 -41 20.5 -67t86.5 -46zM387 912l81 -7l-145 -149h-77l-141 149l81 6l101 -80z" />
    <glyph glyph-name="scaron" unicode="&#x161;" horiz-adv-x="438" 
d="M46 11l15 72q74 -19 153 -19q63 0 84.5 20.5t21.5 52.5q0 25 -14 39t-64 28l-77 22q-58 16 -86 48.5t-28 88.5q0 150 186 150q83 0 145 -16l-10 -71q-67 10 -135 10q-59 0 -78 -18t-19 -51q0 -26 12.5 -39.5t54.5 -25.5l77 -22q66 -19 94.5 -49.5t28.5 -92.5
q0 -151 -194 -151q-99 0 -167 24zM317 753l76 -6l-128 -177h-77l-126 177l76 5l90 -107z" />
    <glyph glyph-name="uni0162" unicode="&#x162;" horiz-adv-x="585" 
d="M204 -248l12 59q24 -4 62 -4q53 0 53 38q0 21 -11.5 30t-42.5 9q-27 0 -39 -1l24 117h-18v622h-215v84h526v-84h-217v-622h-17l-10 -58q60 -3 80.5 -27.5t20.5 -67.5q0 -103 -137 -103q-42 0 -71 8z" />
    <glyph glyph-name="uni0163" unicode="&#x163;" horiz-adv-x="341" 
d="M226 -56q57 -3 75.5 -26t18.5 -64q0 -47 -28 -73.5t-100 -26.5q-40 0 -67 8l11 56q26 -3 57 -3q50 0 50 36q0 21 -11.5 29.5t-40.5 8.5q-23 0 -35 -1l24 122q-27 12 -43 32q-19 24 -25.5 55.5t-6.5 90.5v233h-80v73l82 5q0 60 3 136h85v-136h128v-78h-128v-235
q0 -66 16 -87q11 -16 35.5 -23.5t79.5 -12.5l-7 -71q-59 2 -84 5z" />
    <glyph glyph-name="Tcaron" unicode="&#x164;" horiz-adv-x="585" 
d="M333 0h-94v622h-215v84h526v-84h-217v-622zM385 912l81 -7l-145 -149h-77l-141 149l81 6l101 -80z" />
    <glyph glyph-name="tcaron" unicode="&#x165;" horiz-adv-x="341" 
d="M319 -8q-81 2 -120.5 12.5t-61.5 37.5q-19 24 -25.5 55.5t-6.5 90.5v233h-80v73l82 5q0 60 3 136h85v-136h128v-78h-128v-235q0 -66 16 -87q11 -16 35.5 -23.5t79.5 -12.5zM278 538l-49 32q65 78 65 196h88q0 -139 -104 -228z" />
    <glyph glyph-name="Tbar" unicode="&#x166;" horiz-adv-x="585" 
d="M339 0h-94v351h-148v75h148v196h-215v84h526v-84h-217v-196h151v-75h-151v-351z" />
    <glyph glyph-name="tbar" unicode="&#x167;" horiz-adv-x="341" 
d="M319 -8q-81 2 -120.5 12.5t-61.5 37.5q-19 24 -25.5 55.5t-6.5 90.5v76h-75v68h75v89h-80v73l82 5q0 60 3 136h85v-136h128v-78h-128v-89h112v-68h-112v-78q0 -66 16 -87q11 -16 35.5 -23.5t79.5 -12.5z" />
    <glyph glyph-name="Utilde" unicode="&#x168;" horiz-adv-x="694" 
d="M604 706v-424q0 -82 -5.5 -125.5t-23.5 -74.5q-55 -96 -233 -96q-181 0 -230 106q-22 48 -22 188v426h93v-454q0 -95 22 -129q35 -55 142 -55q113 0 144 52q23 38 23 129v457h90zM242 765l-65 9q11 55 37.5 86.5t64.5 31.5q29 0 79 -25q44 -22 61 -22t26.5 11t19.5 43
l66 -8q-22 -122 -99 -122q-32 0 -85 24q-45 22 -61 22q-14 0 -24.5 -11t-19.5 -39z" />
    <glyph glyph-name="utilde" unicode="&#x169;" horiz-adv-x="577" 
d="M497 25q-96 -38 -245 -38q-127 0 -156 62q-16 32 -16 102v348h90v-332q0 -47 8 -66q14 -36 91 -36q88 0 138 13v421h90v-474zM186 593l-64 9q12 55 38 87t61 32q27 0 76 -25q42 -22 58 -22q17 0 26 11t18 43l64 -8q-12 -60 -33 -91.5t-62 -31.5q-33 0 -82 24
q-48 23 -58 23q-26 0 -42 -51z" />
    <glyph glyph-name="Umacron" unicode="&#x16a;" horiz-adv-x="694" 
d="M604 706v-424q0 -82 -5.5 -125.5t-23.5 -74.5q-55 -96 -233 -96q-181 0 -230 106q-22 48 -22 188v426h93v-454q0 -95 22 -129q35 -55 142 -55q113 0 144 52q23 38 23 129v457h90zM499 788h-297v74h297v-74z" />
    <glyph glyph-name="umacron" unicode="&#x16b;" horiz-adv-x="577" 
d="M497 25q-96 -38 -245 -38q-127 0 -156 62q-16 32 -16 102v348h90v-332q0 -47 8 -66q14 -36 91 -36q88 0 138 13v421h90v-474zM430 607h-279v74h279v-74z" />
    <glyph glyph-name="Ubreve" unicode="&#x16c;" horiz-adv-x="694" 
d="M604 706v-424q0 -82 -5.5 -125.5t-23.5 -74.5q-55 -96 -233 -96q-181 0 -230 106q-22 48 -22 188v426h93v-454q0 -95 22 -129q35 -55 142 -55q113 0 144 52q23 38 23 129v457h90zM438 909l62 -3q-2 -148 -156 -148q-151 0 -151 148l63 3q4 -43 24.5 -62.5t63.5 -19.5
t65 18.5t29 63.5z" />
    <glyph glyph-name="ubreve" unicode="&#x16d;" horiz-adv-x="577" 
d="M497 25q-96 -38 -245 -38q-127 0 -156 62q-16 32 -16 102v348h90v-332q0 -47 8 -66q14 -36 91 -36q88 0 138 13v421h90v-474zM375 731l61 -3q0 -72 -36 -114t-114 -42q-145 0 -145 156l63 3q3 -48 22 -69t61 -21q41 0 61.5 20t26.5 70z" />
    <glyph glyph-name="Uring" unicode="&#x16e;" horiz-adv-x="694" 
d="M604 706v-424q0 -82 -5.5 -125.5t-23.5 -74.5q-55 -96 -233 -96q-181 0 -230 106q-22 48 -22 188v426h93v-454q0 -95 22 -129q35 -55 142 -55q113 0 144 52q23 38 23 129v457h90zM440 828q0 -44 -26 -68t-68 -24q-41 0 -65 24t-24 68t25 69t67 25t66.5 -24.5t24.5 -69.5z
M401 829q0 58 -54 58q-24 0 -39 -15t-15 -43q0 -27 15 -42.5t40 -15.5t39 15t14 43z" />
    <glyph glyph-name="uring" unicode="&#x16f;" horiz-adv-x="577" 
d="M497 25q-96 -38 -245 -38q-127 0 -156 62q-16 32 -16 102v348h90v-332q0 -47 8 -66q14 -36 91 -36q88 0 138 13v421h90v-474zM386 670q0 -45 -27 -70t-72 -25q-43 0 -69 25t-26 70q0 46 27 72t71 26q45 0 70.5 -26t25.5 -72zM346 672q0 61 -58 61q-26 0 -42 -16t-16 -46
q0 -29 16 -45.5t43 -16.5t42 16.5t15 46.5z" />
    <glyph glyph-name="Uhungarumlaut" unicode="&#x170;" horiz-adv-x="694" 
d="M604 706v-424q0 -82 -5.5 -125.5t-23.5 -74.5q-55 -96 -233 -96q-181 0 -230 106q-22 48 -22 188v426h93v-454q0 -95 22 -129q35 -55 142 -55q113 0 144 52q23 38 23 129v457h90zM249 759l-80 5l156 149l111 -8zM444 759l-80 5l156 149l111 -8z" />
    <glyph glyph-name="uhungarumlaut" unicode="&#x171;" horiz-adv-x="577" 
d="M497 25q-96 -38 -245 -38q-127 0 -156 62q-16 32 -16 102v348h90v-332q0 -47 8 -66q14 -36 91 -36q88 0 138 13v421h90v-474zM213 577l-74 4l120 176l105 -5zM381 577l-74 4l121 176l104 -5z" />
    <glyph glyph-name="Uogonek" unicode="&#x172;" horiz-adv-x="694" 
d="M604 706v-424q0 -82 -5.5 -125.5t-23.5 -74.5q-45 -80 -178 -93q-44 -31 -62.5 -56t-18.5 -61q0 -53 56 -53q28 0 58 5l9 -58q-35 -12 -85 -12q-117 0 -117 106q0 81 77 127q-158 7 -202 105q-22 48 -22 188v426h93v-454q0 -95 22 -129q35 -55 142 -55q113 0 144 52
q23 38 23 129v457h90z" />
    <glyph glyph-name="uogonek" unicode="&#x173;" horiz-adv-x="577" 
d="M460 13q-60 -41 -83.5 -68t-23.5 -66q0 -51 53 -51q31 0 55 4l9 -56q-32 -11 -81 -11q-111 0 -111 102q0 81 89 128q-46 -8 -115 -8q-127 0 -156 62q-16 32 -16 102v348h90v-332q0 -47 8 -66q14 -36 91 -36q88 0 138 13v421h90v-474q-18 -7 -37 -12z" />
    <glyph glyph-name="Wcircumflex" unicode="&#x174;" horiz-adv-x="926" 
d="M465 575q-55 -214 -162 -575h-121l-165 703l99 5q117 -515 137 -629q30 132 158 588h112q132 -478 155 -589q68 328 137 630l94 -5l-165 -703h-121q-93 330 -158 575zM371 753l-81 7l145 148h77l141 -148l-81 -6l-101 80z" />
    <glyph glyph-name="wcircumflex" unicode="&#x175;" horiz-adv-x="750" 
d="M262 0h-116l-132 495l97 6q85 -357 100 -428q43 160 112 398h109q89 -292 116 -398q12 65 98 428l90 -6l-127 -495h-115q-89 285 -117 397q-21 -92 -115 -397zM285 566l-76 6l128 177h77l126 -177l-76 -5l-90 107z" />
    <glyph glyph-name="Ycircumflex" unicode="&#x176;" horiz-adv-x="594" 
d="M344 0h-94v303l-244 400l108 5q138 -226 186 -313q47 84 187 313l101 -5l-244 -398v-305zM190 753l-81 7l145 148h77l141 -148l-81 -6l-101 80z" />
    <glyph glyph-name="ycircumflex" unicode="&#x177;" horiz-adv-x="577" 
d="M407 21q-63 -31 -171 -31q-120 0 -144 63q-12 32 -12 99v347h90v-330q0 -44 7 -64q13 -36 88 -36q94 0 142 29v401h90v-474q0 -90 -13 -126q-24 -69 -124 -101q-90 -28 -213 -32l-4 76q133 15 185 31.5t66 46.5q13 27 13 80v21zM204 566l-76 6l128 177h77l126 -177
l-76 -5l-90 107z" />
    <glyph glyph-name="Ydieresis" unicode="&#x178;" horiz-adv-x="594" 
d="M344 0h-94v303l-244 400l108 5q138 -226 186 -313q47 84 187 313l101 -5l-244 -398v-305zM255 824q0 -55 -51 -55q-50 0 -50 54t50 54q51 0 51 -53zM449 824q0 -55 -51 -55t-51 54t51 54t51 -53z" />
    <glyph glyph-name="Zacute" unicode="&#x179;" horiz-adv-x="605" 
d="M575 0h-549v81q347 453 418 541h-386v84h497v-82q-300 -394 -415 -540h435v-84zM309 759l-87 6l168 149l121 -9z" />
    <glyph glyph-name="zacute" unicode="&#x17a;" horiz-adv-x="482" 
d="M451 0h-422v69q177 210 297 349h-279v81h396v-70q-224 -263 -300 -348h308v-81zM263 576l-82 5l129 178l116 -5z" />
    <glyph glyph-name="Zdotaccent" unicode="&#x17b;" horiz-adv-x="605" 
d="M575 0h-549v81q347 453 418 541h-386v84h497v-82q-300 -394 -415 -540h435v-84zM366 824q0 -55 -51 -55q-50 0 -50 54t50 54q51 0 51 -53z" />
    <glyph glyph-name="zdotaccent" unicode="&#x17c;" horiz-adv-x="482" 
d="M451 0h-422v69q177 210 297 349h-279v81h396v-70q-224 -263 -300 -348h308v-81zM306 660q0 -54 -51 -54t-51 53q0 54 51 54t51 -53z" />
    <glyph glyph-name="Zcaron" unicode="&#x17d;" horiz-adv-x="605" 
d="M575 0h-549v81q347 453 418 541h-386v84h497v-82q-300 -394 -415 -540h435v-84zM407 912l81 -7l-145 -149h-77l-141 149l81 6l101 -80z" />
    <glyph glyph-name="zcaron" unicode="&#x17e;" horiz-adv-x="482" 
d="M451 0h-422v69q177 210 297 349h-279v81h396v-70q-224 -263 -300 -348h308v-81zM332 753l76 -6l-128 -177h-77l-126 177l76 5l90 -107z" />
    <glyph glyph-name="longs" unicode="&#x17f;" horiz-adv-x="250" 
d="M170 0h-90v565q0 94 46 135q27 25 69.5 35.5t119.5 14.5l5 -72q-62 -7 -90.5 -15.5t-42.5 -26.5q-17 -24 -17 -75v-561z" />
    <glyph glyph-name="florin" unicode="&#x192;" horiz-adv-x="482" 
d="M420 368h-134l-26 -306q-9 -106 -50 -144q-43 -39 -128 -39q-40 0 -78 10l13 75q23 -5 61 -5q45 0 66 24q19 26 24 89l26 296h-97v75h104l6 68q8 98 50 140q39 38 125 38q57 0 90 -11l-12 -74q-42 6 -68 6q-53 0 -71 -27q-18 -26 -23 -85l-5 -55h127v-75z" />
    <glyph glyph-name="Aringacute" unicode="&#x1fa;" horiz-adv-x="616" 
d="M391 757q0 -36 -21 -59l242 -696l-102 -4l-71 212h-263l-74 -212l-97 4l244 696q-19 22 -19 59q0 40 22 62t59 22t58.5 -22t21.5 -62zM201 292h215q-84 248 -106 325q-29 -93 -109 -325zM326 856l-73 6l127 123l93 -8zM356 759q0 49 -47 49q-21 0 -33.5 -13t-12.5 -37
t13 -37.5t34 -13.5q46 0 46 52z" />
    <glyph glyph-name="aringacute" unicode="&#x1fb;" horiz-adv-x="527" 
d="M367 670q0 -45 -27 -70t-71 -25q-43 0 -68.5 24.5t-25.5 70.5t26.5 72t70.5 26t69.5 -26t25.5 -72zM329 672q0 30 -15.5 46t-43.5 16q-27 0 -43 -16t-16 -47q0 -29 16.5 -45.5t43.5 -16.5t42.5 16.5t15.5 46.5zM446 23q-80 -36 -218 -36q-102 0 -141.5 43.5t-39.5 116.5
q0 83 58 119q46 28 150 28q65 0 103 -3v42q0 37 -7 59q-8 20 -30.5 31t-78.5 11q-82 0 -142 -8l-8 71q82 16 175 16q109 0 146 -40q33 -36 33 -132v-318zM358 74v154q-44 2 -92 2q-79 0 -108 -21q-24 -19 -24 -61q0 -43 22.5 -66t82.5 -23q70 0 119 15zM281 795l-72 8
l130 172l99 -9z" />
    <glyph glyph-name="AEacute" unicode="&#x1fc;" horiz-adv-x="962" 
d="M113 -2l-112 5l448 703h463v-84h-319v-213h291v-84h-291v-241h335v-84h-428v219h-246zM298 301h202v317q-61 -101 -202 -317zM636 759l-87 6l168 149l121 -9z" />
    <glyph glyph-name="aeacute" unicode="&#x1fd;" horiz-adv-x="825" 
d="M412 47q-67 -60 -187 -60q-98 0 -138 42.5t-40 118.5q0 85 59 119q48 27 160 29q62 0 92 -1v38q0 44 -7 61q-16 40 -103 40q-102 0 -148 -8l-7 71q79 16 174 16q68 0 104 -16.5t47 -60.5q21 37 66 57t100 20q51 0 87 -12t57 -32t32 -54.5t14.5 -69.5t3.5 -87
q0 -17 -2 -33h-329q0 -90 36.5 -124.5t112.5 -34.5q90 0 155 15l12 -69q-70 -25 -176 -25q-122 0 -175 60zM358 226q-44 2 -83 2q-92 -1 -118 -23q-23 -17 -23 -57q0 -43 23.5 -66t84.5 -23q86 0 138 40q-22 46 -22 127zM448 297h244q1 2 1 18q0 65 -24.5 94t-87.5 29
q-69 0 -100 -34t-33 -107zM438 576l-82 5l129 178l116 -5z" />
    <glyph glyph-name="Oslashacute" unicode="&#x1fe;" horiz-adv-x="696" 
d="M93 -33l-42 31l62 85q-55 85 -55 274q0 109 21.5 182.5t63.5 111.5t92 53t119 15q132 0 190 -43l53 72l42 -30l-58 -79q59 -82 59 -281q0 -145 -33 -227t-95 -113t-167 -31q-134 0 -197 55zM544 356q0 135 -26 196l-314 -433q41 -51 143 -51q51 0 83.5 10t60.5 39.5
t40.5 88t12.5 150.5zM154 357q0 -120 23 -186l311 428q-39 39 -138 39q-51 0 -84.5 -11.5t-60 -41.5t-39 -86t-12.5 -142zM354 759l-87 6l168 149l121 -9z" />
    <glyph glyph-name="oslashacute" unicode="&#x1ff;" horiz-adv-x="550" 
d="M96 -42l-39 28l43 60q-50 61 -50 205q0 79 17 132.5t50.5 81t72.5 38t93 10.5q95 0 140 -25l49 68l39 -28l-51 -70q48 -57 48 -204q0 -105 -26.5 -164t-74.5 -81t-130 -22q-90 0 -139 28zM420 249q0 90 -17 131l-216 -297q27 -20 91 -20q38 0 62 6t43.5 25t28 57t8.5 98z
M139 253q0 -88 18 -130l215 295q-29 18 -91 18q-76 0 -109 -37.5t-33 -145.5zM277 576l-82 5l129 178l116 -5z" />
    <glyph glyph-name="uni0218" unicode="&#x218;" horiz-adv-x="569" 
d="M351 383q93 -27 130 -66.5t37 -120.5q0 -102 -58 -155.5t-193 -53.5q-123 0 -218 35l17 77q101 -30 203 -30q50 0 82.5 10.5t47 29.5t19 36t4.5 41q0 42 -23 68t-100 47l-94 26q-75 21 -111.5 66t-36.5 121q0 100 58 152.5t188 52.5q105 0 184 -22l-12 -78
q-90 18 -176 18t-116 -29t-30 -85q0 -41 20.5 -67t86.5 -46zM235 -287l-49 31q65 78 65 196h88q0 -140 -104 -227z" />
    <glyph glyph-name="uni0219" unicode="&#x219;" horiz-adv-x="438" 
d="M46 11l15 72q74 -19 153 -19q63 0 84.5 20.5t21.5 52.5q0 25 -14 39t-64 28l-77 22q-58 16 -86 48.5t-28 88.5q0 150 186 150q83 0 145 -16l-10 -71q-67 10 -135 10q-59 0 -78 -18t-19 -51q0 -26 12.5 -39.5t54.5 -25.5l77 -22q66 -19 94.5 -49.5t28.5 -92.5
q0 -151 -194 -151q-99 0 -167 24zM177 -287l-49 31q65 78 65 196h88q0 -140 -104 -227z" />
    <glyph glyph-name="uni021A" unicode="&#x21a;" horiz-adv-x="585" 
d="M333 0h-94v622h-215v84h526v-84h-217v-622zM229 -287l-49 31q65 78 65 196h88q0 -140 -104 -227z" />
    <glyph glyph-name="uni021B" unicode="&#x21b;" horiz-adv-x="341" 
d="M319 -8q-81 2 -120.5 12.5t-61.5 37.5q-19 24 -25.5 55.5t-6.5 90.5v233h-80v73l82 5q0 60 3 136h85v-136h128v-78h-128v-235q0 -66 16 -87q11 -16 35.5 -23.5t79.5 -12.5zM148 -287l-49 31q65 78 65 196h88q0 -140 -104 -227z" />
    <glyph glyph-name="circumflex" unicode="&#x2c6;" horiz-adv-x="197" 
d="M9 566l-76 6l128 177h77l126 -177l-76 -5l-90 107z" />
    <glyph glyph-name="caron" unicode="&#x2c7;" horiz-adv-x="197" 
d="M188 753l76 -6l-128 -177h-77l-126 177l76 5l90 -107z" />
    <glyph glyph-name="breve" unicode="&#x2d8;" horiz-adv-x="197" 
d="M186 731l61 -3q0 -72 -36 -114t-114 -42q-145 0 -145 156l63 3q3 -48 22 -69t61 -21q41 0 61.5 20t26.5 70z" />
    <glyph glyph-name="dotaccent" unicode="&#x2d9;" horiz-adv-x="197" 
d="M150 660q0 -54 -51 -54t-51 53q0 54 51 54t51 -53z" />
    <glyph glyph-name="ring" unicode="&#x2da;" horiz-adv-x="197" 
d="M195 670q0 -45 -27 -70t-72 -25q-43 0 -69 25t-26 70q0 46 27 72t71 26q45 0 70.5 -26t25.5 -72zM155 672q0 61 -58 61q-26 0 -42 -16t-16 -46q0 -29 16 -45.5t43 -16.5t42 16.5t15 46.5z" />
    <glyph glyph-name="ogonek" unicode="&#x2db;" horiz-adv-x="197" 
d="M187 7q-58 -39 -81 -65t-23 -64q0 -50 53 -50q31 0 55 4l9 -56q-32 -11 -81 -11q-111 0 -111 102q0 53 28.5 83.5t82.5 56.5h68z" />
    <glyph glyph-name="tilde" unicode="&#x2dc;" horiz-adv-x="197" 
d="M-7 593l-64 9q12 55 38 87t61 32q27 0 76 -25q42 -22 58 -22q17 0 26 11t18 43l64 -8q-12 -60 -33 -91.5t-62 -31.5q-33 0 -82 24q-48 23 -58 23q-26 0 -42 -51z" />
    <glyph glyph-name="hungarumlaut" unicode="&#x2dd;" horiz-adv-x="197" 
d="M-24 577l-74 4l120 176l105 -5zM144 577l-74 4l121 176l104 -5z" />
    <glyph glyph-name="uni0394" unicode="&#x394;" horiz-adv-x="697" 
d="M691 0h-684l294 706h99zM349 600q-22 -61 -213 -520h423q-199 491 -210 520z" />
    <glyph glyph-name="uni03A9" unicode="&#x3a9;" horiz-adv-x="742" 
d="M329 0h-261v82h185q-93 36 -136 107t-43 193q0 161 76 249t228 88q154 0 220.5 -85.5t66.5 -245.5q0 -116 -42.5 -191.5t-134.5 -114.5h186v-82h-261v100q49 24 79.5 50.5t53 84t22.5 143.5q0 131 -46 195t-147 64q-203 0 -203 -263q0 -65 12.5 -113.5t37 -79t48.5 -48.5
t59 -34v-99z" />
    <glyph glyph-name="uni03BC" unicode="&#x3bc;" horiz-adv-x="603" 
d="M181 -204h-90v703h89v-328q0 -48 8 -69q15 -38 94 -38q89 0 136 14v421h89v-474q-85 -38 -222 -38q-81 0 -104 29v-220z" />
    <glyph glyph-name="pi" unicode="&#x3c0;" horiz-adv-x="606" 
d="M211 0h-89v420h-64v79h513v-79h-65v-233q0 -108 23 -180l-85 -14q-25 59 -25 192v235h-208v-420z" />
    <glyph glyph-name="Wgrave" unicode="&#x1e80;" horiz-adv-x="926" 
d="M465 575q-55 -214 -162 -575h-121l-165 703l99 5q117 -515 137 -629q30 132 158 588h112q132 -478 155 -589q68 328 137 630l94 -5l-165 -703h-121q-93 330 -158 575zM559 765l-87 -6l-202 146l121 9z" />
    <glyph glyph-name="wgrave" unicode="&#x1e81;" horiz-adv-x="750" 
d="M262 0h-116l-132 495l97 6q85 -357 100 -428q43 160 112 398h109q89 -292 116 -398q12 65 98 428l90 -6l-127 -495h-115q-89 285 -117 397q-21 -92 -115 -397zM450 581l-80 -5l-163 177l114 6z" />
    <glyph glyph-name="Wacute" unicode="&#x1e82;" horiz-adv-x="926" 
d="M465 575q-55 -214 -162 -575h-121l-165 703l99 5q117 -515 137 -629q30 132 158 588h112q132 -478 155 -589q68 328 137 630l94 -5l-165 -703h-121q-93 330 -158 575zM473 759l-87 6l168 149l121 -9z" />
    <glyph glyph-name="wacute" unicode="&#x1e83;" horiz-adv-x="750" 
d="M262 0h-116l-132 495l97 6q85 -357 100 -428q43 160 112 398h109q89 -292 116 -398q12 65 98 428l90 -6l-127 -495h-115q-89 285 -117 397q-21 -92 -115 -397zM386 576l-82 5l129 178l116 -5z" />
    <glyph glyph-name="Wdieresis" unicode="&#x1e84;" horiz-adv-x="926" 
d="M465 575q-55 -214 -162 -575h-121l-165 703l99 5q117 -515 137 -629q30 132 158 588h112q132 -478 155 -589q68 328 137 630l94 -5l-165 -703h-121q-93 330 -158 575zM424 824q0 -55 -51 -55q-50 0 -50 54t50 54q51 0 51 -53zM618 824q0 -55 -51 -55t-51 54t51 54t51 -53
z" />
    <glyph glyph-name="wdieresis" unicode="&#x1e85;" horiz-adv-x="750" 
d="M262 0h-116l-132 495l97 6q85 -357 100 -428q43 160 112 398h109q89 -292 116 -398q12 65 98 428l90 -6l-127 -495h-115q-89 285 -117 397q-21 -92 -115 -397zM335 660q0 -54 -51 -54q-50 0 -50 53q0 54 50 54q51 0 51 -53zM519 660q0 -54 -51 -54t-51 53q0 54 51 54
t51 -53z" />
    <glyph glyph-name="Ygrave" unicode="&#x1ef2;" horiz-adv-x="594" 
d="M344 0h-94v303l-244 400l108 5q138 -226 186 -313q47 84 187 313l101 -5l-244 -398v-305zM379 765l-87 -6l-202 146l121 9z" />
    <glyph glyph-name="ygrave" unicode="&#x1ef3;" horiz-adv-x="577" 
d="M407 21q-63 -31 -171 -31q-120 0 -144 63q-12 32 -12 99v347h90v-330q0 -44 7 -64q13 -36 88 -36q94 0 142 29v401h90v-474q0 -90 -13 -126q-24 -69 -124 -101q-90 -28 -213 -32l-4 76q133 15 185 31.5t66 46.5q13 27 13 80v21zM375 581l-80 -5l-163 177l114 6z" />
    <glyph glyph-name="endash" unicode="&#x2013;" horiz-adv-x="547" 
d="M512 229h-477v78h477v-78z" />
    <glyph glyph-name="emdash" unicode="&#x2014;" horiz-adv-x="843" 
d="M808 229h-773v78h773v-78z" />
    <glyph glyph-name="quoteleft" unicode="&#x2018;" horiz-adv-x="209" 
d="M127 476h-93q2 176 115 280l53 -37q-35 -46 -54.5 -101t-20.5 -142z" />
    <glyph glyph-name="quoteright" unicode="&#x2019;" horiz-adv-x="209" 
d="M83 749h93q-2 -176 -116 -280l-52 37q35 46 54.5 101t20.5 142z" />
    <glyph glyph-name="quotesinglbase" unicode="&#x201a;" horiz-adv-x="210" 
d="M83 100h93q-1 -175 -116 -280l-52 38q35 46 54.5 100.5t20.5 141.5z" />
    <glyph glyph-name="quotedblleft" unicode="&#x201c;" horiz-adv-x="381" 
d="M298 476h-93q2 176 116 280l52 -37q-35 -46 -54.5 -101t-20.5 -142zM127 476h-93q2 176 115 280l53 -37q-35 -46 -54.5 -101t-20.5 -142z" />
    <glyph glyph-name="quotedblright" unicode="&#x201d;" horiz-adv-x="381" 
d="M83 749h93q-2 -176 -116 -280l-52 37q35 46 54.5 101t20.5 142zM254 749h93q-2 -176 -116 -280l-52 37q35 46 54.5 101t20.5 142z" />
    <glyph glyph-name="quotedblbase" unicode="&#x201e;" horiz-adv-x="381" 
d="M83 100h93q-1 -175 -116 -280l-52 38q35 46 54.5 100.5t20.5 141.5zM254 100h93q-1 -175 -116 -280l-52 38q35 46 54.5 100.5t20.5 141.5z" />
    <glyph glyph-name="dagger" unicode="&#x2020;" horiz-adv-x="471" 
d="M277 -86h-84v516h-159v80h159v206h84v-206h160v-80h-160v-516z" />
    <glyph glyph-name="daggerdbl" unicode="&#x2021;" horiz-adv-x="471" 
d="M277 -86h-84v208h-159v80h159v228h-159v80h159v206h84v-206h160v-80h-160v-228h160v-80h-160v-208z" />
    <glyph glyph-name="bullet" unicode="&#x2022;" horiz-adv-x="352" 
d="M300 263q0 -130 -124 -130t-124 129q0 130 124 130q60 0 92 -29.5t32 -99.5z" />
    <glyph glyph-name="ellipsis" unicode="&#x2026;" horiz-adv-x="974" 
d="M251 56q0 -66 -66 -66q-64 0 -64 65q0 67 65 67t65 -66zM552 56q0 -66 -66 -66q-26 0 -45 15t-19 50t18.5 51t47.5 16q64 0 64 -66zM854 56q0 -66 -66 -66q-64 0 -64 65q0 35 18.5 51t47.5 16q64 0 64 -66z" />
    <glyph glyph-name="perthousand" unicode="&#x2030;" horiz-adv-x="1227" 
d="M347 474q0 -126 -35 -172t-121 -46q-83 0 -118 45t-35 169t40 169t118 45q57 0 87.5 -15.5t47 -61.5t16.5 -133zM279 473q0 93 -17.5 123t-67.5 30q-47 0 -67.5 -32t-20.5 -124q0 -95 19 -126t66 -31q49 0 68.5 31t19.5 129zM276 -33l-51 5l357 740l51 -5zM817 210
q0 -126 -35.5 -172t-120.5 -46q-83 0 -118 45t-35 169t40 169t118 45q57 0 87.5 -15.5t47 -61.5t16.5 -133zM749 209q0 93 -17.5 123t-67.5 30q-47 0 -67.5 -32t-20.5 -124q0 -95 19 -126t66 -31q49 0 68.5 31t19.5 129zM1190 210q0 -126 -35.5 -172t-121.5 -46
q-82 0 -117 45t-35 169t40 169t118 45q57 0 87.5 -15.5t47 -61.5t16.5 -133zM1122 209q0 93 -17.5 123t-67.5 30q-47 0 -67.5 -32t-20.5 -124q0 -95 19 -126t66 -31q49 0 68.5 31t19.5 129z" />
    <glyph glyph-name="guilsinglleft" unicode="&#x2039;" horiz-adv-x="309" 
d="M273 77l-87 -11l-150 201l150 201l87 -7l-139 -193z" />
    <glyph glyph-name="guilsinglright" unicode="&#x203a;" horiz-adv-x="309" 
d="M30 458l87 10l151 -200l-150 -202l-88 8l139 193z" />
    <glyph glyph-name="fraction" unicode="&#x2044;" horiz-adv-x="84" 
d="M-110 -33l-51 5l357 740l51 -5z" />
    <glyph glyph-name="zero.superior" unicode="&#x2070;" 
d="M347 628q0 -126 -35 -172t-121 -46q-83 0 -118 45t-35 169t40 169t118 45q57 0 87.5 -15.5t47 -61.5t16.5 -133zM279 627q0 93 -17.5 123t-67.5 30q-47 0 -67.5 -32t-20.5 -124q0 -95 19 -126t66 -31q49 0 68.5 31t19.5 129z" />
    <glyph glyph-name="four.superior" unicode="&#x2074;" 
d="M295 418h-65v99h-195v52l136 263l68 -4q-55 -105 -133 -251h124v99h65v-99h62v-60h-62v-99z" />
    <glyph glyph-name="five.superior" unicode="&#x2075;" 
d="M45 426l13 54q53 -12 105 -12q49 0 71 18.5t22 57.5q0 42 -21 56.5t-70 14.5q-39 0 -100 -11l12 226h225v-59h-172l-5 -107q38 9 66 9q72 0 103.5 -27t31.5 -99q0 -69 -38 -103t-123 -34q-76 0 -120 16z" />
    <glyph glyph-name="six.superior" unicode="&#x2076;" 
d="M111 645q31 35 105 35q67 0 96.5 -31t29.5 -102q0 -138 -148 -138q-77 0 -113.5 45t-36.5 151q0 119 40 176t143 57q47 0 89 -13l-11 -54q-37 10 -77 10q-68 0 -90 -29.5t-27 -106.5zM112 569q0 -18 3 -36q9 -67 81 -67q42 0 61.5 19.5t19.5 62.5q0 75 -75 75
q-64 0 -84 -29q-6 -10 -6 -25z" />
    <glyph glyph-name="seven.superior" unicode="&#x2077;" 
d="M178 414l-70 9l146 349h-210v58h286v-49z" />
    <glyph glyph-name="eight.superior" unicode="&#x2078;" 
d="M256 635q82 -13 82 -103q0 -62 -36.5 -92t-114.5 -30q-79 0 -114.5 29t-35.5 91q0 85 82 105q-69 18 -69 94q0 57 34.5 83t106.5 26t104.5 -25.5t32.5 -82.5q0 -75 -72 -95zM269 536q0 67 -81 67q-84 0 -84 -67q0 -71 84 -71q81 0 81 71zM260 721q0 31 -16 45.5t-56 14.5
t-56.5 -15t-16.5 -46q0 -61 72 -61q30 0 51.5 15t21.5 47z" />
    <glyph glyph-name="nine.superior" unicode="&#x2079;" 
d="M266 601q-33 -31 -103 -31q-65 0 -95.5 30t-30.5 100q0 138 151 138q76 0 110.5 -43.5t34.5 -151.5q0 -120 -38 -176.5t-142 -56.5q-64 0 -98 12l11 54q43 -9 87 -9q67 0 88 31t25 103zM265 677q0 26 -4 42q-11 63 -77 63q-84 0 -84 -82q0 -39 17.5 -56.5t58.5 -17.5
q31 0 53.5 8t29.5 18q6 12 6 25z" />
    <glyph glyph-name="parenleft.superior" unicode="&#x207d;" horiz-adv-x="213" 
d="M100 608q0 -58 8.5 -101.5t27.5 -74.5t33 -46.5t41 -40.5l-15 -24q-64 22 -110.5 91.5t-46.5 194.5q0 116 44.5 186t108.5 98l20 -23q-56 -43 -83.5 -101t-27.5 -159z" />
    <glyph glyph-name="parenright.superior" unicode="&#x207e;" horiz-adv-x="213" 
d="M113 604q0 58 -8.5 101.5t-27.5 74.5t-33.5 47.5t-41.5 39.5l16 24q64 -22 110.5 -91.5t46.5 -194.5q0 -116 -44.5 -186t-109.5 -98l-19 23q56 44 83.5 102t27.5 158z" />
    <glyph glyph-name="n.superior" unicode="&#x207f;" horiz-adv-x="371" 
d="M119 263h-68v285q74 29 165 29q81 0 97 -39q7 -17 7 -65v-210h-67v197q0 23 -4 39q-7 20 -49 20q-45 0 -81 -12v-244z" />
    <glyph glyph-name="zero.inferior" unicode="&#x2080;" 
d="M347 210q0 -126 -35 -172t-121 -46q-83 0 -118 45t-35 169t40 169t118 45q57 0 87.5 -15.5t47 -61.5t16.5 -133zM279 209q0 93 -17.5 123t-67.5 30q-47 0 -67.5 -32t-20.5 -124q0 -95 19 -126t66 -31q49 0 68.5 31t19.5 129z" />
    <glyph glyph-name="one.inferior" unicode="&#x2081;" 
d="M309 0h-210v59h76v284l-83 -29l-18 53l117 45h51v-353h67v-59z" />
    <glyph glyph-name="two.inferior" unicode="&#x2082;" 
d="M333 0h-295v48q108 88 168 145q49 49 49 94q0 37 -19.5 56t-66.5 19q-45 0 -99 -16l-11 51q63 23 126 23q79 0 108.5 -33t29.5 -92q0 -63 -50 -115q-59 -59 -142 -122q37 1 202 1v-59z" />
    <glyph glyph-name="three.inferior" unicode="&#x2083;" 
d="M231 218q87 -8 87 -101q0 -63 -36.5 -94t-121.5 -31q-75 0 -117 16l13 54q50 -12 102 -12q56 0 74 18t18 50q0 35 -20.5 51t-75.5 16h-25v57h26q82 0 82 61q0 34 -17.5 46.5t-63.5 12.5q-42 0 -91 -14l-11 51q53 21 117 21q79 0 106.5 -26t27.5 -86q0 -33 -19.5 -57.5
t-54.5 -32.5z" />
    <glyph glyph-name="four.inferior" unicode="&#x2084;" 
d="M295 0h-65v99h-195v52l136 263l68 -4q-55 -105 -133 -251h124v99h65v-99h62v-60h-62v-99z" />
    <glyph glyph-name="five.inferior" unicode="&#x2085;" 
d="M45 8l13 54q53 -12 105 -12q49 0 71 18.5t22 57.5q0 42 -21 56.5t-70 14.5q-39 0 -100 -11l12 226h225v-59h-172l-5 -107q38 9 66 9q72 0 103.5 -27t31.5 -99q0 -69 -38 -103t-123 -34q-76 0 -120 16z" />
    <glyph glyph-name="six.inferior" unicode="&#x2086;" 
d="M111 227q31 35 105 35q67 0 96.5 -31t29.5 -102q0 -138 -148 -138q-77 0 -113.5 45t-36.5 151q0 119 40 176t143 57q47 0 89 -13l-11 -54q-37 10 -77 10q-68 0 -90 -29.5t-27 -106.5zM112 151q0 -18 3 -36q9 -67 81 -67q42 0 61.5 19.5t19.5 62.5q0 75 -75 75
q-64 0 -84 -29q-6 -10 -6 -25z" />
    <glyph glyph-name="seven.inferior" unicode="&#x2087;" 
d="M178 -4l-70 9l146 349h-210v58h286v-49z" />
    <glyph glyph-name="eight.inferior" unicode="&#x2088;" 
d="M256 217q82 -13 82 -103q0 -62 -36.5 -92t-114.5 -30q-79 0 -114.5 29t-35.5 91q0 85 82 105q-69 18 -69 94q0 57 34.5 83t106.5 26t104.5 -25.5t32.5 -82.5q0 -75 -72 -95zM269 118q0 67 -81 67q-84 0 -84 -67q0 -71 84 -71q81 0 81 71zM260 303q0 31 -16 45.5t-56 14.5
t-56.5 -15t-16.5 -46q0 -61 72 -61q30 0 51.5 15t21.5 47z" />
    <glyph glyph-name="nine.inferior" unicode="&#x2089;" 
d="M266 183q-33 -31 -103 -31q-65 0 -95.5 30t-30.5 100q0 138 151 138q76 0 110.5 -43.5t34.5 -151.5q0 -120 -38 -176.5t-142 -56.5q-64 0 -98 12l11 54q43 -9 87 -9q67 0 88 31t25 103zM265 259q0 26 -4 42q-11 63 -77 63q-84 0 -84 -82q0 -39 17.5 -56.5t58.5 -17.5
q31 0 53.5 8t29.5 18q6 12 6 25z" />
    <glyph glyph-name="parenleft.inferior" unicode="&#x208d;" horiz-adv-x="213" 
d="M100 190q0 -58 8.5 -101.5t27.5 -74.5t33 -46.5t41 -40.5l-15 -24q-64 22 -110.5 91.5t-46.5 194.5q0 116 44.5 186t108.5 98l20 -23q-56 -43 -83.5 -101t-27.5 -159z" />
    <glyph glyph-name="parenright.inferior" unicode="&#x208e;" horiz-adv-x="213" 
d="M113 186q0 58 -8.5 101.5t-27.5 74.5t-33.5 47.5t-41.5 39.5l16 24q64 -22 110.5 -91.5t46.5 -194.5q0 -116 -44.5 -186t-109.5 -98l-19 23q56 44 83.5 102t27.5 158z" />
    <glyph glyph-name="Euro" unicode="&#x20ac;" horiz-adv-x="627" 
d="M476 247h-228q9 -87 47 -132.5t124 -45.5q78 0 161 22l17 -73q-82 -30 -189 -30q-115 0 -177 58.5t-75 200.5h-86v53h83v27q0 36 1 54h-84v53h88q14 134 77 194t197 60q94 0 150 -17l-13 -76q-72 12 -143 12q-89 0 -128.5 -43.5t-48.5 -129.5h227v-53h-231v-40v-41h231
v-53z" />
    <glyph glyph-name="afii61289" unicode="&#x2113;" horiz-adv-x="457" 
d="M182 218q6 -154 118 -154q64 0 124 37l34 -62q-72 -52 -175 -52q-72 0 -118 45.5t-59 133.5q-28 -18 -62 -36l-34 60q70 42 83 52q-7 84 -7 120q0 137 22 203q40 123 166 123q135 0 135 -141q0 -91 -68 -180q-42 -56 -159 -149zM172 300q81 70 116 118q45 60 45 123
q0 74 -65 74q-51 0 -76 -51q-24 -51 -24 -175q0 -42 4 -89z" />
    <glyph glyph-name="trademark" unicode="&#x2122;" horiz-adv-x="793" 
d="M206 363h-58v292h-105v51h268v-51h-105v-292zM432 363h-57v343h81q74 -171 86 -202q12 33 82 202h79v-343h-56q0 238 1 289q-20 -57 -86 -221h-43q-68 165 -89 221q2 -54 2 -289z" />
    <glyph glyph-name="Omega" unicode="&#x2126;" horiz-adv-x="742" 
d="M329 0h-261v82h185q-92 36 -134.5 107t-42.5 193q0 161 75 249t227 88q153 0 219.5 -85t66.5 -246q0 -231 -176 -306h186v-82h-261v100q29 13 49.5 26t42 35.5t34.5 50t21.5 70t8.5 96.5q0 131 -46.5 195t-147.5 64q-204 0 -204 -263q0 -66 12.5 -115t37.5 -79.5
t49 -47.5t59 -33v-99z" />
    <glyph glyph-name="estimated" unicode="&#x212e;" horiz-adv-x="845" 
d="M803 336h-616q-6 0 -6 -4v-195q0 -10 10 -22q95 -106 233 -106q147 0 244 118h57q-54 -64 -133 -101.5t-169 -37.5q-158 0 -269.5 105t-111.5 253t111.5 252.5t269.5 104.5t269 -104.5t111 -252.5v-10zM665 362v195q0 13 -11 24q-98 101 -230 101q-135 0 -232 -105
q-11 -9 -11 -24v-191q0 -5 6 -5h472q6 0 6 5z" />
    <glyph glyph-name="onethird" unicode="&#x2153;" horiz-adv-x="854" 
d="M701 218q87 -8 87 -101q0 -63 -36.5 -94t-121.5 -31q-75 0 -117 16l13 54q50 -12 102 -12q56 0 74 18t18 50q0 35 -20.5 51t-75.5 16h-25v57h26q82 0 82 61q0 34 -17.5 46.5t-63.5 12.5q-42 0 -91 -14l-11 51q52 21 117 21q79 0 106.5 -26t27.5 -86q0 -33 -19.5 -57.5
t-54.5 -32.5zM318 264h-210v59h76v284l-83 -29l-18 53l117 45h51v-353h67v-59zM269 -33l-51 5l357 740l51 -5z" />
    <glyph glyph-name="twothirds" unicode="&#x2154;" horiz-adv-x="854" 
d="M300 -33l-51 5l357 740l51 -5zM350 264h-295v48q108 88 168 145q49 49 49 94q0 37 -19.5 56t-66.5 19q-45 0 -99 -16l-11 51q63 23 126 23q79 0 108.5 -33t29.5 -92q0 -63 -50 -115q-59 -59 -142 -122q37 1 202 1v-59zM726 218q87 -8 87 -101q0 -63 -36.5 -94t-121.5 -31
q-75 0 -117 16l13 54q50 -12 102 -12q56 0 74 18t18 50q0 35 -20.5 51t-75.5 16h-25v57h26q82 0 82 61q0 34 -17.5 46.5t-63.5 12.5q-42 0 -91 -14l-11 51q53 21 117 21q79 0 106.5 -26t27.5 -86q0 -33 -19.5 -57.5t-54.5 -32.5z" />
    <glyph glyph-name="oneeighth" unicode="&#x215b;" horiz-adv-x="854" 
d="M714 217q82 -13 82 -103q0 -62 -36.5 -92t-114.5 -30q-79 0 -114.5 29t-35.5 91q0 85 82 105q-69 18 -69 94q0 57 34.5 83t106.5 26t104.5 -25.5t32.5 -82.5q0 -75 -72 -95zM291 264h-210v59h76v284l-83 -29l-18 53l117 45h51v-353h67v-59zM248 -33l-51 5l357 740l51 -5z
M727 118q0 67 -81 67q-84 0 -84 -67q0 -71 84 -71q81 0 81 71zM718 303q0 31 -16 45.5t-56 14.5t-56.5 -15t-16.5 -46q0 -61 72 -61q30 0 51.5 15t21.5 47z" />
    <glyph glyph-name="threeeighths" unicode="&#x215c;" horiz-adv-x="854" 
d="M266 -33l-51 5l357 740l51 -5zM241 482q87 -8 87 -101q0 -63 -36.5 -94t-121.5 -31q-75 0 -117 16l13 54q50 -12 102 -12q56 0 74 18t18 50q0 35 -20.5 51t-75.5 16h-25v57h26q82 0 82 61q0 34 -17.5 46.5t-63.5 12.5q-42 0 -91 -14l-11 51q53 21 117 21q79 0 106.5 -26
t27.5 -86q0 -33 -19.5 -57.5t-54.5 -32.5zM718 217q82 -13 82 -103q0 -62 -36.5 -92t-114.5 -30q-79 0 -114.5 29t-35.5 91q0 85 82 105q-69 18 -69 94q0 57 34.5 83t106.5 26t104.5 -25.5t32.5 -82.5q0 -75 -72 -95zM731 118q0 67 -81 67q-84 0 -84 -67q0 -71 84 -71
q81 0 81 71zM722 303q0 31 -16 45.5t-56 14.5t-56.5 -15t-16.5 -46q0 -61 72 -61q30 0 51.5 15t21.5 47z" />
    <glyph glyph-name="fiveeighths" unicode="&#x215d;" horiz-adv-x="854" 
d="M271 -33l-51 5l357 740l51 -5zM53 272l13 54q53 -12 105 -12q49 0 71 18.5t22 57.5q0 42 -21 56.5t-70 14.5q-39 0 -100 -11l12 226h225v-59h-172l-5 -107q38 9 66 9q72 0 103.5 -27t31.5 -99q0 -69 -38 -103t-123 -34q-76 0 -120 16zM720 217q82 -13 82 -103
q0 -62 -36.5 -92t-114.5 -30q-79 0 -114.5 29t-35.5 91q0 85 82 105q-69 18 -69 94q0 57 34.5 83t106.5 26t104.5 -25.5t32.5 -82.5q0 -75 -72 -95zM733 118q0 67 -81 67q-84 0 -84 -67q0 -71 84 -71q81 0 81 71zM724 303q0 31 -16 45.5t-56 14.5t-56.5 -15t-16.5 -46
q0 -61 72 -61q30 0 51.5 15t21.5 47z" />
    <glyph glyph-name="seveneighths" unicode="&#x215e;" horiz-adv-x="854" 
d="M224 -33l-51 5l357 740l51 -5zM197 260l-70 9l146 349h-210v58h286v-49zM683 217q82 -13 82 -103q0 -62 -36.5 -92t-114.5 -30q-79 0 -114.5 29t-35.5 91q0 85 82 105q-69 18 -69 94q0 57 34.5 83t106.5 26t104.5 -25.5t32.5 -82.5q0 -75 -72 -95zM696 118q0 67 -81 67
q-84 0 -84 -67q0 -71 84 -71q81 0 81 71zM687 303q0 31 -16 45.5t-56 14.5t-56.5 -15t-16.5 -46q0 -61 72 -61q30 0 51.5 15t21.5 47z" />
    <glyph glyph-name="arrowleft" unicode="&#x2190;" horiz-adv-x="768" 
d="M747 392v-81q-518 0 -576 1q44 -40 254 -250l-53 -56l-346 345l346 345l53 -56q-201 -199 -254 -249q86 1 576 1z" />
    <glyph glyph-name="arrowup" unicode="&#x2191;" horiz-adv-x="768" 
d="M427 0h-84q0 514 1 573q-26 -31 -249 -253l-56 54l346 345l344 -345l-56 -54q-228 230 -247 253q1 -87 1 -573z" />
    <glyph glyph-name="arrowright" unicode="&#x2192;" horiz-adv-x="768" 
d="M22 311v81q490 0 576 -1q-24 22 -255 249l54 56l345 -345l-345 -345l-54 56q225 225 255 250q-59 -1 -576 -1z" />
    <glyph glyph-name="arrowdown" unicode="&#x2193;" horiz-adv-x="768" 
d="M346 706h84q0 -227 -4 -575q29 33 247 253l56 -54l-345 -346l-345 346l56 54q196 -195 249 -253q0 18 0.5 86t1 196t0.5 293z" />
    <glyph glyph-name="uni2196" unicode="&#x2196;" horiz-adv-x="768" 
d="M691 109l-60 -59q-379 378 -407 408q1 -22 2 -352h-79v488h488v-77q-300 0 -358 2q149 -144 414 -410z" />
    <glyph glyph-name="uni2197" unicode="&#x2197;" horiz-adv-x="768" 
d="M153 51l-60 59q177 177 413 409q-56 -2 -358 -2v77h489v-488h-79q1 330 2 352q-25 -26 -62.5 -63t-137.5 -137z" />
    <glyph glyph-name="uni2198" unicode="&#x2198;" horiz-adv-x="768" 
d="M631 651l60 -60q-339 -338 -414 -409q58 2 358 2v-77h-488v488h79q-1 -330 -2 -352q19 20 407 408z" />
    <glyph glyph-name="uni2199" unicode="&#x2199;" horiz-adv-x="768" 
d="M78 592l59 60l208.5 -208.5t135 -135.5t64.5 -65q-2 60 -2 352h78v-488h-488v77q300 0 358 -2q-84 80 -413 410z" />
    <glyph glyph-name="partialdiff" unicode="&#x2202;" horiz-adv-x="553" 
d="M404 403q-5 131 -35 189t-108 58q-76 0 -133 -17l-13 62q65 24 160 24q121 0 168 -91.5t47 -315.5q0 -162 -53.5 -243.5t-174.5 -81.5q-202 0 -202 222q0 232 210 232q90 0 134 -38zM407 322q-39 52 -133 52q-136 0 -136 -162q0 -156 128 -156q54 0 84 23t45 81
q12 47 12 162z" />
    <glyph glyph-name="Delta" unicode="&#x2206;" horiz-adv-x="697" 
d="M691 0h-684l294 706h99zM349 600q-22 -61 -213 -520h423q-199 491 -210 520z" />
    <glyph glyph-name="product" unicode="&#x220f;" horiz-adv-x="711" 
d="M195 -102h-92v808h505v-808h-93v725h-320v-725z" />
    <glyph glyph-name="summation" unicode="&#x2211;" horiz-adv-x="597" 
d="M563 -100h-523v80l255 337l-238 311v78h486v-83h-373l235 -306l-259 -334h417v-83z" />
    <glyph glyph-name="minus" unicode="&#x2212;" horiz-adv-x="700" 
d="M610 260h-520v71h520v-71z" />
    <glyph glyph-name="uni2215" unicode="&#x2215;" horiz-adv-x="84" 
d="M-110 -33l-51 5l357 740l51 -5z" />
    <glyph glyph-name="uni2219" unicode="&#x2219;" horiz-adv-x="231" 
d="M180 268q0 -65 -66 -65q-64 0 -64 65q0 34 18.5 50t47.5 16q64 0 64 -66z" />
    <glyph glyph-name="radical" unicode="&#x221a;" horiz-adv-x="637" 
d="M347 -185h-70l-135 273l-65 -30l-28 57l136 64l125 -259l219 772h71z" />
    <glyph glyph-name="infinity" unicode="&#x221e;" horiz-adv-x="730" 
d="M365 343q43 51 83.5 75.5t89.5 24.5q62 0 100 -41.5t38 -107.5q0 -68 -40 -111.5t-106 -43.5q-47 0 -82.5 23t-82.5 78q-46 -53 -83.5 -76.5t-86.5 -23.5q-63 0 -102.5 39t-39.5 108q0 70 41 113.5t106 43.5q47 0 83.5 -23t81.5 -78zM323 291q-40 49 -64 68t-60 19
q-34 0 -57.5 -24t-23.5 -62t22.5 -62t56.5 -24q35 0 63.5 21t62.5 64zM407 292q41 -48 67 -68t57 -20q35 0 57.5 24t22.5 61q0 40 -21 63.5t-57 23.5q-59 0 -126 -84z" />
    <glyph glyph-name="integral" unicode="&#x222b;" horiz-adv-x="328" 
d="M141 -29q0 40 -2 86l-19 452q-2 48 -2 80q0 130 123 130q39 0 65 -6l-7 -65q-21 3 -56 3q-27 0 -40 -15.5t-13 -54.5q0 -7 3 -70l19 -454q2 -50 2 -89q0 -68 -31.5 -98.5t-95.5 -30.5q-33 0 -59 6l9 65q27 -3 51 -3q26 0 39.5 13.5t13.5 50.5z" />
    <glyph glyph-name="approxequal" unicode="&#x2248;" horiz-adv-x="712" 
d="M133 128l-53 46q79 105 163 105q45 0 118 -42q61 -34 95 -34q31 0 55 17.5t53 60.5l54 -43q-37 -57 -74 -84t-87 -27q-49 0 -117 38q-67 37 -98 37q-56 0 -109 -74zM133 326l-53 46q79 105 163 105q45 0 118 -42q61 -34 95 -34q31 0 55 17.5t53 60.5l54 -43
q-37 -57 -74 -84t-87 -27q-49 0 -117 38q-67 37 -98 37q-56 0 -109 -74z" />
    <glyph glyph-name="notequal" unicode="&#x2260;" horiz-adv-x="700" 
d="M242 6h-62l77 155h-167v70h200l61 124h-261v71h295l72 142h62l-71 -142h162v-71h-197l-61 -124h258v-70h-291z" />
    <glyph glyph-name="lessequal" unicode="&#x2264;" horiz-adv-x="700" 
d="M570 149l-453 204v73l453 207v-82l-369 -160l369 -156v-86zM570 0h-453v71h453v-71z" />
    <glyph glyph-name="greaterequal" unicode="&#x2265;" horiz-adv-x="700" 
d="M583 354l-453 -205v84l370 158l-370 159v83l453 -205v-74zM583 0h-453v71h453v-71z" />
    <glyph glyph-name="lozenge" unicode="&#x25ca;" horiz-adv-x="712" 
d="M316 689h83l168 -342l-168 -347h-83l-172 346zM227 346l132 -268l127 269l-128 266z" />
    <glyph glyph-name="commaaccent" unicode="&#xf6c3;" horiz-adv-x="185" 
d="M65 -287l-49 31q65 78 65 196h88q0 -140 -104 -227z" />
    <glyph glyph-name="Dotlessi" horiz-adv-x="287" 
d="M190 0h-93v706h93v-706z" />
    <glyph glyph-name="Euro.denominator" horiz-adv-x="416" 
d="M313 231h-142v-23v-23h142v-36h-140q6 -49 29 -73.5t73 -24.5q57 0 102 14l12 -53q-52 -19 -125 -19q-72 0 -111 35t-47 121h-52v36h50v15v31h-50v36h53q9 80 49 116.5t124 36.5q55 0 99 -12l-9 -54q-49 7 -89 7q-53 0 -77 -23t-30 -71h139v-36z" />
    <glyph glyph-name="Euro.inferior" horiz-adv-x="416" 
d="M313 231h-142v-23v-23h142v-36h-140q6 -49 29 -73.5t73 -24.5q57 0 102 14l12 -53q-52 -19 -125 -19q-72 0 -111 35t-47 121h-52v36h50v15v31h-50v36h53q9 80 49 116.5t124 36.5q55 0 99 -12l-9 -54q-49 7 -89 7q-53 0 -77 -23t-30 -71h139v-36z" />
    <glyph glyph-name="Euro.numerator" horiz-adv-x="416" 
d="M313 495h-142v-23v-23h142v-36h-140q6 -49 29 -73.5t73 -24.5q57 0 102 14l12 -53q-52 -19 -125 -19q-72 0 -111 35t-47 121h-52v36h50v15v31h-50v36h53q9 80 49 116.5t124 36.5q55 0 99 -12l-9 -54q-49 7 -89 7q-53 0 -77 -23t-30 -71h139v-36z" />
    <glyph glyph-name="Euro.oldstyle" horiz-adv-x="610" 
d="M477 339h-227v-37v-39h227v-51h-223q8 -73 40.5 -110.5t105.5 -37.5q79 0 148 17l14 -70q-76 -24 -174 -24q-104 0 -159.5 51t-67.5 174h-80v51h77v27q0 33 1 49h-78v51h82q14 116 71.5 168t178.5 52q92 0 140 -14l-12 -72q-68 10 -132 10q-77 0 -111.5 -36.5
t-43.5 -107.5h223v-51z" />
    <glyph glyph-name="Euro.superior" horiz-adv-x="416" 
d="M313 649h-142v-23v-23h142v-36h-140q6 -49 29 -73.5t73 -24.5q57 0 102 14l12 -53q-52 -19 -125 -19q-72 0 -111 35t-47 121h-52v36h50v15v31h-50v36h53q9 80 49 116.5t124 36.5q55 0 99 -12l-9 -54q-49 7 -89 7q-53 0 -77 -23t-30 -71h139v-36z" />
    <glyph glyph-name="Kgreenlandic" horiz-adv-x="714" 
d="M694 465h-87q2 172 110 270l49 -35q-34 -43 -53 -96t-19 -139zM190 0h-93v706h93v-298h106l206 300l100 -5l-234 -334l250 -366l-104 -5l-225 327h-99v-325z" />
    <glyph glyph-name="S_S" horiz-adv-x="1137" 
d="M351 383q93 -27 130 -66.5t37 -120.5q0 -102 -58 -155.5t-193 -53.5q-123 0 -218 35l17 77q101 -30 203 -30q50 0 82.5 10.5t47 29.5t19 36t4.5 41q0 42 -23 68t-100 47l-94 26q-75 21 -111.5 66t-36.5 121q0 100 58 152.5t188 52.5q105 0 184 -22l-12 -78
q-90 18 -176 18t-116 -29t-30 -85q0 -41 20.5 -67t86.5 -46zM918 383q93 -27 130 -66.5t37 -120.5q0 -102 -58 -155.5t-193 -53.5q-123 0 -218 35l17 77q101 -30 203 -30q50 0 82.5 10.5t47 29.5t19 36t4.5 41q0 42 -23 68t-100 47l-94 26q-75 21 -111.5 66t-36.5 121
q0 100 58 152.5t188 52.5q105 0 184 -22l-12 -78q-90 18 -176 18t-116 -29t-30 -85q0 -41 20.5 -67t86.5 -46z" />
    <glyph glyph-name="a.superior" horiz-adv-x="343" 
d="M293 278q-52 -22 -144 -22q-66 0 -91.5 26.5t-25.5 71.5q0 54 36 76q30 18 97 18q47 0 62 -2v18q0 17 -5 35q-6 21 -68 21q-46 0 -88 -7l-6 52q57 12 112 12q75 0 99 -26q22 -23 22 -84v-189zM227 315v82q-26 2 -55 2q-45 0 -61 -11q-14 -10 -14 -33q0 -24 12 -36t48 -12
q42 0 70 8z" />
    <glyph glyph-name="acute.cap" horiz-adv-x="197" 
d="M41 759l-87 6l168 149l121 -9z" />
    <glyph glyph-name="b.superior" horiz-adv-x="364" 
d="M51 277v442h68v-160q42 18 97 18q60 0 87 -37t27 -120q0 -96 -38 -130t-123 -34q-74 0 -118 21zM119 320q22 -8 52 -8q55 0 72.5 21.5t17.5 81.5q0 59 -13.5 82t-56.5 23q-34 0 -72 -12v-188z" />
    <glyph glyph-name="braceleft.cap" horiz-adv-x="325" 
d="M106 341q45 -11 68 -43t23 -99v-126q0 -57 16 -80q19 -26 95 -26v-54q-73 0 -108 9t-54 34q-25 33 -25 108v126q0 65 -22 92t-78 32v53q57 7 78.5 35.5t21.5 88.5v115q0 79 25 112q20 28 56.5 39.5t105.5 11.5v-53q-81 -3 -98 -33q-13 -23 -13 -75v-122q0 -70 -22 -99.5
t-69 -45.5z" />
    <glyph glyph-name="braceright.cap" horiz-adv-x="325" 
d="M215 341q-44 11 -67.5 43t-23.5 99v126q0 59 -16 80q-19 26 -94 26v54q72 0 107 -9t54 -34q26 -33 26 -108v-126q0 -65 22 -92t77 -32v-53q-56 -7 -77.5 -35.5t-21.5 -88.5v-115q0 -79 -26 -112q-20 -28 -56 -39.5t-105 -11.5v53q81 3 98 33q12 21 12 75v122
q0 70 22 99.5t69 45.5z" />
    <glyph glyph-name="bracketleft.cap" horiz-adv-x="293" 
d="M156 -28h114v-53h-190v845h190v-53h-114v-739z" />
    <glyph glyph-name="bracketright.cap" horiz-adv-x="293" 
d="M136 710h-114v54h190v-845h-190v53h114v738z" />
    <glyph glyph-name="breve.cap" horiz-adv-x="197" 
d="M190 909l62 -3q-2 -148 -156 -148q-151 0 -151 148l63 3q4 -43 24.5 -62.5t63.5 -19.5t65 18.5t29 63.5z" />
    <glyph glyph-name="bullet.cap" horiz-adv-x="352" 
d="M300 313q0 -130 -124 -130t-124 129q0 130 124 130q60 0 92 -29.5t32 -99.5z" />
    <glyph glyph-name="caron.alt" horiz-adv-x="188" 
d="M65 503l-49 32q65 78 65 196h88q0 -139 -104 -228z" />
    <glyph glyph-name="caron.cap" horiz-adv-x="197" 
d="M199 912l81 -7l-145 -149h-77l-141 149l81 6l101 -80z" />
    <glyph glyph-name="cedilla.cap" horiz-adv-x="197" 
d="M-5 -248l12 59q24 -4 62 -4q53 0 53 38q0 21 -11.5 30t-42.5 9q-27 0 -39 -1l27 131h59l-13 -72q60 -3 80.5 -27.5t20.5 -67.5q0 -103 -137 -103q-42 0 -71 8z" />
    <glyph glyph-name="cent.denominator" horiz-adv-x="326" 
d="M219 -63h-55v60q-57 5 -84.5 40t-27.5 113q0 74 25.5 111t86.5 45v62h55v-59q39 -2 69 -10l-10 -53q-38 7 -73 7q-51 0 -67.5 -23.5t-16.5 -74.5q0 -52 16 -77.5t60 -25.5q47 0 86 11l11 -50q-27 -12 -75 -16v-60z" />
    <glyph glyph-name="cent.inferior" horiz-adv-x="326" 
d="M219 -63h-55v60q-57 5 -84.5 40t-27.5 113q0 74 25.5 111t86.5 45v62h55v-59q39 -2 69 -10l-10 -53q-38 7 -73 7q-51 0 -67.5 -23.5t-16.5 -74.5q0 -52 16 -77.5t60 -25.5q47 0 86 11l11 -50q-27 -12 -75 -16v-60z" />
    <glyph glyph-name="cent.numerator" horiz-adv-x="326" 
d="M219 201h-55v60q-57 5 -84.5 40t-27.5 113q0 74 25.5 111t86.5 45v62h55v-59q39 -2 69 -10l-10 -53q-39 7 -73 7q-51 0 -67.5 -23.5t-16.5 -74.5q0 -52 16 -77.5t60 -25.5q47 0 86 11l11 -50q-27 -12 -75 -16v-60z" />
    <glyph glyph-name="cent.oldstyle" horiz-adv-x="467" 
d="M317 -103h-73v101q-85 5 -127 56.5t-42 167.5q0 111 38.5 165t130.5 64v103h73v-101q66 -2 103 -14l-12 -71q-55 10 -111 10q-81 0 -108 -36t-27 -113q0 -78 26 -118t95 -40q62 0 132 18l14 -68q-52 -20 -112 -22v-102z" />
    <glyph glyph-name="cent.superior" horiz-adv-x="326" 
d="M219 355h-55v60q-57 5 -84.5 40t-27.5 113q0 74 25.5 111t86.5 45v62h55v-59q39 -2 69 -10l-10 -53q-39 7 -73 7q-51 0 -67.5 -23.5t-16.5 -74.5q0 -52 16 -77.5t60 -25.5q47 0 86 11l11 -50q-27 -12 -75 -16v-60z" />
    <glyph glyph-name="circumflex.cap" horiz-adv-x="197" 
d="M-2 753l-81 7l145 148h77l141 -148l-81 -6l-101 80z" />
    <glyph glyph-name="comma.denominator" horiz-adv-x="157" 
d="M50 77h67q0 -119 -76 -189l-36 25q45 67 45 164z" />
    <glyph glyph-name="comma.inferior" horiz-adv-x="157" 
d="M50 77h67q0 -119 -76 -189l-36 25q45 67 45 164z" />
    <glyph glyph-name="comma.numerator" horiz-adv-x="157" 
d="M50 341h67q0 -119 -76 -189l-36 25q45 67 45 164z" />
    <glyph glyph-name="comma.superior" horiz-adv-x="157" 
d="M50 495h67q0 -119 -76 -189l-36 25q45 67 45 164z" />
    <glyph glyph-name="d.superior" horiz-adv-x="365" 
d="M313 278q-57 -22 -139 -22q-76 0 -108 33.5t-32 119.5q0 95 36 131.5t117 36.5q34 0 59 -7v149h67v-441zM246 319v194q-29 8 -55 8q-54 0 -71.5 -24t-17.5 -86q0 -55 16 -77.5t60 -22.5q39 0 68 8z" />
    <glyph glyph-name="dieresis.cap" horiz-adv-x="197" 
d="M52 824q0 -55 -51 -55q-50 0 -50 54t50 54q51 0 51 -53zM246 824q0 -55 -51 -55t-51 54t51 54t51 -53z" />
    <glyph glyph-name="dollar.denominator" horiz-adv-x="368" 
d="M44 19l16 52q61 -19 119 -19q34 0 53.5 10t23.5 21.5t4 28.5q0 23 -12.5 36t-52.5 22l-52 12q-46 11 -68 37t-22 75q0 104 110 116v63h56v-61q55 -1 95 -15l-12 -53q-50 13 -105 13q-44 0 -60.5 -15t-16.5 -43q0 -24 10.5 -36.5t48.5 -21.5l48 -12q55 -13 78 -37.5
t23 -73.5q0 -106 -109 -119v-62h-56v59q-65 0 -119 23z" />
    <glyph glyph-name="dollar.inferior" horiz-adv-x="368" 
d="M44 19l16 52q61 -19 119 -19q34 0 53.5 10t23.5 21.5t4 28.5q0 23 -12.5 36t-52.5 22l-52 12q-46 11 -68 37t-22 75q0 104 110 116v63h56v-61q55 -1 95 -15l-12 -53q-50 13 -105 13q-44 0 -60.5 -15t-16.5 -43q0 -24 10.5 -36.5t48.5 -21.5l48 -12q55 -13 78 -37.5
t23 -73.5q0 -106 -109 -119v-62h-56v59q-65 0 -119 23z" />
    <glyph glyph-name="dollar.numerator" horiz-adv-x="368" 
d="M44 283l16 52q61 -19 119 -19q34 0 53.5 10t23.5 21.5t4 28.5q0 23 -12.5 36t-52.5 22l-52 12q-46 11 -68 37t-22 75q0 104 110 116v63h56v-61q55 -1 95 -15l-12 -53q-50 13 -105 13q-44 0 -60.5 -15t-16.5 -43q0 -24 10.5 -36.5t48.5 -21.5l48 -12q55 -13 78 -37.5
t23 -73.5q0 -106 -109 -119v-62h-56v59q-65 0 -119 23z" />
    <glyph glyph-name="dollar.oldstyle" horiz-adv-x="515" 
d="M50 27l20 74q91 -31 175 -31q41 0 68 8t39 23t16 29t4 32q0 33 -19 52.5t-84 36.5l-78 21q-128 35 -128 159q0 72 38 114t122 51v103h74v-101q74 0 139 -20l-12 -74q-91 19 -157 19q-67 0 -92 -22.5t-25 -63.5q0 -32 17.5 -53t74.5 -37l75 -20q78 -21 109.5 -55.5
t31.5 -103.5q0 -74 -37.5 -117.5t-123.5 -53.5v-101h-74v98q-101 1 -173 33z" />
    <glyph glyph-name="dollar.superior" horiz-adv-x="368" 
d="M44 437l16 52q61 -19 119 -19q34 0 53.5 10t23.5 21.5t4 28.5q0 23 -12.5 36t-52.5 22l-52 12q-46 11 -68 37t-22 75q0 104 110 116v63h56v-61q55 -1 95 -15l-12 -53q-50 13 -105 13q-44 0 -60.5 -15t-16.5 -43q0 -24 10.5 -36.5t48.5 -21.5l48 -12q55 -13 78 -37.5
t23 -73.5q0 -106 -109 -119v-62h-56v59q-65 0 -119 23z" />
    <glyph glyph-name="dotaccent.cap" horiz-adv-x="197" 
d="M163 824q0 -55 -51 -55q-50 0 -50 54t50 54q51 0 51 -53z" />
    <glyph glyph-name="e.superior" horiz-adv-x="335" 
d="M101 395q1 -50 22.5 -66.5t69.5 -16.5q41 0 94 11l8 -50q-51 -17 -113 -17q-81 0 -114.5 37.5t-33.5 122.5t36 123t109 38q78 0 101 -35.5t23 -108.5q0 -20 -2 -38h-200zM102 448h137v8q0 38 -12.5 55t-50.5 17q-41 0 -56.5 -19t-17.5 -61z" />
    <glyph glyph-name="egrave.superior" horiz-adv-x="340" 
d="M101 395q1 -50 22.5 -66.5t69.5 -16.5q41 0 94 11l8 -50q-51 -17 -113 -17q-81 0 -114.5 37.5t-33.5 122.5t36 123t109 38q78 0 101 -35.5t23 -108.5q0 -20 -2 -38h-200zM102 448h137v8q0 38 -12.5 55t-50.5 17q-41 0 -56.5 -19t-17.5 -61zM222 622l-58 -7l-99 108l77 5z
" />
    <glyph glyph-name="eight.denominator" 
d="M256 217q82 -13 82 -103q0 -62 -36.5 -92t-114.5 -30q-79 0 -114.5 29t-35.5 91q0 85 82 105q-69 18 -69 94q0 57 34.5 83t106.5 26t104.5 -25.5t32.5 -82.5q0 -75 -72 -95zM269 118q0 67 -81 67q-84 0 -84 -67q0 -71 84 -71q81 0 81 71zM260 303q0 31 -16 45.5t-56 14.5
t-56.5 -15t-16.5 -46q0 -61 72 -61q30 0 51.5 15t21.5 47z" />
    <glyph glyph-name="eight.fitted" horiz-adv-x="565" 
d="M385 356q131 -22 131 -169q0 -102 -56.5 -151t-177.5 -49q-122 0 -177.5 47t-55.5 149q0 139 131 172q-110 29 -110 156q0 91 54 134t164 43q111 0 161 -41t50 -134q0 -125 -114 -157zM408 502q0 55 -28 81t-97 26t-96 -27.5t-27 -82.5q0 -57 34 -83t89 -26
q50 0 87.5 26.5t37.5 85.5zM424 190q0 122 -141 122q-142 0 -142 -122q0 -71 36.5 -98t104.5 -27t105 28.5t37 96.5z" />
    <glyph glyph-name="eight.numerator" 
d="M256 481q82 -13 82 -103q0 -62 -36.5 -92t-114.5 -30q-79 0 -114.5 29t-35.5 91q0 85 82 105q-69 18 -69 94q0 57 34.5 83t106.5 26t104.5 -25.5t32.5 -82.5q0 -75 -72 -95zM269 382q0 67 -81 67q-84 0 -84 -67q0 -71 84 -71q81 0 81 71zM260 567q0 31 -16 45.5t-56 14.5
t-56.5 -15t-16.5 -46q0 -61 72 -61q30 0 51.5 15t21.5 47z" />
    <glyph glyph-name="eight.oldstyle" horiz-adv-x="547" 
d="M373 350q127 -22 127 -167q0 -100 -54.5 -148t-171.5 -48q-118 0 -171.5 46.5t-53.5 146.5q0 136 126 169q-106 29 -106 154q0 89 52.5 131t159.5 42t155 -40t48 -131q0 -124 -111 -155zM396 494q0 54 -27 79.5t-94 25.5t-93 -27t-26 -81q0 -56 33 -82t86 -26q49 0 85 26
t36 85zM411 187q0 119 -136 119q-137 0 -137 -119q0 -69 35.5 -96.5t100.5 -27.5q137 0 137 124z" />
    <glyph glyph-name="eight.taboldstyle" horiz-adv-x="547" 
d="M373 350q127 -22 127 -167q0 -100 -54.5 -148t-171.5 -48q-118 0 -171.5 46.5t-53.5 146.5q0 136 126 169q-106 29 -106 154q0 89 52.5 131t159.5 42t155 -40t48 -131q0 -124 -111 -155zM396 494q0 54 -27 79.5t-94 25.5t-93 -27t-26 -81q0 -56 33 -82t86 -26q49 0 85 26
t36 85zM411 187q0 119 -136 119q-137 0 -137 -119q0 -69 35.5 -96.5t100.5 -27.5q137 0 137 124z" />
    <glyph glyph-name="emdash.cap" horiz-adv-x="843" 
d="M808 279h-773v78h773v-78z" />
    <glyph glyph-name="endash.cap" horiz-adv-x="547" 
d="M512 279h-477v78h477v-78z" />
    <glyph glyph-name="estimated.alt" horiz-adv-x="759" 
d="M152 310q1 -73 19.5 -121.5t56 -73.5t81.5 -34.5t108 -9.5q117 0 257 43l20 -79q-123 -48 -288 -48q-189 0 -269.5 82.5t-80.5 265.5q0 184 88.5 268.5t260.5 84.5q91 0 152.5 -22.5t93.5 -68t44.5 -100t12.5 -131.5q0 -26 -4 -56h-552zM153 385h461q1 9 1 36
q0 190 -215 190q-124 0 -183.5 -60t-63.5 -166z" />
    <glyph glyph-name="exclamdown.cap" horiz-adv-x="288" 
d="M85 482h78q11 -407 11 -482h-101q0 34 12 482zM64 654q0 65 65 65q64 0 64 -65q0 -66 -65 -66q-30 0 -47 14t-17 52z" />
    <glyph glyph-name="five.denominator" 
d="M45 8l13 54q53 -12 105 -12q49 0 71 18.5t22 57.5q0 42 -21 56.5t-70 14.5q-39 0 -100 -11l12 226h225v-59h-172l-5 -107q38 9 66 9q72 0 103.5 -27t31.5 -99q0 -69 -38 -103t-123 -34q-76 0 -120 16z" />
    <glyph glyph-name="five.fitted" horiz-adv-x="550" 
d="M170 403q69 13 114 13q115 0 163 -44.5t48 -161.5q0 -113 -60 -168t-188 -55q-112 0 -185 25l15 74q82 -19 167 -19q83 0 120 34.5t37 105.5q0 76 -36 102t-112 26q-89 0 -168 -18l20 359h348v-82h-273z" />
    <glyph glyph-name="five.numerator" 
d="M45 272l13 54q53 -12 105 -12q49 0 71 18.5t22 57.5q0 42 -21 56.5t-70 14.5q-39 0 -100 -11l12 226h225v-59h-172l-5 -107q38 9 66 9q72 0 103.5 -27t31.5 -99q0 -69 -38 -103t-123 -34q-76 0 -120 16z" />
    <glyph glyph-name="five.oldstyle" horiz-adv-x="523" 
d="M161 250q55 13 113 13q112 0 158 -44.5t46 -159.5q0 -111 -59.5 -165.5t-185.5 -54.5q-102 0 -181 22l14 76q83 -19 167 -19q80 0 116.5 35t36.5 104q0 76 -34 102t-110 26q-79 0 -164 -19l19 351h343v-79h-270z" />
    <glyph glyph-name="five.taboldstyle" horiz-adv-x="547" 
d="M173 250q55 13 112 13q112 0 158 -44.5t46 -159.5q0 -111 -59.5 -165.5t-185.5 -54.5q-101 0 -180 22l14 76q81 -19 167 -19q80 0 116.5 35t36.5 104q0 76 -34.5 102t-110.5 26q-78 0 -163 -19l19 351h342v-79h-269z" />
    <glyph glyph-name="florin.denominator" horiz-adv-x="321" 
d="M280 217h-86l-16 -177q-5 -65 -32 -90q-28 -24 -86 -24q-28 0 -51 7l10 54q12 -4 37 -4q29 0 41 14q10 11 14 50l15 170h-62v53h67l4 42q6 62 33 85q27 24 85 24q35 0 56 -7l-9 -54q-26 4 -42 4q-30 0 -42 -15q-11 -13 -14 -48l-3 -31h81v-53z" />
    <glyph glyph-name="florin.inferior" horiz-adv-x="321" 
d="M280 217h-86l-16 -177q-5 -65 -32 -90q-28 -24 -86 -24q-28 0 -51 7l10 54q12 -4 37 -4q29 0 41 14q10 11 14 50l15 170h-62v53h67l4 42q6 62 33 85q27 24 85 24q35 0 56 -7l-9 -54q-26 4 -42 4q-30 0 -42 -15q-11 -13 -14 -48l-3 -31h81v-53z" />
    <glyph glyph-name="florin.numerator" horiz-adv-x="321" 
d="M280 481h-86l-16 -177q-5 -65 -32 -90q-28 -24 -86 -24q-28 0 -51 7l10 54q12 -4 37 -4q29 0 41 14q10 11 14 50l15 170h-62v53h67l4 42q6 62 33 85q27 24 85 24q35 0 56 -7l-9 -54q-26 4 -42 4q-30 0 -42 -15q-11 -13 -14 -48l-3 -31h81v-53z" />
    <glyph glyph-name="florin.oldstyle" horiz-adv-x="443" 
d="M392 317h-128l-23 -262q-9 -103 -47 -138q-41 -38 -121 -38q-42 0 -76 9l11 73q48 -4 62 -4q45 0 61 24q17 27 22 86l22 250h-97v73h103l5 48q8 96 51 134q38 37 121 37q54 0 79 -10l-12 -73q-33 6 -62 6q-48 0 -67 -27q-18 -26 -23 -83l-3 -32h122v-73z" />
    <glyph glyph-name="florin.superior" horiz-adv-x="321" 
d="M280 635h-86l-16 -177q-5 -65 -32 -90q-28 -24 -86 -24q-28 0 -51 7l10 54q12 -4 37 -4q29 0 41 14q10 11 14 50l15 170h-62v53h67l4 42q6 62 33 85q27 24 85 24q35 0 56 -7l-9 -54q-26 4 -42 4q-30 0 -42 -15q-11 -13 -14 -48l-3 -31h81v-53z" />
    <glyph glyph-name="four.denominator" 
d="M295 0h-65v99h-195v52l136 263l68 -4q-55 -105 -133 -251h124v99h65v-99h62v-60h-62v-99z" />
    <glyph glyph-name="four.fitted" horiz-adv-x="575" 
d="M363 170h-316v75l218 432h96q-128 -256 -214 -424h216v176h89v-176h104v-83h-104v-170h-89v170z" />
    <glyph glyph-name="four.numerator" 
d="M295 264h-65v99h-195v52l136 263l68 -4q-55 -105 -133 -251h124v99h65v-99h62v-60h-62v-99z" />
    <glyph glyph-name="four.oldstyle" horiz-adv-x="564" 
d="M360 23h-312v71l216 431l95 -6q-56 -110 -101 -197t-74.5 -143t-39.5 -76h216v174h86v-174h105v-80h-105v-183h-86v183z" />
    <glyph glyph-name="four.taboldstyle" horiz-adv-x="547" 
d="M347 23h-302v71l216 429l95 -2q-16 -31 -215 -418h206v174h87v-174h104v-80h-104v-183h-87v183z" />
    <glyph glyph-name="fourfifths" horiz-adv-x="854" 
d="M291 -33l-51 5l357 740l51 -5zM310 264h-65v99h-195v52l136 263l68 -4q-55 -105 -133 -251h124v99h65v-99h62v-60h-62v-99zM523 8l13 54q53 -12 105 -12q49 0 71 18.5t22 57.5q0 42 -21 56.5t-70 14.5q-39 0 -100 -11l12 226h225v-59h-172l-5 -107q38 9 66 9
q72 0 103.5 -27t31.5 -99q0 -69 -38 -103t-123 -34q-76 0 -120 16z" />
    <glyph glyph-name="grave.cap" horiz-adv-x="197" 
d="M243 765l-87 -6l-202 146l121 9z" />
    <glyph glyph-name="guillemotleft.cap" horiz-adv-x="511" 
d="M271 125l-87 -10l-151 200l150 202l88 -8l-139 -193zM479 125l-87 -10l-151 200l150 202l87 -7l-138 -194z" />
    <glyph glyph-name="guillemotright.cap" horiz-adv-x="511" 
d="M240 506l87 11l151 -201l-150 -201l-88 8l139 192zM32 506l87 11l151 -201l-150 -201l-87 7l138 193z" />
    <glyph glyph-name="guilsinglleft.cap" horiz-adv-x="309" 
d="M271 125l-87 -10l-151 200l150 202l88 -8l-139 -193z" />
    <glyph glyph-name="guilsinglright.cap" horiz-adv-x="309" 
d="M32 506l87 11l151 -201l-150 -201l-87 7l138 193z" />
    <glyph glyph-name="h.superior" horiz-adv-x="371" 
d="M119 263h-68v456h68v-158q46 16 99 16q79 0 95 -39q7 -17 7 -65v-210h-67v197q0 23 -4 39q-7 20 -50 20q-44 0 -80 -12v-244z" />
    <glyph glyph-name="hungarumlaut.cap" horiz-adv-x="197" 
d="M-55 759l-80 5l156 149l111 -8zM140 759l-80 5l156 149l111 -8z" />
    <glyph glyph-name="hyphen.cap" horiz-adv-x="310" 
d="M275 277h-240v81h240v-81z" />
    <glyph glyph-name="hyphen.denominator" horiz-adv-x="215" 
d="M188 153h-161v61h161v-61z" />
    <glyph glyph-name="hyphen.inferior" horiz-adv-x="215" 
d="M188 153h-161v61h161v-61z" />
    <glyph glyph-name="hyphen.numerator" horiz-adv-x="215" 
d="M188 417h-161v61h161v-61z" />
    <glyph glyph-name="hyphen.superior" horiz-adv-x="215" 
d="M188 571h-161v61h161v-61z" />
    <glyph glyph-name="i.superior" horiz-adv-x="170" 
d="M119 263h-68v307h68v-307zM123 666q0 -39 -38 -39t-38 39t38 39t38 -39z" />
    <glyph glyph-name="idotaccent" horiz-adv-x="260" 
d="M170 0h-90v499h90v-499zM179 661q0 -57 -55 -57t-55 56q0 58 55 58t55 -57z" />
    <glyph glyph-name="l.superior" horiz-adv-x="183" 
d="M167 260q-49 0 -70.5 8t-33.5 26q-12 19 -12 65v360h68v-350q0 -30 7 -40q9 -13 45 -18z" />
    <glyph glyph-name="m.superior" horiz-adv-x="559" 
d="M119 263h-68v285q83 29 161 29q59 0 79 -25q50 25 121 25q73 0 89 -39q8 -20 8 -63v-212h-68v196q0 24 -4 40q-7 20 -47 20q-44 0 -79 -12q3 -9 3 -42v-202h-68v197q0 27 -3 39q-8 20 -47 20q-42 0 -77 -12v-244z" />
    <glyph glyph-name="macron.cap" horiz-adv-x="197" 
d="M247 788h-297v74h297v-74z" />
    <glyph glyph-name="nine.denominator" 
d="M266 183q-33 -31 -103 -31q-65 0 -95.5 30t-30.5 100q0 138 151 138q76 0 110.5 -43.5t34.5 -151.5q0 -120 -38 -176.5t-142 -56.5q-64 0 -98 12l11 54q43 -9 87 -9q67 0 88 31t25 103zM265 259q0 26 -4 42q-11 63 -77 63q-84 0 -84 -82q0 -39 17.5 -56.5t58.5 -17.5
q31 0 53.5 8t29.5 18q6 12 6 25z" />
    <glyph glyph-name="nine.fitted" horiz-adv-x="582" 
d="M426 305q-48 -53 -170 -53q-105 0 -152.5 49t-47.5 163q0 224 236 224q116 0 170.5 -69.5t54.5 -244.5q0 -98 -11 -163.5t-40.5 -119.5t-86 -79.5t-143.5 -25.5q-96 0 -151 19l13 75q76 -14 136 -14q49 0 83.5 12t54 30t31.5 51.5t16 64.5t7 81zM425 422q0 47 -6 77
q-10 51 -39.5 80.5t-93.5 29.5q-72 0 -107.5 -35t-35.5 -111q0 -67 30 -100t99 -33q55 0 94 15t50 33q9 18 9 44z" />
    <glyph glyph-name="nine.numerator" 
d="M266 447q-33 -31 -103 -31q-65 0 -95.5 30t-30.5 100q0 138 151 138q76 0 110.5 -43.5t34.5 -151.5q0 -120 -38 -176.5t-142 -56.5q-64 0 -98 12l11 54q43 -9 87 -9q67 0 88 31t25 103zM265 523q0 26 -4 42q-11 63 -77 63q-84 0 -84 -82q0 -39 17.5 -56.5t58.5 -17.5
q31 0 53.5 8t29.5 18q6 12 6 25z" />
    <glyph glyph-name="nine.oldstyle" horiz-adv-x="553" 
d="M409 154q-48 -53 -168 -53q-104 0 -150.5 48.5t-46.5 161.5q0 221 232 221q114 0 167.5 -69t53.5 -241q0 -77 -6.5 -132t-24 -105t-48 -80.5t-79.5 -48t-118 -17.5q-91 0 -148 19l14 74q76 -14 131 -14q41 0 71.5 7t51 23t33 33.5t20 48t10.5 56.5t5 68zM408 268
q0 49 -7 76q-11 52 -39 81t-92 29q-71 0 -106 -35t-35 -110q0 -66 29.5 -98.5t97.5 -32.5q55 0 94 15.5t49 33.5q9 14 9 41z" />
    <glyph glyph-name="nine.taboldstyle" horiz-adv-x="547" 
d="M409 154q-50 -53 -169 -53q-104 0 -150.5 48.5t-46.5 161.5q0 107 58 164t174 57q114 0 168 -69t54 -241q0 -77 -6.5 -132t-24 -105t-48 -80.5t-80 -48t-118.5 -17.5q-91 0 -148 19l14 74q76 -14 131 -14q49 0 83.5 12t54 29t31.5 51t16 63.5t7 80.5zM407 268q0 48 -6 76
q-11 51 -39.5 80.5t-92.5 29.5q-71 0 -106 -35t-35 -110q0 -66 29.5 -98.5t97.5 -32.5q55 0 94 15.5t50 33.5q8 16 8 41z" />
    <glyph glyph-name="numbersign.oldstyle" horiz-adv-x="561" 
d="M161 -36l-54 5l27 187h-103v77h115l14 98h-108v76h119l27 183l56 -5l-27 -178h144l27 183l55 -5l-27 -178h104v-76h-115l-14 -98h108v-77h-120l-28 -192l-54 5l27 187h-144zM216 331l-15 -98h145l14 98h-144z" />
    <glyph glyph-name="o.superior" horiz-adv-x="356" 
d="M322 419q0 -93 -34.5 -128t-111.5 -35q-75 0 -108.5 34t-33.5 127t37 126.5t109 33.5q77 0 109.5 -30.5t32.5 -127.5zM253 417q0 63 -15.5 83.5t-58.5 20.5q-39 0 -58 -21.5t-19 -81.5q0 -65 16 -85.5t59 -20.5t59.5 20t16.5 85z" />
    <glyph glyph-name="ogonek.cap" horiz-adv-x="197" 
d="M185 7q-61 -41 -85 -68t-24 -67q0 -53 56 -53q28 0 58 5l9 -58q-35 -12 -85 -12q-117 0 -117 106q0 56 30 88t86 59h72z" />
    <glyph glyph-name="one.denominator" 
d="M309 0h-210v59h76v284l-83 -29l-18 53l117 45h51v-353h67v-59z" />
    <glyph glyph-name="one.fitted" horiz-adv-x="429" 
d="M401 0h-330v83h122v493l-116 -41l-28 76l156 65h79v-593h117v-83z" />
    <glyph glyph-name="one.numerator" 
d="M309 264h-210v59h76v284l-83 -29l-18 53l117 45h51v-353h67v-59z" />
    <glyph glyph-name="one.oldstyle" horiz-adv-x="411" 
d="M387 0h-308v82h119v344l-123 -50l-30 75l166 70h76v-439h100v-82z" />
    <glyph glyph-name="one.taboldstyle" horiz-adv-x="547" 
d="M457 0h-322v82h126v344l-128 -51l-30 74l171 72h76v-439h107v-82z" />
    <glyph glyph-name="onefifth" horiz-adv-x="854" 
d="M492 8l13 54q53 -12 105 -12q49 0 71 18.5t22 57.5q0 42 -21 56.5t-70 14.5q-40 0 -100 -11l12 226h225v-59h-172l-5 -107q38 9 66 9q72 0 103.5 -27t31.5 -99q0 -69 -38 -103t-123 -34q-76 0 -120 16zM306 264h-210v59h76v284l-83 -29l-18 53l117 45h51v-353h67v-59z
M257 -33l-51 5l357 740l51 -5z" />
    <glyph glyph-name="parenleft.cap" horiz-adv-x="318" 
d="M140 347q0 -63 6 -115t21 -92.5t27 -67.5t38 -56.5t39 -42t44 -40.5l-24 -33q-36 18 -63.5 37t-61 55.5t-55.5 81t-37.5 115.5t-15.5 157q0 94 18.5 168.5t53.5 125.5t71.5 83.5t85.5 60.5l28 -33q-32 -26 -53.5 -46.5t-46.5 -55.5t-40 -74.5t-25 -98t-10 -129.5z" />
    <glyph glyph-name="parenleft.denominator" horiz-adv-x="213" 
d="M100 190q0 -58 8.5 -101.5t27.5 -74.5t33 -46.5t41 -40.5l-15 -24q-64 22 -110.5 91.5t-46.5 194.5q0 116 44.5 186t108.5 98l20 -23q-56 -43 -83.5 -101t-27.5 -159z" />
    <glyph glyph-name="parenleft.numerator" horiz-adv-x="213" 
d="M100 454q0 -58 8.5 -101.5t27.5 -74.5t33 -46.5t41 -40.5l-15 -24q-64 22 -110.5 91.5t-46.5 194.5q0 116 44.5 186t108.5 98l20 -23q-56 -43 -83.5 -101t-27.5 -159z" />
    <glyph glyph-name="parenright.cap" horiz-adv-x="318" 
d="M178 336q0 76 -11 137.5t-24 99t-41.5 75t-45.5 54.5t-53 48l25 34q46 -24 80 -51t72 -77t59 -131t21 -187q0 -95 -18.5 -169.5t-53 -125t-71 -83t-85.5 -60.5l-28 32q32 26 53 47t46 56t40 74t25 97.5t10 129.5z" />
    <glyph glyph-name="parenright.denominator" horiz-adv-x="213" 
d="M113 186q0 58 -8.5 101.5t-27.5 74.5t-33.5 47.5t-41.5 39.5l16 24q64 -22 110.5 -91.5t46.5 -194.5q0 -116 -44.5 -186t-109.5 -98l-19 23q56 44 83.5 102t27.5 158z" />
    <glyph glyph-name="parenright.numerator" horiz-adv-x="213" 
d="M113 450q0 58 -8.5 101.5t-27.5 74.5t-33.5 47.5t-41.5 39.5l16 24q64 -22 110.5 -91.5t46.5 -194.5q0 -116 -44.5 -186t-109.5 -98l-19 23q56 44 83.5 102t27.5 158z" />
    <glyph glyph-name="percent.oldstyle" horiz-adv-x="812" 
d="M331 421q0 -112 -34.5 -153t-118.5 -41q-80 0 -113 40t-33 151q0 110 39 150.5t114 40.5q83 0 114.5 -36.5t31.5 -151.5zM267 421q0 79 -17.5 105t-65.5 26q-47 0 -67.5 -27.5t-20.5 -106.5q0 -83 19 -109t66 -26q48 0 67 26.5t19 111.5zM779 189q0 -113 -34 -154
t-118 -41q-80 0 -113 40t-33 151t38.5 151t113.5 40q83 0 114.5 -36.5t31.5 -150.5zM715 188q0 79 -17.5 105.5t-65.5 26.5q-47 0 -67.5 -28t-20.5 -106q0 -83 19 -109.5t66 -26.5q48 0 67 26.5t19 111.5zM265 -44l-47 7l329 683l48 -6z" />
    <glyph glyph-name="period.denominator" horiz-adv-x="157" 
d="M121 37q0 -44 -43 -44t-43 43q0 46 44 46q42 0 42 -45z" />
    <glyph glyph-name="period.inferior" horiz-adv-x="157" 
d="M121 37q0 -44 -43 -44t-43 43q0 46 44 46q42 0 42 -45z" />
    <glyph glyph-name="period.numerator" horiz-adv-x="157" 
d="M121 301q0 -44 -43 -44t-43 43q0 46 44 46q42 0 42 -45z" />
    <glyph glyph-name="period.superior" horiz-adv-x="157" 
d="M121 455q0 -44 -43 -44t-43 43q0 46 44 46q42 0 42 -45z" />
    <glyph glyph-name="periodcentered.cap" horiz-adv-x="231" 
d="M180 318q0 -65 -66 -65q-64 0 -64 65q0 34 18.5 50t47.5 16q64 0 64 -66z" />
    <glyph glyph-name="perthousand.oldstyle" horiz-adv-x="1170" 
d="M331 421q0 -112 -34.5 -153t-118.5 -41q-80 0 -113 40t-33 151q0 110 39 150.5t114 40.5q83 0 114.5 -36.5t31.5 -151.5zM267 421q0 79 -17.5 105t-65.5 26q-47 0 -67.5 -27.5t-20.5 -106.5q0 -83 19 -109t66 -26q48 0 67 26.5t19 111.5zM265 -44l-47 7l329 683l48 -6z
M779 189q0 -113 -34 -154t-118 -41q-80 0 -113 40t-33 151t38.5 151t113.5 40q83 0 114.5 -36.5t31.5 -150.5zM715 188q0 79 -17.5 105.5t-65.5 26.5q-47 0 -67.5 -28t-20.5 -106q0 -83 19 -109.5t66 -26.5q48 0 67 26.5t19 111.5zM1137 189q0 -113 -34 -154t-118 -41
q-80 0 -113 40t-33 151t38.5 151t114.5 40q82 0 113.5 -36.5t31.5 -150.5zM1073 188q0 79 -17.5 105.5t-65.5 26.5q-47 0 -67 -28t-20 -106q0 -83 18.5 -109.5t65.5 -26.5q48 0 67 26.5t19 111.5z" />
    <glyph glyph-name="questiondown.cap" horiz-adv-x="421" 
d="M205 483h71q2 -42 2 -65q0 -45 -13 -70.5t-54 -53.5q-48 -33 -66.5 -63t-18.5 -72q0 -45 24.5 -68t85.5 -23t131 12l12 -71q-69 -22 -160 -22q-104 0 -146 40.5t-42 117.5q0 61 20 97t81 77q39 26 52 44.5t17 54.5q1 15 4 65zM179 654q0 65 65 65q64 0 64 -65
q0 -66 -65 -66q-30 0 -47 14t-17 52z" />
    <glyph glyph-name="r.superior" horiz-adv-x="245" 
d="M119 263h-68v285q60 29 140 29q25 0 40 -4l-4 -59q-10 3 -28 3q-42 0 -80 -11v-243z" />
    <glyph glyph-name="ring.cap" horiz-adv-x="197" 
d="M190 828q0 -44 -26 -68t-68 -24q-41 0 -65 24t-24 68t25 69t67 25t66.5 -24.5t24.5 -69.5zM151 829q0 58 -54 58q-24 0 -39 -15t-15 -43q0 -27 15 -42.5t40 -15.5t39 15t14 43z" />
    <glyph glyph-name="s.superior" horiz-adv-x="286" 
d="M29 272l11 53q46 -13 96 -13q37 0 49 9.5t12 27.5q0 12 -9 19.5t-35 15.5l-48 14q-37 10 -55 30.5t-18 56.5q0 92 121 92q46 0 94 -11l-8 -53q-47 9 -88 9q-53 0 -53 -32q0 -13 7 -21t31 -15l48 -15q45 -14 62 -32t17 -57q0 -94 -125 -94q-68 0 -109 16z" />
    <glyph glyph-name="seven.denominator" 
d="M178 -4l-70 9l146 349h-210v58h286v-49z" />
    <glyph glyph-name="seven.fitted" horiz-adv-x="513" 
d="M369 595q-66 -1 -352 -1v82h452v-69l-239 -607h-102z" />
    <glyph glyph-name="seven.numerator" 
d="M178 260l-70 9l146 349h-210v58h286v-49z" />
    <glyph glyph-name="seven.oldstyle" horiz-adv-x="502" 
d="M362 436q-18 0 -124 -0.5t-209 -0.5v82h432v-68l-239 -613l-97 10z" />
    <glyph glyph-name="seven.taboldstyle" horiz-adv-x="547" 
d="M393 436q-18 0 -128 -0.5t-213 -0.5v82h440v-68l-245 -611l-98 7z" />
    <glyph glyph-name="six.denominator" 
d="M111 227q31 35 105 35q67 0 96.5 -31t29.5 -102q0 -138 -148 -138q-77 0 -113.5 45t-36.5 151q0 119 40 176t143 57q47 0 89 -13l-11 -54q-37 10 -77 10q-68 0 -90 -29.5t-27 -106.5zM112 151q0 -18 3 -36q9 -67 81 -67q42 0 61.5 19.5t19.5 62.5q0 75 -75 75
q-64 0 -84 -29q-6 -10 -6 -25z" />
    <glyph glyph-name="six.fitted" horiz-adv-x="581" 
d="M157 366q20 26 66.5 43t106.5 17q105 0 152 -49.5t47 -164.5q0 -225 -230 -225q-116 0 -174 71.5t-58 242.5q0 98 11.5 164t41 119t86 78.5t142.5 25.5q83 0 135 -14l-11 -75q-58 10 -118 10q-61 0 -98.5 -14t-57.5 -48t-28 -73t-13 -108zM159 252q0 -40 5 -66
q19 -120 139 -120q72 0 105.5 35t33.5 112q0 67 -30 101t-98 34q-111 0 -146 -54q-9 -14 -9 -42z" />
    <glyph glyph-name="six.numerator" 
d="M111 491q31 35 105 35q67 0 96.5 -31t29.5 -102q0 -138 -148 -138q-77 0 -113.5 45t-36.5 151q0 119 40 176t143 57q47 0 89 -13l-11 -54q-37 10 -77 10q-68 0 -90 -29.5t-27 -106.5zM112 415q0 -18 3 -36q9 -67 81 -67q42 0 61.5 19.5t19.5 62.5q0 75 -75 75
q-64 0 -84 -29q-6 -10 -6 -25z" />
    <glyph glyph-name="six.oldstyle" horiz-adv-x="555" 
d="M148 359q20 25 66 42t104 17q103 0 149 -49t46 -161q0 -221 -225 -221q-114 0 -170.5 70.5t-56.5 238.5q0 95 11 160t40.5 117t85 77t139.5 25q89 0 136 -18l-13 -71q-73 11 -119 11q-48 0 -81.5 -10t-53.5 -26.5t-32 -49t-17 -65t-9 -87.5zM150 247q0 -37 4 -64
q20 -121 137 -121q71 0 104.5 35.5t33.5 111.5q0 66 -29.5 99.5t-96.5 33.5q-109 0 -145 -55q-8 -14 -8 -40z" />
    <glyph glyph-name="six.taboldstyle" horiz-adv-x="547" 
d="M140 359q20 25 66 42t104 17q103 0 149 -49t46 -161q0 -221 -225 -221q-114 0 -170.5 70.5t-56.5 238.5q0 95 11 159.5t40 117t84.5 77.5t140.5 25q89 0 136 -18l-13 -71q-73 11 -119 11q-48 0 -81.5 -10t-53.5 -26.5t-32 -49t-17 -65t-9 -87.5zM142 247q0 -37 4 -64
q20 -121 137 -121q71 0 104.5 35.5t33.5 111.5q0 66 -29.5 99.5t-96.5 33.5q-109 0 -145 -55q-8 -14 -8 -40z" />
    <glyph glyph-name="sterling.denominator" horiz-adv-x="384" 
d="M361 0h-298v59h48v110h-56v54h56v62q0 56 21 86q33 49 121 49q57 0 105 -12l-9 -54q-47 9 -92 9q-47 0 -66 -20q-13 -15 -13 -60v-60h124v-54h-124v-110h183v-59z" />
    <glyph glyph-name="sterling.inferior" horiz-adv-x="384" 
d="M361 0h-298v59h48v110h-56v54h56v62q0 56 21 86q33 49 121 49q57 0 105 -12l-9 -54q-47 9 -92 9q-47 0 -66 -20q-13 -15 -13 -60v-60h124v-54h-124v-110h183v-59z" />
    <glyph glyph-name="sterling.numerator" horiz-adv-x="384" 
d="M361 264h-298v59h48v110h-56v54h56v62q0 56 21 86q33 49 121 49q57 0 105 -12l-9 -54q-47 9 -92 9q-47 0 -66 -20q-13 -15 -13 -60v-60h124v-54h-124v-110h183v-59z" />
    <glyph glyph-name="sterling.oldstyle" horiz-adv-x="561" 
d="M528 0h-439v81h79v157h-89v74h89v89q0 86 32 135q52 74 183 74q90 0 151 -19l-13 -77q-69 16 -140 16q-40 0 -61.5 -7.5t-36.5 -26.5q-23 -28 -23 -98v-86h184v-74h-184v-157h268v-81z" />
    <glyph glyph-name="sterling.superior" horiz-adv-x="384" 
d="M361 418h-298v59h48v110h-56v54h56v62q0 56 21 86q33 49 121 49q57 0 105 -12l-9 -54q-47 9 -92 9q-47 0 -66 -20q-13 -15 -13 -60v-60h124v-54h-124v-110h183v-59z" />
    <glyph glyph-name="t.superior" horiz-adv-x="227" 
d="M215 260q-94 1 -118 31q-20 24 -20 90v132h-49v52l50 3q2 69 4 83h63v-83h74v-55h-74v-129q0 -42 10 -52q12 -15 64 -21z" />
    <glyph glyph-name="three.denominator" 
d="M231 218q87 -8 87 -101q0 -63 -36.5 -94t-121.5 -31q-75 0 -117 16l13 54q50 -12 102 -12q56 0 74 18t18 50q0 35 -20.5 51t-75.5 16h-25v57h26q82 0 82 61q0 34 -17.5 46.5t-63.5 12.5q-42 0 -91 -14l-11 51q53 21 117 21q79 0 106.5 -26t27.5 -86q0 -33 -19.5 -57.5
t-54.5 -32.5z" />
    <glyph glyph-name="three.fitted" horiz-adv-x="536" 
d="M325 358q138 -13 138 -166q0 -104 -57.5 -154.5t-186.5 -50.5q-113 0 -178 25l14 74q77 -18 161 -18q94 0 124.5 33.5t30.5 89.5q0 63 -35 91.5t-123 28.5h-62v81h63q77 0 108 28t31 78q0 60 -29.5 84.5t-107.5 24.5q-65 0 -145 -21l-13 70q26 12 79.5 22t95.5 10
q124 0 168 -43t44 -141q0 -56 -31.5 -94t-88.5 -52z" />
    <glyph glyph-name="three.numerator" 
d="M231 482q87 -8 87 -101q0 -63 -36.5 -94t-121.5 -31q-75 0 -117 16l13 54q50 -12 102 -12q56 0 74 18t18 50q0 35 -20.5 51t-75.5 16h-25v57h26q82 0 82 61q0 34 -17.5 46.5t-63.5 12.5q-42 0 -91 -14l-11 51q53 21 117 21q79 0 106.5 -26t27.5 -86q0 -33 -19.5 -57.5
t-54.5 -32.5z" />
    <glyph glyph-name="three.oldstyle" horiz-adv-x="507" 
d="M303 211q134 -13 134 -167q0 -104 -57 -154.5t-183 -50.5q-104 0 -175 23l16 75q78 -19 158 -19q48 0 80 10.5t46.5 30.5t19.5 39.5t5 45.5q0 62 -33.5 91.5t-119.5 29.5h-50v79h51q75 0 104.5 28t29.5 79q0 60 -29 85t-105 25q-73 0 -140 -16l-10 71q82 25 167 25
q120 0 163 -42.5t43 -140.5q0 -57 -30.5 -95t-84.5 -52z" />
    <glyph glyph-name="three.taboldstyle" horiz-adv-x="547" 
d="M334 211q134 -13 134 -167q0 -104 -56.5 -154.5t-183.5 -50.5q-105 0 -174 23l15 75q78 -19 158 -19q48 0 80 10.5t46.5 30.5t19.5 39.5t5 45.5q0 62 -33.5 91.5t-119.5 29.5h-50v79h51q75 0 105 28t30 79q0 60 -29.5 85t-104.5 25q-73 0 -140 -16l-11 71q82 25 168 25
q120 0 163 -42.5t43 -140.5q0 -56 -31 -94.5t-85 -52.5z" />
    <glyph glyph-name="threefifths" horiz-adv-x="854" 
d="M281 -33l-51 5l357 740l51 -5zM258 482q87 -8 87 -101q0 -63 -36.5 -94t-121.5 -31q-75 0 -117 16l13 54q50 -12 102 -12q56 0 74 18t18 50q0 35 -20.5 51t-75.5 16h-25v57h26q82 0 82 61q0 34 -17.5 46.5t-63.5 12.5q-42 0 -91 -14l-11 51q52 21 117 21q79 0 106.5 -26
t27.5 -86q0 -33 -19.5 -57.5t-54.5 -32.5zM517 8l13 54q53 -12 105 -12q49 0 71 18.5t22 57.5q0 42 -21 56.5t-70 14.5q-39 0 -100 -11l12 226h225v-59h-172l-5 -107q38 9 66 9q72 0 103.5 -27t31.5 -99q0 -69 -38 -103t-123 -34q-76 0 -120 16z" />
    <glyph glyph-name="tilde.cap" horiz-adv-x="197" 
d="M-13 765l-65 9q11 55 37.5 86.5t64.5 31.5q29 0 79 -25q44 -22 61 -22t26.5 11t19.5 43l66 -8q-22 -122 -99 -122q-32 0 -85 24q-45 22 -61 22q-14 0 -24.5 -11t-19.5 -39z" />
    <glyph glyph-name="two.denominator" 
d="M333 0h-295v48q108 88 168 145q49 49 49 94q0 37 -19.5 56t-66.5 19q-45 0 -99 -16l-11 51q63 23 126 23q79 0 108.5 -33t29.5 -92q0 -63 -50 -115q-59 -59 -142 -122q37 1 202 1v-59z" />
    <glyph glyph-name="two.fitted" horiz-adv-x="541" 
d="M488 0h-456v68q171 147 272 250q79 79 79 158q0 64 -32.5 97.5t-112.5 33.5q-79 0 -160 -25l-12 71q87 35 193 35q122 0 169 -52.5t47 -146.5q0 -110 -84 -197q-109 -111 -233 -210q59 1 330 1v-83z" />
    <glyph glyph-name="two.numerator" 
d="M333 264h-295v48q108 88 168 145q49 49 49 94q0 37 -19.5 56t-66.5 19q-45 0 -99 -16l-11 51q63 23 126 23q79 0 108.5 -33t29.5 -92q0 -63 -50 -115q-59 -59 -142 -122q37 1 202 1v-59z" />
    <glyph glyph-name="two.oldstyle" horiz-adv-x="525" 
d="M467 0h-428v72q10 6 47.5 29t57.5 35.5l52 32.5t56.5 37.5t44.5 32.5q62 48 62 116q0 49 -26.5 74t-93.5 25q-77 0 -150 -22l-14 69q76 29 176 29q114 0 156.5 -44t42.5 -124q0 -90 -65 -146q-68 -59 -205 -136q53 2 287 2v-82z" />
    <glyph glyph-name="two.taboldstyle" horiz-adv-x="547" 
d="M476 0h-428v72q10 6 47.5 29t57.5 35.5l52 32.5t56.5 37.5t44.5 32.5q62 48 62 116q0 49 -26.5 74t-93.5 25q-77 0 -150 -22l-14 69q76 29 176 29q114 0 156.5 -44t42.5 -124q0 -90 -65 -146q-68 -59 -205 -136q53 2 287 2v-82z" />
    <glyph glyph-name="twofifths" horiz-adv-x="854" 
d="M309 -33l-51 5l357 740l51 -5zM355 264h-295v48q108 88 168 145q49 49 49 94q0 37 -19.5 56t-66.5 19q-45 0 -99 -16l-11 51q63 23 126 23q79 0 108.5 -33t29.5 -92q0 -63 -50 -115q-59 -59 -142 -122q37 1 202 1v-59zM542 8l13 54q53 -12 105 -12q49 0 71 18.5t22 57.5
q0 42 -21 56.5t-70 14.5q-40 0 -100 -11l12 226h225v-59h-172l-5 -107q38 9 66 9q72 0 103.5 -27t31.5 -99q0 -69 -38 -103t-123 -34q-76 0 -120 16z" />
    <glyph glyph-name="yen.denominator" horiz-adv-x="407" 
d="M340 202h-86l-17 -25v-22h103v-35h-103v-120h-65v120h-103v35h103v21l-18 26h-85v35h62l-114 171l74 5q77 -113 115 -176q40 65 116 176l71 -5l-116 -171h63v-35z" />
    <glyph glyph-name="yen.inferior" horiz-adv-x="407" 
d="M340 202h-86l-17 -25v-22h103v-35h-103v-120h-65v120h-103v35h103v21l-18 26h-85v35h62l-114 171l74 5q77 -113 115 -176q40 65 116 176l71 -5l-116 -171h63v-35z" />
    <glyph glyph-name="yen.numerator" horiz-adv-x="407" 
d="M340 466h-86l-17 -25v-22h103v-35h-103v-120h-65v120h-103v35h103v21l-18 26h-85v35h62l-114 171l74 5q77 -113 115 -176q40 65 116 176l71 -5l-116 -171h63v-35z" />
    <glyph glyph-name="yen.oldstyle" horiz-adv-x="584" 
d="M494 295h-129l-28 -43v-33h157v-51h-157v-168h-91v168h-157v51h157v31l-29 45h-128v51h95l-159 249l107 5q88 -140 161 -266q68 114 164 266l103 -5l-162 -249h96v-51z" />
    <glyph glyph-name="yen.superior" horiz-adv-x="407" 
d="M340 620h-86l-17 -25v-22h103v-35h-103v-120h-65v120h-103v35h103v21l-18 26h-85v35h62l-114 171l74 5q77 -113 115 -176q40 65 116 176l71 -5l-116 -171h63v-35z" />
    <glyph glyph-name="zero.denominator" 
d="M347 210q0 -126 -35 -172t-121 -46q-83 0 -118 45t-35 169t40 169t118 45q57 0 87.5 -15.5t47 -61.5t16.5 -133zM279 209q0 93 -17.5 123t-67.5 30q-47 0 -67.5 -32t-20.5 -124q0 -95 19 -126t66 -31q49 0 68.5 31t19.5 129z" />
    <glyph glyph-name="zero.fitted" horiz-adv-x="565" 
d="M523 344q0 -142 -26 -220t-76.5 -107.5t-140.5 -29.5q-86 0 -135.5 28.5t-76 106t-26.5 215.5q0 107 17.5 178t52.5 108t76.5 51t100.5 14q66 0 107 -13t71.5 -50t43 -104.5t12.5 -176.5zM430 343q0 110 -14.5 167t-44 77.5t-86.5 20.5q-53 0 -84 -20.5t-48.5 -81
t-17.5 -168.5q0 -113 17 -173t46 -79t83 -19q56 0 86 19t46.5 79.5t16.5 177.5z" />
    <glyph glyph-name="zero.numerator" 
d="M347 474q0 -126 -35 -172t-121 -46q-83 0 -118 45t-35 169t40 169t118 45q57 0 87.5 -15.5t47 -61.5t16.5 -133zM279 473q0 93 -17.5 123t-67.5 30q-47 0 -67.5 -32t-20.5 -124q0 -95 19 -126t66 -31q49 0 68.5 31t19.5 129z" />
    <glyph glyph-name="zero.oldstyle" horiz-adv-x="560" 
d="M517 263q0 -155 -56 -215.5t-182 -60.5q-121 0 -178.5 59.5t-57.5 209.5q0 151 65.5 212.5t180.5 61.5q123 0 175.5 -56.5t52.5 -210.5zM428 262q0 110 -34 151t-110 41q-75 0 -112.5 -44t-37.5 -152q0 -111 35.5 -153t110.5 -42q78 0 113 42t35 157z" />
    <glyph glyph-name="zero.taboldstyle" horiz-adv-x="547" 
d="M506 263q0 -155 -54.5 -215.5t-179.5 -60.5q-119 0 -175 59.5t-56 209.5q0 151 64 212.5t177 61.5q120 0 172 -56.5t52 -210.5zM417 262q0 109 -33.5 150.5t-106.5 41.5q-72 0 -108.5 -44t-36.5 -152q0 -110 34.5 -152.5t106.5 -42.5q76 0 110 42t34 157z" />
    </font>
</defs>
</svg>
